<?xml version="1.0" encoding="UTF-8"?>
<svg version="1.1" xmlns="http://www.w3.org/2000/svg" width="512" height="512">
<path d="M0 0 C1.55550306 -0.00807831 1.55550306 -0.00807831 3.14243042 -0.01631981 C6.6045259 -0.03058532 10.06623827 -0.02349893 13.52835083 -0.01637268 C16.01574002 -0.02207698 18.50312659 -0.02904147 20.99050903 -0.03717041 C27.03809369 -0.05324862 33.08552879 -0.05520363 39.13312016 -0.04995751 C44.05085592 -0.04590964 48.96856102 -0.04736668 53.88629532 -0.05270576 C54.58726593 -0.05345419 55.28823653 -0.05420261 56.01044867 -0.05497371 C57.43465709 -0.05650525 58.85886551 -0.0580436 60.28307392 -0.05958868 C73.62785232 -0.07330478 86.97257204 -0.06788245 100.31734909 -0.05640347 C112.51247866 -0.04647344 124.70745645 -0.0594093 136.9025626 -0.08333766 C149.43923751 -0.10774994 161.97584179 -0.11733122 174.51253998 -0.11068493 C181.54503488 -0.10719725 188.57741311 -0.1093948 195.60988998 -0.12693596 C202.22391665 -0.14322938 208.83770111 -0.13844317 215.45173645 -0.11963081 C217.87605357 -0.11594639 220.30039216 -0.11904905 222.72468948 -0.1295166 C226.04042505 -0.14273766 229.35520356 -0.13116791 232.67089844 -0.11352539 C233.62461393 -0.1231304 234.57832943 -0.1327354 235.56094539 -0.14263147 C244.45338038 -0.04563561 252.3660257 2.52979078 258.93118286 8.69236755 C266.83277691 17.44056096 267.76253745 26.76684305 267.75296021 38.13694763 C267.75967743 39.29087509 267.76639465 40.44480255 267.77331543 41.63369751 C267.79225116 45.43324639 267.79621737 49.23261822 267.79837036 53.0322113 C267.80317429 55.0137976 267.80798208 56.99538393 267.81329119 58.97696894 C267.82953283 65.20348526 267.83446402 71.42994381 267.83303833 77.65647888 C267.83183785 84.05380334 267.8529305 90.45078993 267.88452566 96.84802896 C267.91078262 102.36340679 267.92140171 107.87867491 267.92012751 113.39411467 C267.91962063 116.67810151 267.92702617 119.96172241 267.94648361 123.24566078 C267.96618539 126.91413155 267.96028815 130.58174284 267.94827271 134.25022888 C267.95951172 135.32020111 267.97075073 136.39017334 267.98233032 137.49256897 C267.89897857 147.56016991 265.46641335 156.28417048 258.38430786 163.66893005 C249.05333995 172.0136981 240.14266605 172.68456279 228.02493286 172.51268005 C226.81643677 172.50365662 225.60794067 172.49463318 224.36282349 172.4853363 C221.39582008 172.46188173 218.42923143 172.429058 215.46243286 172.38768005 C215.48861694 173.66409363 215.51480103 174.9405072 215.54177856 176.25559998 C215.63238702 180.99842245 215.68972114 185.74116868 215.73709106 190.48460388 C215.76221092 192.53616711 215.79631322 194.58764106 215.83963013 196.63890076 C215.90039288 199.59054096 215.92866778 202.54099656 215.95071411 205.4931488 C215.97652054 206.40791489 216.00232697 207.32268097 216.02891541 208.26516724 C216.03081684 212.59773299 215.84398836 214.80169852 213.43191528 218.50608826 C210.3903591 220.43334909 208.25207131 221.18396333 204.63567829 221.07783222 C199.75117802 219.52667357 197.18511005 214.21699446 194.36184692 210.2184906 C180.4057957 192.1338842 165.20453246 173.52666416 141.42575836 170.02635384 C132.76007748 168.99058773 124.10518206 168.71532005 115.38430786 168.7197113 C114.49561697 168.7198364 113.60692608 168.7199615 112.69130516 168.72009039 C101.66397034 168.75903512 90.66675411 169.1976626 79.65646696 169.78321445 C69.25306559 170.32790969 58.84543252 170.56610516 48.43118286 170.79978943 C44.75577524 170.88338239 41.08042117 170.96884872 37.40512085 171.05703735 C36.51484168 171.07833023 35.62456252 171.09962311 34.70730519 171.12156123 C28.63689383 171.27527911 22.57354508 171.51296833 16.50753784 171.78778076 C14.10396246 171.88864976 11.70032708 171.98793944 9.29666519 172.08672333 C7.80763418 172.15278649 6.31892447 172.22667433 4.83072281 172.30933952 C-6.03872814 172.91287539 -15.13789021 172.14104782 -23.91256714 165.13768005 C-31.99195473 157.33974654 -34.5023611 149.01555275 -34.79153442 137.92454529 C-34.80325916 135.93182197 -34.80430984 133.93901574 -34.7963562 131.9462738 C-34.79986084 130.84896942 -34.80336548 129.75166504 -34.80697632 128.62110901 C-34.81572197 125.02240016 -34.8099698 121.42389063 -34.80319214 117.82518005 C-34.80454084 115.30752017 -34.80648309 112.78986054 -34.80899048 110.27220154 C-34.81193204 105.00696306 -34.8078685 99.74177563 -34.79830933 94.47654724 C-34.78742749 88.4132622 -34.79095408 82.35011173 -34.80196214 76.28682995 C-34.8121765 70.42314318 -34.81103844 64.55950702 -34.80519867 58.69581604 C-34.8038694 56.21443157 -34.80548444 53.73304364 -34.81015778 51.25166321 C-34.81526594 47.77737983 -34.80745252 44.30335085 -34.7963562 40.8290863 C-34.80040466 39.81476532 -34.80445313 38.80044434 -34.80862427 37.75538635 C-34.74561305 27.04606696 -33.25596924 17.99377478 -26.53756714 9.38768005 C-18.86113305 1.85398957 -10.41920192 -0.06535315 0 0 Z M155.65921021 47.38964844 C155.08638306 47.94015366 154.51355591 48.49065887 153.92337036 49.05784607 C153.23339966 49.71060516 152.54342896 50.36336426 151.83255005 51.03590393 C150.65934204 52.20003311 150.65934204 52.20003311 149.46243286 53.38768005 C148.55396606 54.27438385 147.64549927 55.16108765 146.70950317 56.07466125 C143.47687128 59.2463602 140.28216958 62.45523629 137.08743286 65.6650238 C135.91081362 66.84351188 134.73397062 68.02177659 133.55691528 69.1998291 C130.4838248 72.27670814 127.41375131 75.35657995 124.34432983 78.43711853 C121.20194613 81.58979578 118.05667216 84.73958675 114.91165161 87.88963318 C108.75910479 94.05285259 102.60974724 100.21924171 96.46243286 106.38768005 C93.46933894 104.95836782 91.50085601 103.62019747 89.25540161 101.1650238 C88.66823364 100.54434021 88.08106567 99.92365662 87.47610474 99.28416443 C86.26213302 97.98190386 85.05630841 96.67199895 83.85891724 95.35447693 C80.79950383 92.14826506 79.06140276 90.55623752 74.70071411 89.3290863 C71.31074831 89.09912326 71.31074831 89.09912326 68.46243286 91.38768005 C66.14368522 94.24905781 66.14368522 94.24905781 66.52127075 97.72019958 C67.6603567 102.15894126 69.25519936 103.88807623 72.52102661 107.06736755 C73.02537735 107.56560028 73.52972809 108.06383301 74.04936218 108.5771637 C75.65262901 110.15364408 77.27581033 111.70772553 78.89993286 113.26268005 C79.98783937 114.32904546 81.07444263 115.39674216 82.15969849 116.46580505 C87.81795677 122.7387092 87.81795677 122.7387092 95.30288696 125.68055725 C99.17389904 125.32173 100.25398338 124.38069988 103.01516724 121.7016449 C103.87908081 120.87493286 104.74299438 120.04822083 105.63308716 119.19645691 C106.56677124 118.26956055 107.50045532 117.34266418 108.46243286 116.38768005 C109.47203885 115.40119903 110.48222877 114.41531532 111.49295044 113.42997742 C114.89283568 110.09924559 118.25650508 106.73296541 121.61868286 103.36424255 C122.85498754 102.12861313 124.09144049 100.89313205 125.32803345 99.65779114 C127.89789545 97.0893918 130.46596917 94.51922174 133.03274536 91.94773865 C136.32230968 88.65243553 139.61640098 85.3616998 142.91181183 82.07224464 C145.45632544 79.53133961 147.99845884 76.98806401 150.53987122 74.44405746 C151.75438567 73.22887674 152.96964117 72.01443618 154.18565369 70.80075455 C155.87734862 69.11159555 157.56581163 67.41927107 159.25344849 65.72605896 C159.75418884 65.22734283 160.2549292 64.72862671 160.77084351 64.21479797 C165.04892118 60.01344578 165.04892118 60.01344578 166.83743286 54.45018005 C166.70756468 51.3294825 166.70756468 51.3294825 164.77493286 49.07518005 C161.82725683 46.92417322 159.07472711 45.49180186 155.65921021 47.38964844 Z " fill="#80A9DA" transform="translate(210.53756713867188,170.61231994628906)"/>
<path d="M0 0 C1.04260587 -0.00523668 2.08521174 -0.01047336 3.15941173 -0.01586872 C6.65838121 -0.03088875 10.1572047 -0.03157433 13.65620422 -0.03224182 C16.16285449 -0.03986202 18.66950241 -0.04828927 21.17614746 -0.0574646 C27.99036179 -0.07943188 34.80452546 -0.08823351 41.61877036 -0.09329104 C45.87613942 -0.0965504 50.13349946 -0.10307436 54.39086342 -0.11029243 C66.18542915 -0.12985698 77.97998651 -0.14626175 89.77456951 -0.14916897 C90.52908677 -0.14935654 91.28360402 -0.14954411 92.06098543 -0.14973736 C93.590488 -0.15010361 95.11999056 -0.1504673 96.64949312 -0.15082847 C97.40870974 -0.15101128 98.16792635 -0.1511941 98.95014954 -0.15138245 C99.71029631 -0.151563 100.47044308 -0.15174354 101.2536246 -0.15192956 C113.56536255 -0.15546974 125.87692544 -0.18248288 138.18860271 -0.21988034 C150.83817747 -0.25799566 163.48766544 -0.27732669 176.13729888 -0.27762848 C183.23583286 -0.27821237 190.33415805 -0.28665953 197.43263817 -0.31562614 C204.11152993 -0.34275573 210.78993919 -0.34401753 217.46888924 -0.3279705 C219.91740189 -0.32615512 222.36593824 -0.33285469 224.81439972 -0.34878922 C228.16329387 -0.36925121 231.51074269 -0.35869538 234.85961914 -0.34057617 C235.82316289 -0.35377614 236.78670664 -0.36697611 237.77944869 -0.38057607 C245.96595535 -0.27976354 251.63842517 2.75281887 258.49726868 6.96165466 C266.50337051 15.19014821 268.86309974 24.13120656 268.74726868 35.27415466 C267.70476896 35.2763545 267.70476896 35.2763545 266.64120865 35.27859879 C249.68776306 35.31573839 232.7345484 35.37484736 215.78126907 35.4580574 C207.58259527 35.49777479 199.38401644 35.53020419 191.18525696 35.54515076 C184.03467723 35.55820531 176.88430711 35.58526626 169.73384547 35.62876773 C165.95179236 35.65129763 162.16999695 35.66707048 158.38787079 35.66603851 C154.81886175 35.66528683 151.25042052 35.68343814 147.68155861 35.71532249 C145.76591557 35.72773669 143.85017673 35.72079721 141.93450928 35.7130127 C128.24575041 35.87589621 117.55888624 40.01168421 107.52461243 49.34056091 C93.70336738 63.78182443 94.4409398 82.07557835 94.33320618 100.78977966 C94.31446595 102.8577194 94.29489048 104.92565172 94.27452087 106.99357605 C94.22349509 112.39880472 94.18371236 117.8040581 94.14637756 123.20939636 C94.10615125 128.74015771 94.05514448 134.2708189 94.00508118 139.80149841 C93.90867243 150.6256465 93.82415698 161.44985153 93.74726868 172.27415466 C92.79737564 172.22887634 91.8474826 172.18359802 90.86880493 172.13694763 C83.43729184 172.14530975 78.6507663 172.48287655 72.85346985 177.59446716 C70.95323582 179.50361628 69.1149389 181.42257841 67.29023743 183.39915466 C66.28833863 184.42978433 65.28316755 185.45724191 64.27493286 186.48167419 C61.65429911 189.16086724 59.0780865 191.87888349 56.51002502 194.60838318 C53.87886074 197.39073568 51.20967328 200.13605244 48.54219055 202.88352966 C45.54943585 205.96799783 42.56073281 209.05540165 39.60253906 212.17308044 C38.73015091 213.09073181 37.85776276 214.00838318 36.9589386 214.95384216 C36.19143784 215.76579041 35.42393707 216.57773865 34.63317871 217.41429138 C32.07581066 219.93633901 31.06906459 220.23772494 27.43476868 220.64915466 C23.74726868 220.27415466 23.74726868 220.27415466 21.0473175 218.36912537 C17.81369791 214.01793169 18.10999672 210.66092985 18.25898743 205.37962341 C18.26606216 204.43226822 18.2731369 203.48491302 18.28042603 202.5088501 C18.30834534 199.49230445 18.37107953 196.47763627 18.43476868 193.46165466 C18.45985472 191.4128534 18.48266735 189.36402296 18.50312805 187.31517029 C18.55816409 182.30077846 18.64442012 177.28778452 18.74726868 172.27415466 C18.01725647 172.29510193 17.28724426 172.31604919 16.53511047 172.33763123 C13.16847484 172.42172393 9.80206123 172.47310746 6.43476868 172.52415466 C5.28685852 172.55767029 4.13894836 172.59118591 2.95625305 172.62571716 C-7.71933601 172.74668701 -16.6634946 170.74395545 -24.53398132 163.19602966 C-32.32921758 154.47953822 -33.55339247 145.97092513 -33.52738953 134.62254333 C-33.53250046 133.46715561 -33.53761139 132.31176788 -33.5428772 131.12136841 C-33.55674814 127.311567 -33.55581809 123.50194703 -33.55351257 119.69212341 C-33.55641771 117.7075099 -33.55932791 115.72289632 -33.56291932 113.73828393 C-33.57399351 107.50079212 -33.57446419 101.26336053 -33.56840515 95.02586365 C-33.56237126 88.61325851 -33.57466614 82.20087312 -33.59597522 75.78830546 C-33.61365181 70.26362349 -33.61958294 64.73901106 -33.61633748 59.21430188 C-33.61453354 55.92313453 -33.61840462 52.63215762 -33.63105202 49.34100914 C-33.64344328 45.66515253 -33.63660771 41.98979867 -33.62504578 38.31394958 C-33.63268951 37.23881104 -33.64033325 36.16367249 -33.64820862 35.05595398 C-33.57733819 24.81759355 -31.66565935 15.73511462 -24.25273132 8.27415466 C-16.29958229 1.96213162 -10.03253154 -0.02485839 0 0 Z M44.93086243 68.92649841 C40.71895337 73.72705983 39.37636624 77.47731087 39.46992493 83.86009216 C40.11588576 89.48268079 42.42927305 93.22513774 46.80976868 96.71165466 C51.46106399 99.18574792 55.5316142 99.93424641 60.74726868 99.27415466 C66.58259817 97.4275314 69.83010987 94.75841323 72.74726868 89.27415466 C74.4799233 84.07619079 74.19246219 79.73340007 72.62226868 74.58665466 C69.88090407 69.7435772 66.74109398 67.11156129 61.62226868 64.96165466 C55.45814328 63.48762468 49.65660822 64.62759417 44.93086243 68.92649841 Z " fill="#2753A5" transform="translate(67.25273132324219,120.72584533691406)"/>
</svg>
