<?xml version="1.0" encoding="UTF-8"?>
<svg version="1.1" xmlns="http://www.w3.org/2000/svg" width="512" height="512">
<path d="M0 0 C9.33180926 6.57346257 13.97396118 13.737865 16.84765625 24.74609375 C17.05390625 26.00421875 17.26015625 27.26234375 17.47265625 28.55859375 C20.38695308 35.31446367 27.79594525 38.53681434 34.34765625 41.18359375 C39.52758479 42.85665953 44.45489892 43.95652839 49.84765625 42.74609375 C52.03515201 41.45442958 53.87000649 39.97737986 55.81640625 38.34765625 C64.03466995 31.86787141 73.87024647 31.75240863 83.84765625 32.74609375 C92.53692597 34.78121218 99.92450406 39.72974799 105.16015625 46.93359375 C110.22000054 55.12309649 112.25420413 64.43649478 110.15625 73.84765625 C108.67176396 79.25143388 107.2096946 83.71901214 103.59765625 88.05859375 C101.10285589 91.11202625 99.97610083 93.36690713 100.33203125 97.484375 C102.53881899 107.16414849 107.36955944 115.67202143 114.6484375 122.4140625 C117.53993726 124.16539717 120.1395128 124.47875441 123.47265625 124.99609375 C132.98329302 126.90415289 140.12445775 131.44193687 145.59765625 139.52734375 C151.11036827 149.31240759 152.51575167 159.0745889 149.72265625 169.99609375 C146.800198 178.51765424 140.55607866 185.45318974 132.7890625 189.93359375 C128.54114027 191.99319241 124.84905711 192.91826001 120.16015625 193.43359375 C116.94197502 193.94670237 115.31543854 194.30772576 112.921875 196.55078125 C109.45871009 201.51780189 107.38733574 206.92058999 105.84765625 212.74609375 C105.50734375 213.95265625 105.50734375 213.95265625 105.16015625 215.18359375 C103.98438155 222.75078152 103.98438155 222.75078152 106.08203125 229.85546875 C107.14647986 231.17285565 108.22368047 232.48002686 109.3125 233.77734375 C115.08776548 241.18379108 114.53824522 250.8170702 113.84765625 259.74609375 C112.52592419 267.81937605 107.92124576 274.33409086 101.70703125 279.5390625 C92.67813993 285.93189639 83.86940659 287.92559141 72.84765625 286.74609375 C67.4750754 285.47310007 62.74657327 283.86566874 58.72265625 279.99609375 C55.31760202 277.3312687 53.62230037 277.00276575 49.40234375 277.265625 C39.3207283 279.16170864 31.00741973 284.58633027 23.84765625 291.74609375 C23.37270839 293.90073527 22.96651417 296.07077782 22.59765625 298.24609375 C20.43342594 308.76576047 15.79481165 316.62949297 6.84765625 322.74609375 C-2.3848357 327.81006927 -11.93539221 329.3430669 -22.21484375 326.62109375 C-30.85155979 323.70603261 -37.57655616 318.71334744 -42.15234375 310.74609375 C-42.15234375 310.08609375 -42.15234375 309.42609375 -42.15234375 308.74609375 C-42.72826295 308.74885913 -43.30418215 308.75162451 -43.89755344 308.75447369 C-57.92825892 308.82080397 -71.95894082 308.87040854 -85.98976994 308.90153027 C-92.775057 308.91698158 -99.56023922 308.93803769 -106.34545898 308.97241211 C-112.89418074 309.00557252 -119.44283451 309.02295 -125.99163628 309.03072548 C-128.48947297 309.03626633 -130.98730375 309.04708619 -133.48509407 309.06328392 C-136.98506651 309.08507691 -140.48458971 309.08805981 -143.98461914 309.08666992 C-145.01608566 309.09745575 -146.04755219 309.10824158 -147.11027527 309.11935425 C-154.34273847 309.0882985 -159.27202691 308.23364011 -164.90234375 303.37109375 C-170.13070929 297.27133395 -171.30251666 292.43011343 -171.3293457 284.54614258 C-171.3359169 283.7099942 -171.3424881 282.87384583 -171.34925842 282.01235962 C-171.36898286 279.24261382 -171.38065332 276.47292227 -171.390625 273.703125 C-171.39673829 272.28248025 -171.39673829 272.28248025 -171.40297508 270.8331356 C-171.42383411 265.81836541 -171.43813547 260.80362255 -171.44750977 255.78881836 C-171.45856219 250.61831171 -171.49294916 245.44823683 -171.53268147 240.27788258 C-171.55887573 236.29462403 -171.5672042 232.31146782 -171.57079124 228.32813072 C-171.57565144 226.42281879 -171.58724922 224.51751125 -171.60582924 222.61228371 C-171.63027626 219.9388512 -171.62924544 217.26652852 -171.62231445 214.59301758 C-171.63512451 213.81297867 -171.64793457 213.03293976 -171.66113281 212.22926331 C-171.59281969 204.96201488 -168.78193466 199.30160285 -164.15234375 193.74609375 C-164.98765625 193.40578125 -164.98765625 193.40578125 -165.83984375 193.05859375 C-172.8059727 189.10484489 -177.75474102 181.27989434 -180.15234375 173.74609375 C-181.18817291 161.85814751 -180.64696075 151.84460466 -172.71484375 142.37109375 C-165.84816828 135.15673851 -158.78980385 131.27325281 -148.83984375 129.99609375 C-146.117393 129.49335637 -144.59711535 129.15715406 -142.5546875 127.26953125 C-141.13336172 125.1571021 -140.13486196 123.09591868 -139.15234375 120.74609375 C-138.76175781 119.84246094 -138.37117188 118.93882812 -137.96875 118.0078125 C-135.1759647 110.7117817 -133.80341292 103.51993218 -135.15234375 95.74609375 C-136.41947945 93.16415581 -137.87635406 91.04969724 -139.6171875 88.765625 C-145.22939763 81.38264119 -144.99466264 72.68981681 -144.15234375 63.74609375 C-142.06847684 54.97501553 -137.14703599 47.59618366 -129.77734375 42.43359375 C-128.25421955 41.5065845 -126.71302954 40.60836594 -125.15234375 39.74609375 C-124.53746094 39.40449219 -123.92257813 39.06289062 -123.2890625 38.7109375 C-115.31552313 35.04003608 -105.43676544 35.65885205 -97.27734375 38.37109375 C-93.67386185 39.83039855 -90.98857698 41.55786726 -88.02734375 44.05859375 C-85.27291054 46.23548452 -83.57391009 47.21505991 -80.02734375 47.05859375 C-70.84554334 45.28610706 -61.99039647 39.96070606 -55.15234375 33.74609375 C-52.9997583 30.51721557 -52.81920098 29.01765919 -52.40234375 25.24609375 C-50.91842624 15.80609545 -46.8015897 8.18008715 -39.3046875 2.1796875 C-27.62845116 -5.5974064 -12.40454587 -7.22660476 0 0 Z M-65.47265625 115.625 C-77.8568764 131.26367801 -85.06791362 149.38624179 -82.83984375 169.578125 C-82.08865605 174.80290376 -80.92625941 179.50166254 -79.10058594 184.45751953 C-78.55491974 185.94313889 -78.55491974 185.94313889 -77.99822998 187.45877075 C-77.5795163 188.59099564 -77.5795163 188.59099564 -77.15234375 189.74609375 C-76.36022491 189.74751877 -75.56810608 189.74894379 -74.75198364 189.75041199 C-67.24953652 189.76831735 -59.74776925 189.81015173 -52.24562263 189.87818432 C-48.38958236 189.91232683 -44.53393289 189.93754423 -40.67773438 189.94165039 C-36.94908674 189.94596105 -33.22131877 189.97464881 -29.49294662 190.01952553 C-28.07780985 190.03241305 -26.66256731 190.03683953 -25.2473793 190.03224754 C-16.64636471 190.01085954 -9.2430354 190.44533762 -2.15234375 195.74609375 C5.04260189 204.11765094 3.77421146 216.31117318 3.84765625 226.74609375 C18.08047204 224.6138367 31.51555098 213.82274147 39.93359375 202.66796875 C50.67398116 186.27243859 55.24400865 168.88896382 52.34375 149.3515625 C51.66745873 146.40293254 50.83880281 143.60363322 49.84765625 140.74609375 C49.50734375 139.75222656 49.16703125 138.75835937 48.81640625 137.734375 C42.51591927 121.11045496 29.75799158 107.56230652 13.84765625 99.74609375 C-13.52327362 88.82669969 -44.85699828 93.41957736 -65.47265625 115.625 Z M-154.15234375 208.74609375 C-154.35069942 211.32514648 -154.42511477 213.79681206 -154.41113281 216.37695312 C-154.41463745 217.16407181 -154.41814209 217.95119049 -154.42175293 218.76216125 C-154.43057618 221.37147771 -154.42471907 223.9805244 -154.41796875 226.58984375 C-154.41931523 228.39823458 -154.42125562 230.20662506 -154.42376709 232.01501465 C-154.42671915 235.80805909 -154.42241808 239.60100945 -154.41308594 243.39404297 C-154.40169135 248.26350137 -154.40825038 253.13273933 -154.42023087 258.00218964 C-154.42744725 261.73730133 -154.42516256 265.4723605 -154.41997528 269.20747375 C-154.41863817 271.0032809 -154.42028864 272.79909277 -154.42493439 274.59489441 C-154.42999601 277.10180349 -154.42229468 279.60835223 -154.41113281 282.11523438 C-154.41518127 282.86231155 -154.41922974 283.60938873 -154.42340088 284.37910461 C-154.52006025 288.51708467 -154.52006025 288.51708467 -152.15234375 291.74609375 C-149.66596251 292.05089779 -149.66596251 292.05089779 -146.72424316 292.00006104 C-144.99534599 292.00852051 -144.99534599 292.00852051 -143.23152161 292.01715088 C-141.96080307 292.01310242 -140.69008453 292.00905396 -139.38085938 292.00488281 C-138.03407095 292.00759176 -136.687284 292.01115216 -135.34049988 292.01550293 C-131.67734093 292.02464066 -128.01429432 292.02107703 -124.35113335 292.01474476 C-120.52302618 292.0096919 -116.69492882 292.01437422 -112.86682129 292.01751709 C-106.437401 292.02115883 -100.00802661 292.01635222 -93.57861328 292.00683594 C-86.13842226 291.99595097 -78.69834085 291.9994764 -71.25815248 292.01048875 C-64.87765707 292.01955574 -58.4971947 292.0208498 -52.11669493 292.01561141 C-48.30261659 292.01248846 -44.48858982 292.01209124 -40.67451477 292.01868439 C-37.08928085 292.0244487 -33.50418866 292.02047789 -29.91897011 292.00889587 C-27.9703707 292.00497643 -26.02175935 292.01094273 -24.07316589 292.01715088 C-22.92056778 292.01151123 -21.76796967 292.00587158 -20.58044434 292.00006104 C-19.57460045 291.99930698 -18.56875656 291.99855293 -17.53243256 291.99777603 C-14.965613 291.97858156 -14.965613 291.97858156 -13.15234375 289.74609375 C-12.95398808 287.16704102 -12.87957273 284.69537544 -12.89355469 282.11523438 C-12.89005005 281.32811569 -12.88654541 280.54099701 -12.88293457 279.73002625 C-12.87411132 277.12070979 -12.87996843 274.5116631 -12.88671875 271.90234375 C-12.88537227 270.09395292 -12.88343188 268.28556244 -12.88092041 266.47717285 C-12.87796835 262.68412841 -12.88226942 258.89117805 -12.89160156 255.09814453 C-12.90299615 250.22868613 -12.89643712 245.35944817 -12.88445663 240.48999786 C-12.87724025 236.75488617 -12.87952494 233.019827 -12.88471222 229.28471375 C-12.88604933 227.4889066 -12.88439886 225.69309473 -12.87975311 223.89729309 C-12.87469149 221.39038401 -12.88239282 218.88383527 -12.89355469 216.37695312 C-12.88748199 215.25633736 -12.88748199 215.25633736 -12.88128662 214.11308289 C-12.78462725 209.97510283 -12.78462725 209.97510283 -15.15234375 206.74609375 C-17.63872499 206.44128971 -17.63872499 206.44128971 -20.58044434 206.49212646 C-21.73304245 206.48648682 -22.88564056 206.48084717 -24.07316589 206.47503662 C-25.34388443 206.47908508 -26.61460297 206.48313354 -27.92382812 206.48730469 C-29.27061655 206.48459574 -30.6174035 206.48103534 -31.96418762 206.47668457 C-35.62734657 206.46754684 -39.29039318 206.47111047 -42.95355415 206.47744274 C-46.78166132 206.4824956 -50.60975868 206.47781328 -54.43786621 206.47467041 C-60.8672865 206.47102867 -67.29666089 206.47583528 -73.72607422 206.48535156 C-81.16626524 206.49623653 -88.60634665 206.4927111 -96.04653502 206.48169875 C-102.42703043 206.47263176 -108.8074928 206.4713377 -115.18799257 206.47657609 C-119.00207091 206.47969904 -122.81609768 206.48009626 -126.63017273 206.47350311 C-130.21540665 206.4677388 -133.80049884 206.47170961 -137.38571739 206.48329163 C-139.3343168 206.48721107 -141.28292815 206.48124477 -143.23152161 206.47503662 C-144.96041878 206.48349609 -144.96041878 206.48349609 -146.72424316 206.49212646 C-147.73008705 206.49288052 -148.73593094 206.49363457 -149.77225494 206.49441147 C-152.3390745 206.51360594 -152.3390745 206.51360594 -154.15234375 208.74609375 Z " fill="#428DFE" transform="translate(272.15234375,86.25390625)"/>
<path d="M0 0 C6.45413354 4.54723045 8.9176413 8.6456064 10.6875 16.375 C13.23387266 27.12257495 18.93369884 31.99678101 28.06738281 37.7746582 C37.95363418 43.65741842 49.11930507 47.69923219 60.75 45.9375 C67.26913707 44.19906345 71.75744988 41.34952104 76.75 36.9375 C80.8017687 34.75577839 84.18094953 34.54361634 88.75 34.9375 C95.03948725 36.99784927 98.41619435 40.120838 102.5625 45.125 C104.75992591 50.32942979 104.55970926 55.73329147 102.625 61 C100.49453844 64.33772312 98.31301727 67.63404976 96.0546875 70.88671875 C92.60859286 76.30348427 93.19054797 82.22335844 94.43359375 88.25390625 C97.99074841 101.70024606 104.5491396 115.52771579 116.5 123.4375 C120.30787858 125.55233718 123.56632245 126.34862503 127.875 126.875 C134.11709948 127.65526243 137.77481523 130.10612159 141.75 134.9375 C144.85928839 139.81621895 144.32015268 145.36754693 143.75 150.9375 C142.26464022 156.14566024 138.73136332 159.31880168 134.1640625 161.953125 C130.39250447 163.49104187 126.52557882 163.87457434 122.51171875 164.43359375 C115.47083244 165.71828163 110.75555714 171.34660526 106.75 176.9375 C104.74951093 180.49632153 103.18939243 184.12021019 101.75 187.9375 C101.26853516 189.18273437 101.26853516 189.18273437 100.77734375 190.453125 C98.83632821 196.33936748 98.44804624 202.03850473 98.375 208.1875 C98.36106201 208.94426025 98.34712402 209.70102051 98.33276367 210.48071289 C98.39299114 217.60085131 100.46403368 222.57633731 104.9375 228.1875 C107.92651493 232.57387941 108.58699548 236.01767978 108.26953125 241.2890625 C107.11860478 247.15619141 104.26808815 250.75339124 99.625 254.375 C94.66350186 257.07146638 90.30980743 257.75617715 84.75 256.9375 C80.99684441 255.23211878 77.86441348 252.84929285 74.6875 250.25 C69.40677639 246.67273562 62.91868295 246.09834487 56.75 246.9375 C42.25547405 250.34992554 27.45102284 257.88596573 19 270.5625 C17.77956009 273.85768777 17.04794704 277.00541381 16.3125 280.4375 C14.83592055 287.09346582 13.1899145 291.00590102 7.75 295.3125 C2.86896946 297.84851369 -2.91388027 297.80344925 -8.25 296.9375 C-10.109375 295.41015625 -10.109375 295.41015625 -11.25 293.9375 C-10.35796875 293.82792969 -9.4659375 293.71835937 -8.546875 293.60546875 C-6.79117188 293.36763672 -6.79117188 293.36763672 -5 293.125 C-3.83984375 292.97417969 -2.6796875 292.82335937 -1.484375 292.66796875 C1.77101211 291.93275451 3.24167126 291.03736236 5.75 288.9375 C6.41 288.9375 7.07 288.9375 7.75 288.9375 C10.18643279 284.23866534 11.98580397 280.228144 12.06884766 274.87182617 C12.08871735 273.89118698 12.10858704 272.91054779 12.12905884 271.90019226 C12.14061005 270.8541835 12.15216125 269.80817474 12.1640625 268.73046875 C12.18342865 267.64993729 12.2027948 266.56940582 12.2227478 265.45613098 C12.28242103 262.0125004 12.32888041 258.56883617 12.375 255.125 C12.41319101 252.78709498 12.4522434 250.44920385 12.4921875 248.11132812 C12.58811253 242.38684235 12.67319593 236.66227252 12.75 230.9375 C14.34958748 230.29637313 15.9493029 229.65556545 17.54907227 229.01489258 C18.43990005 228.65800858 19.33072784 228.30112457 20.24855042 227.9334259 C22.14924528 227.17668419 24.05576393 226.43455083 25.96484375 225.69921875 C37.56693286 221.12163696 46.87034218 214.66458638 55.75 205.9375 C56.37648438 205.32390625 57.00296875 204.7103125 57.6484375 204.078125 C74.14506931 186.61110308 78.39757336 163.64238947 78.06640625 140.515625 C77.81563477 133.07432243 76.57771847 126.86309245 73.75 119.9375 C73.38777344 118.92300781 73.02554688 117.90851563 72.65234375 116.86328125 C64.76144822 95.97246968 48.71992428 80.40038115 28.60522461 71.2644043 C7.75533599 62.39520481 -14.67093311 62.59313562 -35.875 70.1875 C-47.93116666 75.12687495 -57.12788803 81.82866621 -66.25 90.9375 C-67.25353516 91.92363281 -67.25353516 91.92363281 -68.27734375 92.9296875 C-83.40469145 108.9145946 -88.77203115 130.8584782 -88.55078125 152.2109375 C-88.26857923 160.69436436 -86.27661811 168.73429414 -84.25 176.9375 C-89.35444606 177.086876 -94.45759444 177.19519283 -99.5637207 177.26708984 C-101.29701932 177.29708831 -103.03016838 177.33790227 -104.76293945 177.39013672 C-121.85986885 177.89226364 -121.85986885 177.89226364 -128.4699707 172.35400391 C-131.19611147 170.18460756 -133.98353051 169.90102658 -137.375 169.4375 C-143.47217336 168.30620138 -147.43557411 166.94099075 -151.25 161.9375 C-154.27613195 156.76379053 -155.30328838 151.82173606 -154.25 145.9375 C-152.13741367 140.48976581 -148.671112 136.76661236 -143.62890625 133.88671875 C-139.86906054 132.38648475 -136.00668808 131.99684132 -132.015625 131.4453125 C-126.13702783 130.36590907 -122.34294331 126.52134271 -118.6953125 122.04296875 C-113.72229858 114.79849712 -111.2119055 106.41622447 -109.25 97.9375 C-109.023125 96.968125 -108.79625 95.99875 -108.5625 95 C-107.40255953 83.63258339 -108.55120541 76.20255946 -115.5 66.9375 C-117.98320016 62.68058544 -118.56060999 58.83907723 -118.25 53.9375 C-116.31454302 47.02515366 -111.98093294 43.21751457 -106 39.5625 C-100.35099344 38.27863487 -95.04483066 38.93653675 -90 41.75 C-89.0925 42.471875 -88.185 43.19375 -87.25 43.9375 C-79.75249125 49.08284914 -74.2581733 49.63349573 -65.25 48.9375 C-51.9066258 46.14782731 -37.93160484 38.07023705 -29.8125 26.97265625 C-27.71443608 23.20076927 -26.93797308 19.55500068 -26.25 15.3125 C-25.19416663 8.83433591 -22.96897831 4.94119394 -17.625 1.0625 C-11.877264 -2.2617503 -6.18505842 -2.02203833 0 0 Z " fill="#A3C1F7" transform="translate(262.25,100.0625)"/>
<path d="M0 0 C0.89420654 -0.03456299 1.78841309 -0.06912598 2.7097168 -0.10473633 C7.19340689 -0.13343126 9.13829532 -0.02050224 12.828125 2.7421875 C15.33005045 6.25098539 15.36450658 8.21276729 14.75 12.4375 C12.98984869 15.6225357 12.25109084 16.27046972 8.75 17.4375 C6.87169494 17.6088083 4.98900619 17.7337299 3.10546875 17.83203125 C-24.83026756 19.44989295 -51.51967368 24.04811594 -77.25 35.4375 C-77.91950684 35.72850586 -78.58901367 36.01951172 -79.27880859 36.31933594 C-105.9496394 47.99593316 -131.56475194 66.03087129 -150.25 88.4375 C-151.08144531 89.38109375 -151.91289062 90.3246875 -152.76953125 91.296875 C-175.21898619 116.89076807 -190.30252478 148.52331823 -198 181.5625 C-198.19875732 182.40780273 -198.39751465 183.25310547 -198.60229492 184.12402344 C-201.74131076 198.29466846 -202.66121057 212.35040045 -202.625 226.8125 C-202.62445618 227.6373288 -202.62391235 228.46215759 -202.62335205 229.3119812 C-202.56198053 249.69149858 -201.96248465 292.72501535 -186.25 308.4375 C-186.08918945 307.7669458 -185.92837891 307.0963916 -185.76269531 306.40551758 C-185.02192417 303.35023288 -184.2611922 300.30025816 -183.5 297.25 C-183.24734375 296.19490234 -182.9946875 295.13980469 -182.734375 294.05273438 C-180.15157071 283.81837236 -180.15157071 283.81837236 -176.25 280.4375 C-173.1550325 279.5111893 -170.39067363 279.74724206 -167.25 280.4375 C-164.625 282.3125 -164.625 282.3125 -163.25 285.4375 C-163.2504855 292.25132236 -164.91093666 298.88129795 -166.6484375 305.42578125 C-166.88406403 306.33200729 -167.11969055 307.23823334 -167.36245728 308.17192078 C-167.85802522 310.06944938 -168.3573676 311.96599597 -168.86035156 313.86157227 C-169.62685859 316.75702075 -170.37662904 319.65645828 -171.125 322.55664062 C-171.61098458 324.40911538 -172.0979302 326.26133833 -172.5859375 328.11328125 C-172.80792816 328.97480301 -173.02991882 329.83632477 -173.25863647 330.72395325 C-174.41585971 335.03852769 -175.55981369 338.78588956 -178.25 342.4375 C-181.81146653 344.21823327 -185.51948436 344.00880783 -189.27432251 342.76919556 C-191.51774054 341.80269126 -193.70531192 340.75947131 -195.89453125 339.67578125 C-196.70435959 339.28811081 -197.51418793 338.90044037 -198.34855652 338.50102234 C-200.92618817 337.26331314 -203.49422486 336.00699006 -206.0625 334.75 C-207.77610064 333.92390095 -209.49028875 333.09901932 -211.20507812 332.27539062 C-215.21359796 330.34602857 -219.21220881 328.39731228 -223.20596313 326.43759155 C-225.00052888 325.55955942 -226.80005112 324.69167274 -228.6003418 323.82543945 C-229.94286011 323.17321411 -229.94286011 323.17321411 -231.3125 322.5078125 C-232.40691406 321.98018311 -232.40691406 321.98018311 -233.5234375 321.44189453 C-236.21012669 319.87896476 -237.31713593 318.37960976 -238.25 315.4375 C-238.17809193 311.91400456 -237.62231132 310.0034132 -235.6875 307.0625 C-232.23806775 304.7628785 -229.22602483 304.82179972 -225.25 305.4375 C-221.43113646 306.81355802 -217.86231564 308.5939734 -214.25 310.4375 C-213.28449219 310.91445313 -212.31898438 311.39140625 -211.32421875 311.8828125 C-208.95876823 313.05382761 -206.60150474 314.23879368 -204.25 315.4375 C-204.42740723 314.90890381 -204.60481445 314.38030762 -204.78759766 313.83569336 C-205.61231604 311.3709161 -206.43205329 308.90453282 -207.25 306.4375 C-207.52166992 305.61910645 -207.79333984 304.80071289 -208.07324219 303.95751953 C-214.93778453 283.02675819 -220.33219122 261.24675957 -220.453125 239.109375 C-220.46018463 238.2465239 -220.46724426 237.38367279 -220.47451782 236.49467468 C-220.69832439 201.1207148 -220.69832439 201.1207148 -217.25 185.4375 C-217.05132324 184.4774707 -216.85264648 183.51744141 -216.64794922 182.52832031 C-205.26353867 128.13897914 -175.36533463 78.47696773 -130.25 45.4375 C-129.11032863 44.57988995 -127.97100752 43.72181424 -126.83203125 42.86328125 C-118.39675608 36.58645117 -109.5704595 31.29036897 -100.25 26.4375 C-99.48365234 26.0353125 -98.71730469 25.633125 -97.92773438 25.21875 C-75.96442539 13.83695425 -52.62008377 6.51349028 -28.25 2.4375 C-27.4751123 2.30762695 -26.70022461 2.17775391 -25.90185547 2.04394531 C-17.30955608 0.67424186 -8.69348964 0.19501511 0 0 Z " fill="#428DFF" transform="translate(245.25,28.5625)"/>
<path d="M0 0 C3.18020318 2.92292831 5.5381496 6.47512 8 10 C9.10140421 11.55219566 10.20298046 13.10426926 11.3046875 14.65625 C14.3404813 18.95283092 17.34103671 23.27292836 20.33300781 27.60009766 C21.83143206 29.75731945 23.34438731 31.90291966 24.8671875 34.04296875 C25.28621338 34.63553467 25.70523926 35.22810059 26.13696289 35.83862305 C27.23041898 37.38399556 28.32793694 38.92649182 29.42578125 40.46875 C30.86748949 42.78693099 31.73205322 44.30378553 32 47 C29.6185567 53.69072165 29.6185567 53.69072165 27 55 C19.95569935 55.69288203 19.95569935 55.69288203 16.5 53.1875 C15.63085781 52.15408695 14.80501291 51.08411481 14 50 C12.96939453 48.65808594 12.96939453 48.65808594 11.91796875 47.2890625 C6 39.39152802 6 39.39152802 6 37 C5.34 37 4.68 37 4 37 C3.98582031 37.67160156 3.97164062 38.34320313 3.95703125 39.03515625 C1.41799617 92.21764772 -29.55585077 144.19458821 -67.9375 179.6875 C-108.15640346 216.12441074 -161.47152795 237.5766877 -215.75 238.4375 C-216.6255957 238.45989746 -217.50119141 238.48229492 -218.40332031 238.50537109 C-224.32964963 238.48298536 -224.32964963 238.48298536 -227.515625 236.1875 C-229.63966366 233.05733777 -230 230.76734324 -230 227 C-228.23358828 224.19810554 -226.96950178 222.48475089 -224 221 C-222.08172893 220.82355004 -220.15835241 220.70143462 -218.234375 220.60546875 C-161.87611857 217.4744545 -114.20269782 197.76535513 -73 159 C-71.93652344 158.01773438 -71.93652344 158.01773438 -70.8515625 157.015625 C-65.01407026 151.44022425 -60.15870438 145.10341821 -55.28564453 138.69140625 C-54.15560327 137.20471315 -53.01423462 135.72664436 -51.87109375 134.25 C-30.34205558 105.7185878 -12.3550372 65.33290462 -13 29 C-13.99966797 30.10794922 -13.99966797 30.10794922 -15.01953125 31.23828125 C-17.47125819 33.9460515 -19.95211111 36.62577379 -22.43896484 39.30126953 C-23.93637901 40.93076715 -25.40055449 42.58549552 -26.86328125 44.24609375 C-34.49062872 52.67907141 -34.49062872 52.67907141 -39.9375 53 C-43.0953747 52.55857666 -44.01774844 51.98528178 -46.5625 49.875 C-48.2504718 46.49905641 -48.38926117 44.73760386 -48 41 C-42.87555476 32.553758 -34.84042787 25.61454316 -27.8125 18.75 C-20.42810638 11.59998713 -20.42810638 11.59998713 -13.57421875 3.953125 C-9.38915639 -0.84794805 -6.21306145 -2.07102048 0 0 Z " fill="#418DFF" transform="translate(473,245)"/>
<path d="M0 0 C0.7744043 0.43546143 1.54880859 0.87092285 2.34667969 1.31958008 C3.96312903 2.23141071 5.57835272 3.14541731 7.19238281 4.06152344 C9.57714066 5.41042902 11.97169546 6.7405903 14.3671875 8.0703125 C15.87043203 8.92074407 17.37306054 9.77226567 18.875 10.625 C19.56513184 11.00406494 20.25526367 11.38312988 20.96630859 11.77368164 C26.76064106 15.11086968 31.05393809 19.29537619 34.0625 25.3125 C35.12946378 31.24007654 34.60021667 37.51757069 31.28173828 42.7109375 C29.05924333 45.02710082 26.61857732 46.47187009 23.8671875 48.125 C23.29698883 48.46898331 22.72679016 48.81296661 22.13931274 49.16737366 C16.08874891 52.79924255 9.97708751 56.32788521 3.84619141 59.82202148 C1.96438187 60.89531486 0.08565239 61.97387186 -1.79296875 63.05273438 C-2.99982144 63.74250001 -4.20684598 64.43196508 -5.4140625 65.12109375 C-6.48865723 65.73525146 -7.56325195 66.34940918 -8.67041016 66.98217773 C-13.23340911 69.4374979 -17.26448669 69.95513947 -22.375 69.4375 C-27.57132366 67.76410763 -30.99960439 65.7505055 -34.375 61.4375 C-37.21276884 55.18546674 -37.82105172 49.25792141 -37.7734375 42.46875 C-37.77630768 41.54839966 -37.77917786 40.62804932 -37.78213501 39.67980957 C-37.78416331 37.74698262 -37.77872052 35.81413456 -37.76611328 33.88134766 C-37.75004196 30.94516522 -37.76600431 28.01035905 -37.78515625 25.07421875 C-37.7831736 23.18489284 -37.77932947 21.29556777 -37.7734375 19.40625 C-37.77951019 18.54036255 -37.78558289 17.6744751 -37.7918396 16.78234863 C-37.71743578 10.24273611 -36.84372316 3.6140798 -32.7265625 -1.68359375 C-20.75822909 -10.80877103 -11.99158653 -6.7535034 0 0 Z " fill="#428DFE" transform="translate(193.375,304.5625)"/>
<path d="M0 0 C4.4612361 0.89224722 6.8258614 1.80414969 10.67578125 3.984375 C11.75150391 4.59023438 12.82722656 5.19609375 13.93554688 5.8203125 C15.04994141 6.45710938 16.16433594 7.09390625 17.3125 7.75 C18.41529297 8.37132812 19.51808594 8.99265625 20.65429688 9.6328125 C26.52640951 12.95625296 32.31238189 16.36990026 38 20 C37.83032227 21.79516602 37.83032227 21.79516602 37 24 C34.71850586 25.65991211 34.71850586 25.65991211 31.71484375 27.27734375 C30.08192383 28.17163086 30.08192383 28.17163086 28.41601562 29.08398438 C27.26810547 29.69564453 26.12019531 30.30730469 24.9375 30.9375 C22.69565315 32.15317659 20.45474681 33.37058941 18.21484375 34.58984375 C17.14476074 35.16718262 16.07467773 35.74452148 14.97216797 36.33935547 C11.76638164 38.13052999 8.70588417 40.06764867 5.68579102 42.15454102 C4 43 4 43 0 43 C0 28.81 0 14.62 0 0 Z " fill="#A3C1F7" transform="translate(173,314)"/>
</svg>
