<?xml version="1.0" encoding="UTF-8"?>
<svg version="1.1" xmlns="http://www.w3.org/2000/svg" width="512" height="512">
<path d="M0 0 C5.97141695 4.35484551 9.16744511 9.38758433 11.12109375 16.546875 C11.57600809 19.87944939 11.71826691 23.18671664 11.80859375 26.546875 C11.84275391 27.41699219 11.87691406 28.28710938 11.91210938 29.18359375 C11.99367358 31.30426315 12.05907903 33.42554391 12.12109375 35.546875 C12.78496094 35.26972656 13.44882812 34.99257813 14.1328125 34.70703125 C15.45732422 34.16369141 15.45732422 34.16369141 16.80859375 33.609375 C18.11376953 33.06990234 18.11376953 33.06990234 19.4453125 32.51953125 C36.6405582 26.26899668 55.15262284 33.22169261 70.84912109 40.47070312 C82.73566948 46.10103896 95.14258199 52.52789447 105.13427734 61.14575195 C109.85695655 64.50590546 114.50617996 64.23298406 120.12890625 64.140625 C121.17255341 64.14066528 122.21620056 64.14070557 123.29147339 64.14074707 C125.48848523 64.13540499 127.68549744 64.11787884 129.88232422 64.08886719 C133.24245598 64.04692041 136.60058732 64.0478106 139.9609375 64.0546875 C142.10027432 64.04419732 144.23960084 64.03126014 146.37890625 64.015625 C147.88216965 64.01532288 147.88216965 64.01532288 149.415802 64.01501465 C156.29074395 63.94980086 156.29074395 63.94980086 162.12109375 60.546875 C163.12368882 57.53908979 163.42424017 55.00866853 163.68359375 51.859375 C163.76738281 50.86550781 163.85117187 49.87164062 163.9375 48.84765625 C163.99808594 48.08839844 164.05867188 47.32914063 164.12109375 46.546875 C163.27546875 46.36125 162.42984375 46.175625 161.55859375 45.984375 C155.62601403 43.50347803 151.67283872 39.14598384 148.68359375 33.484375 C146.04430381 26.8118844 145.90617634 19.01834619 147.78125 12.1171875 C150.57691495 5.89653041 155.33844977 0.9750754 161.36328125 -2.1171875 C168.5205233 -4.66165401 176.9496314 -4.91126741 184.171875 -2.38671875 C191.06415259 1.45162097 195.58074759 6.69600961 198.49609375 13.984375 C200.10399813 23.14942998 198.74589014 29.49918964 194.49609375 37.671875 C192.11312221 40.55652476 190.65596358 41.36164197 187.43359375 43.046875 C184.9673518 44.43122852 184.9673518 44.43122852 183.12109375 46.546875 C182.33494758 50.11747185 182.24530369 53.42198729 182.19921875 57.07421875 C182.02523448 64.80781937 179.35021792 70.22559252 174.08984375 75.8203125 C168.26365144 80.92979068 161.87581261 82.68337867 154.26171875 82.64453125 C153.14667969 82.64130859 152.03164063 82.63808594 150.8828125 82.63476562 C149.72394531 82.62638672 148.56507813 82.61800781 147.37109375 82.609375 C145.60958984 82.60260742 145.60958984 82.60260742 143.8125 82.59570312 C140.91531303 82.58392594 138.01822921 82.56747826 135.12109375 82.546875 C135.53101563 83.21074219 135.9409375 83.87460938 136.36328125 84.55859375 C136.90210938 85.44160156 137.4409375 86.32460937 137.99609375 87.234375 C138.52976562 88.10449219 139.0634375 88.97460938 139.61328125 89.87109375 C141.02940624 92.3841653 142.07906962 94.86317134 143.12109375 97.546875 C150.48385967 97.5932432 157.84659404 97.62876696 165.20947647 97.65049934 C168.62847303 97.66093052 172.04736959 97.67507743 175.46630859 97.69775391 C179.39809975 97.72366833 183.3298506 97.73335332 187.26171875 97.7421875 C189.10095917 97.75767136 189.10095917 97.75767136 190.97735596 97.77346802 C192.11823669 97.77361908 193.25911743 97.77377014 194.43457031 97.77392578 C195.43828674 97.778367 196.44200317 97.78280823 197.47613525 97.78738403 C200.24806274 97.53532957 201.84879116 97.14602053 204.12109375 95.546875 C205.42030121 92.00098999 205.42030121 92.00098999 206.12109375 88.546875 C205.25484375 88.39412109 205.25484375 88.39412109 204.37109375 88.23828125 C199.50213143 86.7420897 195.49008992 82.64522241 192.75 78.4453125 C189.03288107 71.17446448 188.17200641 64.64338333 190.18359375 56.609375 C192.48463491 49.5449636 196.75882143 44.50684089 203.37109375 41.109375 C211.2026348 37.61650769 218.97484422 37.43920543 227.0234375 40.51953125 C233.33093737 43.60867923 237.33016666 48.2012945 240.23828125 54.56640625 C242.33254112 61.63684998 242.60063297 70.1792375 239.62109375 77.046875 C236.73025284 81.77546477 232.10337258 86.35290216 226.92578125 88.42578125 C224.87831128 89.41320481 224.87831128 89.41320481 224.50390625 91.83203125 C224.41882813 92.74855469 224.33375 93.66507812 224.24609375 94.609375 C223.10782085 102.16156824 219.75032067 107.79769182 213.68359375 112.484375 C206.52750748 117.48825487 198.07846774 116.81193817 189.75 116.7421875 C188.47253403 116.7393576 187.19506805 116.73652771 185.87889099 116.73361206 C182.50375797 116.72434507 179.12890171 116.70641566 175.75384521 116.6842041 C172.30141576 116.66364363 168.84895757 116.65458866 165.39648438 116.64453125 C158.63793528 116.62252411 151.87955233 116.58802143 145.12109375 116.546875 C144.46109375 120.506875 143.80109375 124.466875 143.12109375 128.546875 C144.54421875 128.918125 145.96734375 129.289375 147.43359375 129.671875 C161.87748288 134.10052174 174.04361659 143.57904843 181.66015625 156.67578125 C187.7655755 168.67439929 190.99191521 180.44091594 189.30859375 193.921875 C188.78384861 198.48999139 188.78384861 198.48999139 190.32421875 202.640625 C191.52155683 203.87032357 192.75216281 205.06818685 194.0078125 206.23828125 C205.36712256 218.64743512 207.89145286 236.00817956 207.46484375 252.08984375 C206.9098651 263.54420666 203.3013641 273.15835114 197.51171875 282.9375 C195.88593678 285.49532432 195.88593678 285.49532432 196.12109375 288.546875 C197.34391642 290.78048695 198.60756898 292.9392533 199.93359375 295.109375 C207.57373759 308.2454717 209.06404417 321.30551898 206.46484375 336.34375 C202.36849851 351.1047182 192.75029209 362.62962144 179.67578125 370.35546875 C177.12109375 371.546875 177.12109375 371.546875 170.12109375 373.546875 C170.78109375 378.496875 171.44109375 383.446875 172.12109375 388.546875 C174.25449219 388.51207031 176.38789063 388.47726562 178.5859375 388.44140625 C180.68105739 388.41792595 182.77616192 388.3997579 184.87133789 388.38208008 C186.3134633 388.36710992 187.75554411 388.34672632 189.19750977 388.32055664 C199.6827199 388.13520284 209.45612301 388.09720474 217.55078125 395.68359375 C221.50250343 400.37257753 224.2352546 405.68752725 224.43359375 411.859375 C224.70706654 415.49074573 224.70706654 415.49074573 226.73828125 416.90625 C228.13878921 417.7201301 229.55504925 418.50739526 230.984375 419.26953125 C236.03178965 422.2869071 239.36582858 426.99515393 241.12109375 432.546875 C242.11987677 441.74619229 241.7851756 449.88960992 236.12109375 457.546875 C231.14781446 463.3469774 225.13472106 465.90734144 217.640625 466.86328125 C209.68089327 467.245842 203.53497549 464.64550418 197.30859375 459.796875 C191.53665194 454.50704434 189.56684155 448.00435296 188.80859375 440.421875 C189.48029165 432.09282106 192.24299593 425.52937391 198.4375 419.88671875 C202.63421328 416.546875 202.63421328 416.546875 206.12109375 416.546875 C205.32677413 411.85945216 205.32677413 411.85945216 202.49121094 408.34619141 C199.26793686 407.25914986 196.34871959 407.21640678 192.94921875 407.1328125 C192.26680115 407.11344635 191.58438354 407.0940802 190.88128662 407.0741272 C188.71134767 407.01456402 186.54135498 406.96804054 184.37109375 406.921875 C182.89581078 406.88367369 181.4205496 406.8446207 179.9453125 406.8046875 C176.33743957 406.70888265 172.72940292 406.62476584 169.12109375 406.546875 C168.92990967 407.14943115 168.73872559 407.7519873 168.54174805 408.37280273 C168.28304932 409.17145752 168.02435059 409.9701123 167.7578125 410.79296875 C167.50475342 411.5811499 167.25169434 412.36933105 166.9909668 413.18139648 C165.74269038 416.57588154 164.01768494 419.47308927 162.12109375 422.546875 C162.76175781 422.815 163.40242188 423.083125 164.0625 423.359375 C171.33043683 426.65215115 176.74616274 430.42894248 180.1796875 437.828125 C181.84471424 442.73557224 182.17556772 447.13084332 182.24609375 452.296875 C182.42374839 456.88697533 182.42374839 456.88697533 185.00390625 460.4609375 C186.5818204 461.4347657 188.19153925 462.35883723 189.828125 463.23046875 C194.49592675 465.91027998 196.53511595 470.04007496 198.43359375 474.921875 C200.03753313 483.3790099 199.49301305 491.00490862 194.9375 498.4921875 C191.06634686 503.55868254 186.22097842 506.74009396 180.12109375 508.546875 C172.98911225 509.40542399 165.23092817 509.9054384 158.8984375 506.01171875 C152.29241551 500.56719513 147.7256714 495.14976319 146.78515625 486.43359375 C146.67055031 477.04736713 148.03415282 470.58712496 154.49609375 463.609375 C157.45643464 460.84724268 160.11009121 459.42733897 164.12109375 458.546875 C163.95399135 449.95036697 163.95399135 449.95036697 160.12109375 442.546875 C150.38222117 439.30058414 140.15410113 441.34901389 131.05078125 445.3671875 C127.01971027 446.99036541 123.43890686 447.32732518 119.12109375 447.546875 C118.81171875 448.536875 118.81171875 448.536875 118.49609375 449.546875 C112.05160903 463.60756894 98.60522597 473.67625017 84.62109375 479.359375 C66.42042956 485.87645617 47.71520616 484.88940458 30.015625 477.0703125 C23.27211822 473.5210984 17.45495081 468.95457897 12.12109375 463.546875 C12.09921997 464.62001953 12.09921997 464.62001953 12.0769043 465.71484375 C12.00190162 468.99269936 11.9054142 472.26959417 11.80859375 475.546875 C11.78603516 476.67222656 11.76347656 477.79757812 11.74023438 478.95703125 C11.43074097 488.5794626 9.90113549 495.61649827 3.1171875 502.78125 C-3.27743131 508.43754688 -10.06890969 509.26301567 -18.4375 508.9921875 C-25.30390709 508.10368533 -30.59070747 505.27203922 -35.31640625 500.234375 C-39.97220516 494.0618144 -41.03015923 489.00834005 -40.94921875 481.26953125 C-40.93906738 480.01019775 -40.92891602 478.75086426 -40.91845703 477.45336914 C-40.90540527 476.49422607 -40.89235352 475.53508301 -40.87890625 474.546875 C-41.92104971 474.55056217 -42.96319317 474.55424934 -44.03691673 474.55804825 C-69.40980226 474.64689785 -94.78266758 474.71260242 -120.15567589 474.75412369 C-132.42594308 474.77473743 -144.69610742 474.80283549 -156.96630859 474.84863281 C-167.66263926 474.88853674 -178.35889542 474.91431644 -189.05529845 474.92322898 C-194.71750527 474.92843765 -200.37949898 474.94065551 -206.04163742 474.96979523 C-211.37514902 474.99702034 -216.70836047 475.00530558 -222.04193497 474.99930573 C-223.99539574 475.00040278 -225.94886694 475.00831417 -227.90226746 475.0236969 C-242.10432792 475.130015 -251.95560537 474.2066947 -262.67578125 463.9921875 C-268.73038828 457.2720031 -270.99964133 450.88705237 -271.01312733 441.96060753 C-271.01547956 441.29714563 -271.01783179 440.63368374 -271.0202553 439.95011693 C-271.02693554 437.71716565 -271.02648737 435.48427269 -271.02607727 433.25131226 C-271.0293765 431.63806432 -271.03310219 430.0248172 -271.03721875 428.41157115 C-271.04724011 423.9704965 -271.05095576 419.52943536 -271.05360806 415.08835101 C-271.05751069 410.30154009 -271.06708905 405.51473988 -271.07582092 400.72793579 C-271.09558625 389.16401343 -271.10565153 377.60009019 -271.11454871 366.03615516 C-271.11893141 360.59123772 -271.12429826 355.14632125 -271.12953758 349.70140457 C-271.14654975 331.60264221 -271.16104419 313.50388045 -271.16828632 295.40511131 C-271.17019623 290.70806248 -271.17211656 286.01101366 -271.17407227 281.31396484 C-271.17455601 280.14652896 -271.17503975 278.97909308 -271.17553815 277.77628036 C-271.18383945 258.86220362 -271.20917813 239.94819011 -271.24165294 221.03414099 C-271.27471806 201.61809173 -271.29273458 182.2020746 -271.29593056 162.78599703 C-271.29809614 151.88353024 -271.30685184 140.98115565 -271.33239174 130.07871628 C-271.3540912 120.79420609 -271.36215283 111.5098105 -271.35242496 102.22527783 C-271.34787813 97.48884834 -271.34978884 92.75265534 -271.3691864 88.01625824 C-271.38680336 83.67713464 -271.3858323 79.33842031 -271.37028911 74.99929245 C-271.36791081 73.43261768 -271.37224814 71.86591468 -271.38411776 70.29928307 C-271.4763731 57.31472129 -269.50233186 48.3403331 -260.39453125 38.75 C-253.38742973 32.61334587 -245.90633951 30.39273263 -236.77351379 30.42662048 C-235.52010186 30.42533885 -235.52010186 30.42533885 -234.24136847 30.42403132 C-231.43147994 30.42237956 -228.62165064 30.42789296 -225.81176758 30.43334961 C-223.80149843 30.43363157 -221.79122917 30.43347357 -219.78096008 30.4329071 C-214.31436095 30.43261949 -208.84778363 30.4385105 -203.38118958 30.44548106 C-197.67166392 30.45172049 -191.9621378 30.45231887 -186.25260925 30.45350647 C-175.43666791 30.45661804 -164.62073664 30.4648291 -153.80479974 30.47485596 C-141.49299478 30.48602249 -129.18118935 30.49152891 -116.86938059 30.49655139 C-91.53921689 30.50701184 -66.20906213 30.52460793 -40.87890625 30.546875 C-40.89739624 29.10707275 -40.89739624 29.10707275 -40.91625977 27.63818359 C-40.92584717 26.37828613 -40.93543457 25.11838867 -40.9453125 23.8203125 C-40.96380249 21.94738525 -40.96380249 21.94738525 -40.98266602 20.03662109 C-40.76162533 12.60237256 -37.94572067 7.66785571 -32.875 2.3125 C-23.81497374 -5.70145669 -10.26734544 -6.00192935 0 0 Z " fill="#438DFE" transform="translate(270.87890625,3.453125)"/>
<path d="M0 0 C0 135.3 0 270.6 0 410 C-200 410 -200 410 -207 406 C-210.94719229 401.83944596 -212.81103259 398.15422853 -213.3125 392.4375 C-213.72884936 388.90894195 -213.72884936 388.90894195 -216.125 386.5 C-219.92948219 384.51505277 -221.90598714 384.88345104 -226 386 C-227.32 386.99 -228.64 387.98 -230 389 C-230 368.54 -230 348.08 -230 327 C-228.35 328.65 -226.7 330.3 -225 332 C-221.42678844 332.43753611 -218.42886654 332.05503586 -215 331 C-214.05666523 327.80900183 -213.8733261 324.94249428 -213.86971474 321.62071419 C-213.86609039 320.52266398 -213.86246604 319.42461376 -213.85873187 318.2932893 C-213.85980012 317.08727562 -213.86086837 315.88126194 -213.86196899 314.63870239 C-213.85914771 313.35728265 -213.85632643 312.0758629 -213.85341966 310.75561225 C-213.8456654 307.19613522 -213.84404719 303.63667746 -213.84336853 300.07719302 C-213.84152903 296.2393426 -213.83392231 292.40150347 -213.82688904 288.56365967 C-213.81536206 281.91209173 -213.80711848 275.26052634 -213.80076981 268.60895157 C-213.7904464 258.09702125 -213.76988392 247.58512258 -213.74765015 237.07321167 C-213.74017044 233.47738086 -213.73275672 229.88154991 -213.72536278 226.28571892 C-213.72351221 225.38707948 -213.72166165 224.48844005 -213.719755 223.56256912 C-213.69882671 213.33256869 -213.67999857 203.10256476 -213.66210938 192.87255859 C-213.66047119 191.93734142 -213.65883301 191.00212425 -213.65714519 190.03856717 C-213.6308531 174.87887552 -213.61221332 159.71918143 -213.59551747 144.55947663 C-213.57810329 128.99902157 -213.54926599 113.43861437 -213.5106281 97.87819755 C-213.48721752 88.27815408 -213.47323258 78.67818865 -213.47130047 69.0781164 C-213.46919279 62.5005871 -213.45627783 55.92313547 -213.43482114 49.34564103 C-213.42278148 45.54947505 -213.41564786 41.75346328 -213.42153358 37.95727921 C-213.4277982 33.84312268 -213.41102693 29.72938203 -213.39199829 25.61526489 C-213.39752799 24.41371266 -213.40305768 23.21216042 -213.40875494 21.97419751 C-213.35490044 15.25282948 -213.03736486 10.29277963 -208.28125 5.13671875 C-207.6934375 4.65847656 -207.105625 4.18023437 -206.5 3.6875 C-205.9121875 3.19636719 -205.324375 2.70523438 -204.71875 2.19921875 C-148.7517873 -36.8504575 -68.24352079 0 0 0 Z " fill="#E7ECFC" transform="translate(230,51)"/>
<path d="M0 0 C2.0144043 1.06567383 2.0144043 1.06567383 5.0144043 3.06567383 C5.0144043 3.72567383 5.0144043 4.38567383 5.0144043 5.06567383 C4.26416992 5.39438477 3.51393555 5.7230957 2.7409668 6.06176758 C-10.82516839 12.36643242 -19.25823674 20.82131287 -25.0793457 34.66723633 C-27.13693652 40.66854287 -27.88766262 46.76134101 -26.9855957 53.06567383 C-25.60847209 56.33502526 -25.60847209 56.33502526 -22.9855957 58.06567383 C-19.93230106 58.51094596 -17.72342324 58.2296355 -14.7355957 57.56567383 C-11.41201639 54.71689156 -11.21875371 49.83306905 -10.66918945 45.66723633 C-9.43420473 37.42533828 -5.87062669 31.38605576 0.48706055 25.95239258 C8.8139086 19.88622725 15.73958077 18.08530033 26.0144043 19.06567383 C35.7313496 21.03550356 43.12541309 26.45116175 48.7487793 34.56958008 C53.27822487 43.10682159 53.46432436 52.70042657 50.97143555 61.92504883 C49.0144043 65.06567383 49.0144043 65.06567383 45.49487305 66.15942383 C44.0663064 66.31837726 42.63481958 66.45243672 41.2019043 66.56567383 C26.17679776 68.49484307 13.72477402 76.19736443 3.8269043 87.62817383 C-3.42361146 97.20238429 -8.03820961 108.0597082 -8.9855957 120.06567383 C-9.06680664 120.91258789 -9.14801758 121.75950195 -9.23168945 122.63208008 C-9.44420791 126.54113161 -9.22658364 128.61150425 -7.3605957 132.12817383 C-5.09671015 134.30211504 -5.09671015 134.30211504 -1.9855957 134.56567383 C1.48868581 133.98662691 2.59430024 133.61289446 5.0144043 131.06567383 C5.98739461 128.10328658 6.44705181 125.07492333 6.9519043 122.00317383 C9.52991495 108.43462984 14.55833836 98.72044761 25.6550293 89.98754883 C36.64080076 82.51722423 48.31556324 80.44920032 61.3894043 82.62817383 C75.37537522 86.25227578 85.11638758 94.03673494 92.50268555 106.25317383 C98.02504422 116.52732951 97.90719967 127.20300583 96.2644043 138.56567383 C95.88195896 142.01893026 95.94415451 142.9193201 97.5144043 146.19067383 C98.86367702 147.74233746 100.22251751 149.28685695 101.6315918 150.78442383 C111.22697646 161.19008542 115.5499032 172.90941514 115.2644043 186.95239258 C114.12719076 201.11425491 108.23870385 212.3631886 98.0144043 222.06567383 C88.13032471 230.41684285 77.9916338 233.32815743 65.29956055 234.37817383 C61.55930178 235.16091526 60.2496319 236.00606773 58.0144043 239.06567383 C57.68345471 242.83849909 57.81685612 245.47302931 59.0144043 249.06567383 C70.64200544 252.94154087 84.66853911 248.10953517 95.37768555 243.40551758 C98.89719354 241.61708611 101.87713688 239.45272512 105.0144043 237.06567383 C105.6744043 237.06567383 106.3344043 237.06567383 107.0144043 237.06567383 C113.63572595 246.0080566 116.26400604 255.00536907 115.0144043 266.06567383 C112.51680892 276.3470373 107.38034572 284.61895363 98.64331055 290.72192383 C93.9146421 293.46502997 89.09748195 295.45744762 83.7175293 296.51879883 C82.50323242 296.75856445 82.50323242 296.75856445 81.2644043 297.00317383 C80.50643555 297.13594727 79.7484668 297.2687207 78.9675293 297.40551758 C76.63572051 297.97218952 76.63572051 297.97218952 75.0144043 301.06567383 C74.42327027 305.79474608 75.20794781 308.79624423 77.0144043 313.19067383 C81.1826699 323.95130275 79.57250601 335.63067381 75.0144043 346.00317383 C68.81236674 357.64559521 59.44215653 363.15955237 47.3894043 367.31567383 C44.61636249 367.93190534 42.14073282 368.23020861 39.3269043 368.44067383 C36.39585226 368.7437148 35.19257527 368.94528804 32.7019043 370.62817383 C30.84359727 373.16565366 30.84359727 373.16565366 29.3269043 376.69067383 C23.06232471 389.85857444 11.14059469 397.18467562 -1.9855957 402.06567383 C-12.5921504 405.60119206 -27.05610386 403.664168 -36.9855957 399.06567383 C-40.60493058 397.02333486 -43.79570517 394.72391594 -46.9855957 392.06567383 C-47.69458008 391.49204102 -48.40356445 390.9184082 -49.1340332 390.32739258 C-58.22940906 382.19034177 -63.62366108 369.70096837 -64.35668945 357.58520508 C-64.75400325 342.37193179 -61.31136924 330.6776402 -50.9855957 319.06567383 C-40.82748179 309.19441695 -30.0595982 305.10639929 -16.17700195 304.63989258 C-12.385665 303.95773036 -10.69140914 302.76656761 -7.9855957 300.06567383 C-6.97172725 296.82129478 -6.66739842 294.97131225 -7.7980957 291.75317383 C-8.89246895 289.91469561 -8.89246895 289.91469561 -10.9855957 289.06567383 C-27.14731827 288.07345473 -42.10256331 291.08566436 -55.02856445 301.52270508 C-56.74721181 303.09751182 -58.43983738 304.70158569 -60.0949707 306.34301758 C-61.9855957 308.06567383 -61.9855957 308.06567383 -63.9855957 308.06567383 C-64.07903069 286.00409227 -64.14957085 263.94254333 -64.19284439 241.88080406 C-64.21347097 231.63718426 -64.24159346 221.39368739 -64.28735352 211.15014648 C-64.32721828 202.22203255 -64.35302782 193.29400764 -64.36194968 184.36580718 C-64.36716503 179.63821303 -64.37942504 174.91087358 -64.40851593 170.18336105 C-64.43567931 165.73300099 -64.44403884 161.28300039 -64.43802643 156.83256531 C-64.43912625 155.19993257 -64.44707477 153.56728773 -64.4624176 151.93472672 C-64.48236084 149.70306407 -64.47752029 147.47275318 -64.46661377 145.24105835 C-64.47030094 143.99295065 -64.47398811 142.74484295 -64.47778702 141.4589138 C-63.67432527 135.91972927 -60.36343459 131.65517918 -56.03637695 128.15551758 C-52.24160311 126.13886633 -48.01327535 125.5773892 -43.8137207 124.83911133 C-40.67701728 124.31374575 -40.67701728 124.31374575 -38.9855957 121.06567383 C-38.60094676 115.73098954 -38.60094676 115.73098954 -40.9855957 111.06567383 C-48.14328248 108.67977824 -54.38143348 109.83098213 -60.9855957 113.06567383 C-61.9755957 113.06567383 -62.9655957 113.06567383 -63.9855957 113.06567383 C-64.1026966 98.89626532 -64.19038112 84.72693248 -64.24465656 70.55713844 C-64.27071076 63.97696738 -64.30603371 57.39712221 -64.36279297 50.81713867 C-64.41725989 44.46288235 -64.44704765 38.10893882 -64.45998192 31.75446701 C-64.46919531 29.33443658 -64.48718693 26.91442259 -64.51424599 24.49452591 C-64.5507298 21.09550707 -64.55553275 17.69776822 -64.55322266 14.29858398 C-64.57119904 13.30595551 -64.58917542 12.31332703 -64.60769653 11.2906189 C-64.55093763 3.53398502 -62.54806141 -3.17246267 -57.112813 -8.91193199 C-41.34584726 -23.17327523 -15.55334904 -7.68543566 0 0 Z " fill="#E7ECFC" transform="translate(345.985595703125,65.934326171875)"/>
<path d="M0 0 C2.8125 2.4375 2.8125 2.4375 5 5 C5.33 5.33 5.66 5.66 6 6 C6.1024618 8.46517674 6.13915367 10.90251134 6.13422108 13.36836529 C6.13657331 14.15281532 6.13892554 14.93726535 6.14134905 15.74548659 C6.14807428 18.40803059 6.14757977 21.07052619 6.14717102 23.733078 C6.15046747 25.64769784 6.15419256 27.56231697 6.1583125 29.47693521 C6.16836574 34.76482504 6.17205462 40.05270352 6.17470181 45.34060156 C6.17859509 51.03332673 6.18817411 56.72604281 6.19691467 62.41876221 C6.2167075 76.18045082 6.22674917 89.94214021 6.23564246 103.70383951 C6.24002103 110.17785326 6.24538898 116.65186619 6.25063133 123.12587929 C6.26764695 144.63614227 6.28216701 166.14640395 6.28938007 187.65667248 C6.28985483 189.04848535 6.29033072 190.44029821 6.29080774 191.83211108 C6.2911623 192.8674569 6.2911623 192.8674569 6.29152403 193.9237188 C6.29272525 197.42090694 6.29394069 200.91809507 6.29516602 204.4152832 C6.29540617 205.10931761 6.29564632 205.80335203 6.29589374 206.51841778 C6.30378753 229.02316268 6.3272196 251.52785488 6.35972196 274.03257676 C6.39400512 297.81365996 6.4137287 321.59470588 6.41702431 345.37581521 C6.4191928 358.34393721 6.42799083 371.31198178 6.45348549 384.2800808 C6.47514373 395.32256561 6.48326702 406.36495421 6.47351871 417.40745785 C6.46895975 423.04460007 6.47095263 428.68154359 6.49028015 434.31865883 C6.50781105 439.47617551 6.50699642 444.63334706 6.49138286 449.79086689 C6.48899139 451.65971078 6.49340936 453.52857794 6.50521151 455.3973861 C6.52023565 457.93282355 6.5107244 460.4670231 6.49498463 463.00242901 C6.50520683 463.73240171 6.51542904 464.46237441 6.52596101 465.2144675 C6.45750888 470.24740035 5.16699643 473.12432513 2 477 C-0.88861709 478.44430855 -2.79647701 478.37688506 -6 478 C-8.57285724 475.827365 -10.48996919 474.02006162 -12 471 C-12.10015517 468.49284845 -12.13925294 466.01333017 -12.13422108 463.50579357 C-12.13657331 462.7198901 -12.13892554 461.93398663 -12.14134905 461.12426791 C-12.14806224 458.46281113 -12.14758013 455.80140291 -12.14717102 453.13993835 C-12.1504682 451.22374278 -12.15419345 449.30754789 -12.1583125 447.39135391 C-12.16835714 442.10379281 -12.17205324 436.81624306 -12.17470181 431.52867377 C-12.17859753 425.83462198 -12.1881763 420.14057924 -12.19691467 414.4465332 C-12.21669899 400.68526759 -12.22674742 386.92400122 -12.23564246 373.16272494 C-12.24002181 366.68858445 -12.2453895 360.21444479 -12.25063133 353.74030495 C-12.26764496 332.22999936 -12.28216552 310.71969509 -12.28938007 289.20938396 C-12.28985483 287.81785752 -12.29033072 286.42633108 -12.29080774 285.03480463 C-12.29104411 284.34471937 -12.29128049 283.65463412 -12.29152403 282.94363718 C-12.29272525 279.44720669 -12.29394069 275.95077619 -12.29516602 272.4543457 C-12.29540617 271.76046342 -12.29564632 271.06658113 -12.29589374 270.35167211 C-12.30378936 247.8466205 -12.32722626 225.34162155 -12.35972196 202.83659294 C-12.39399953 179.05420023 -12.4137281 155.27184479 -12.41702431 131.48942596 C-12.41919316 118.52079181 -12.42799644 105.55223506 -12.45348549 92.58362389 C-12.4751361 81.54223266 -12.48327076 70.50093762 -12.47351871 59.45952757 C-12.46895771 53.82250232 -12.47096433 48.18567576 -12.49028015 42.54867744 C-12.50779644 37.39248652 -12.50700856 32.23664094 -12.49138286 27.08044694 C-12.48898915 25.21097779 -12.49342067 23.34148544 -12.50521151 21.47205194 C-12.52020841 18.93818616 -12.51074357 16.40556347 -12.49498463 13.87172985 C-12.50520683 13.13941598 -12.51542904 12.40710212 -12.52596101 11.65259692 C-12.46020023 6.83535233 -11.42018397 4.38172591 -8 1 C-5.11138291 -0.44430855 -3.20352299 -0.37688506 0 0 Z " fill="#BFD4FB" transform="translate(259,17)"/>
<path d="M0 0 C-0.27714844 0.51949219 -0.55429687 1.03898437 -0.83984375 1.57421875 C-1.20207031 2.27160156 -1.56429687 2.96898437 -1.9375 3.6875 C-2.29714844 4.37199219 -2.65679687 5.05648437 -3.02734375 5.76171875 C-5.06410572 10.44872522 -5.16041204 14.99705193 -5.1875 20.0625 C-5.20167969 21.27035156 -5.21585938 22.47820312 -5.23046875 23.72265625 C-4.94365066 27.80130671 -4.20956851 29.92974281 -1.12402344 32.65991211 C-0.37668945 33.19366455 0.37064453 33.72741699 1.140625 34.27734375 C1.96433594 34.87353516 2.78804687 35.46972656 3.63671875 36.08398438 C4.49910156 36.69564453 5.36148438 37.30730469 6.25 37.9375 C7.94397192 39.15318913 9.6367077 40.37060282 11.328125 41.58984375 C12.12927734 42.16718262 12.93042969 42.74452148 13.75585938 43.33935547 C16.60854477 45.45031783 19.31140963 47.68482496 22 50 C17.23674398 55.06568498 11.80254187 59.04163118 6.23828125 63.18359375 C5.50996094 63.73144531 4.78164063 64.27929688 4.03125 64.84375 C3.37705078 65.33037109 2.72285156 65.81699219 2.04882812 66.31835938 C1.37271484 66.87330078 0.69660156 67.42824219 0 68 C-0.85430068 68.59575994 -1.70860136 69.19151987 -2.58878994 69.80533314 C-6.73864774 74.04870371 -5.6811825 80.26495836 -5.62818909 85.79631042 C-5.63528347 87.1125143 -5.64237786 88.42871818 -5.64968723 89.78480703 C-5.66863497 93.4371409 -5.65636204 97.0888062 -5.6389643 100.74112332 C-5.62560584 104.6806316 -5.6410222 108.62004105 -5.65278625 112.55953979 C-5.67118122 120.2779807 -5.66263712 127.99616871 -5.64469803 135.71460178 C-5.63067665 141.98968243 -5.62677824 148.26469439 -5.6301403 154.5397892 C-5.63085647 155.8791047 -5.63085647 155.8791047 -5.6315871 157.24547708 C-5.63261343 159.05936312 -5.63366879 160.87324914 -5.63475286 162.68713514 C-5.64332432 178.73426373 -5.62663326 194.78127026 -5.59692383 210.82836914 C-5.56810951 226.39222344 -5.56099087 241.95590174 -5.57641602 257.51977539 C-5.59319034 274.46815147 -5.59719795 291.41644393 -5.57970566 308.36482221 C-5.5778613 310.17359212 -5.57602657 311.98236204 -5.57420158 313.79113197 C-5.57283345 315.12602031 -5.57283345 315.12602031 -5.57143768 316.48787608 C-5.56583808 322.75101264 -5.56913431 329.01410832 -5.57574654 335.27724266 C-5.5834915 342.91669598 -5.5766861 350.55597625 -5.5515715 358.19539478 C-5.53910054 362.09134233 -5.53290034 365.98702083 -5.54411316 369.88297844 C-5.5541969 373.45420159 -5.545609 377.02488967 -5.52253198 380.59604803 C-5.514977 382.49021931 -5.52688558 384.38443789 -5.53963572 386.27858132 C-5.45950065 394.56188439 -3.67433877 400.65132245 0 408 C-12.71038525 409.03212151 -12.71038525 409.03212151 -17.125 405.4375 C-21.03685125 401.31262715 -22.80091051 396.95771334 -23.375 391.3125 C-23.73752561 387.89070741 -23.73752561 387.89070741 -26.125 385.5 C-29.92948219 383.51505277 -31.90598714 383.88345104 -36 385 C-37.32 385.99 -38.64 386.98 -40 388 C-40 367.54 -40 347.08 -40 326 C-38.35 327.65 -36.7 329.3 -35 331 C-31.42678844 331.43753611 -28.42886654 331.05503586 -25 330 C-24.05666523 326.80900183 -23.8733261 323.94249428 -23.86971474 320.62071419 C-23.86609039 319.52266398 -23.86246604 318.42461376 -23.85873187 317.2932893 C-23.85980012 316.08727562 -23.86086837 314.88126194 -23.86196899 313.63870239 C-23.85914771 312.35728265 -23.85632643 311.0758629 -23.85341966 309.75561225 C-23.8456654 306.19613522 -23.84404719 302.63667746 -23.84336853 299.07719302 C-23.84152903 295.2393426 -23.83392231 291.40150347 -23.82688904 287.56365967 C-23.81536206 280.91209173 -23.80711848 274.26052634 -23.80076981 267.60895157 C-23.7904464 257.09702125 -23.76988392 246.58512258 -23.74765015 236.07321167 C-23.74017044 232.47738086 -23.73275672 228.88154991 -23.72536278 225.28571892 C-23.72351221 224.38707948 -23.72166165 223.48844005 -23.719755 222.56256912 C-23.69882671 212.33256869 -23.67999857 202.10256476 -23.66210938 191.87255859 C-23.66047119 190.93734142 -23.65883301 190.00212425 -23.65714519 189.03856717 C-23.6308531 173.87887552 -23.61221332 158.71918143 -23.59551747 143.55947663 C-23.57810329 127.99902157 -23.54926599 112.43861437 -23.5106281 96.87819755 C-23.48721752 87.27815408 -23.47323258 77.67818865 -23.47130047 68.0781164 C-23.46919279 61.5005871 -23.45627783 54.92313547 -23.43482114 48.34564103 C-23.42278148 44.54947505 -23.41564786 40.75346328 -23.42153358 36.95727921 C-23.4277982 32.84312268 -23.41102693 28.72938203 -23.39199829 24.61526489 C-23.39752799 23.41371266 -23.40305768 22.21216042 -23.40875494 20.97419751 C-23.35418396 14.16340912 -22.68955523 9.73463955 -18.6328125 4.1015625 C-13.15070378 -1.26692738 -7.3022242 -0.59296257 0 0 Z " fill="#FEFEFE" transform="translate(40,52)"/>
<path d="M0 0 C66 0 132 0 200 0 C200 135.3 200 270.6 200 410 C134 410 68 410 0 410 C0 409.67 0 409.34 0 409 C60.39 409 120.78 409 183 409 C182.67 382.27 182.34 355.54 182 328 C181.9246507 312.87696961 181.85521073 297.75699827 181.86577559 282.63428259 C181.86777006 278.61512229 181.86603274 274.59596594 181.86443865 270.57680571 C181.86022122 259.87068576 181.86282257 249.16457971 181.86943495 238.4584614 C181.87417809 230.70639748 181.87650016 222.95433574 181.87768555 215.20227051 C181.88570682 171.26203649 181.92232447 127.32213702 182.2265625 83.3828125 C182.23140892 82.67704748 182.23625533 81.97128245 182.24124861 81.24413061 C182.42637711 54.49542919 182.72566202 27.74795352 183 1 C122.61 1 62.22 1 0 1 C0 0.67 0 0.34 0 0 Z " fill="#CAD9FC" transform="translate(30,51)"/>
<path d="M0 0 C2.76436174 2.0866787 3.85857956 3.27937968 4.53125 6.70703125 C4.34618852 25.09751587 -2.0618304 42.24998253 -15.109375 55.30859375 C-23.98536387 63.57285906 -34.5414135 71.16942757 -47 72 C-42.27885555 80.75054612 -37.43422038 87.19002639 -28 91 C-25.17207184 91.7690337 -22.34292961 92.49292922 -19.48828125 93.15625 C-16.82321836 94.0599448 -15.64644264 94.73681174 -14 97 C-13.36974716 101.88445953 -13.25362779 103.88044169 -16 108 C-19.83921259 110.55947506 -22.59079912 110.80235458 -27 110 C-39.03886728 106.7740161 -51.34215601 100.1300551 -58.06933594 89.27441406 C-64 78.7451363 -64 78.7451363 -64 74 C-64.53625 74.05800781 -65.0725 74.11601562 -65.625 74.17578125 C-81.92692373 75.11421436 -95.66634027 66.62367491 -107.96875 56.9296875 C-109.99858851 55.00134092 -111.04471261 53.61391823 -112 51 C-111.8557024 47.5368575 -111.34562497 45.52534996 -109.4375 42.625 C-106.69416076 40.79610718 -104.5755161 40.19442055 -101.265625 40.34765625 C-97.32060673 41.48354944 -94.63793828 44.24163827 -91.5859375 46.89453125 C-83.57497743 53.4170501 -74.38566283 56.37543081 -64.1875 56.25 C-63.3836084 56.24178223 -62.5797168 56.23356445 -61.75146484 56.22509766 C-47.76687498 55.96091589 -36.41555472 51.21594828 -26.1875 41.4140625 C-18.5314566 32.96507175 -14.04906187 22.48237848 -13.5625 11.125 C-13.33461031 6.95858205 -13.18770728 5.30146927 -10.9375 1.6875 C-6.80884786 -0.68427889 -4.72805985 -0.67543712 0 0 Z " fill="#448EFE" transform="translate(420,180)"/>
<path d="M0 0 C1.53026264 0.40328221 3.05071669 0.84468432 4.5625 1.3125 C5.56023437 1.61929687 6.55796875 1.92609375 7.5859375 2.2421875 C24.51287347 8.07212982 36.17566816 19.75646145 44.00097656 35.51586914 C47.18694785 42.22725944 48.83041539 48.24694218 48.6875 55.75 C48.66945313 56.98621094 48.65140625 58.22242188 48.6328125 59.49609375 C48.60960937 60.42550781 48.58640625 61.35492188 48.5625 62.3125 C49.2225 61.9825 49.8825 61.6525 50.5625 61.3125 C55.2355496 60.88241402 59.30601106 60.74836211 63.625 62.6875 C66.58995264 65.17423447 66.55185587 66.20251061 66.9375 70.1875 C67.0859375 72.2421875 67.0859375 72.2421875 66.5625 74.3125 C62.94717721 78.07484146 60.10670015 78.82589407 55 79.25 C42.31232736 80.7895084 31.41771099 86.00298686 23.3125 96.0625 C17.60289856 104.365937 14.92469258 112.5410338 13.8137207 122.47436523 C13.31820706 126.1853641 12.79910274 128.06303418 10.19140625 130.8125 C7.5625 132.3125 7.5625 132.3125 4 132.375 C-0.13653339 131.09643514 -1.106555 129.89395197 -3.4375 126.3125 C-5.81976341 114.66405341 -1.19765095 101.35635052 4.8125 91.4375 C11.6094429 81.68790663 19.1123878 74.14891212 29.5625 68.3125 C30.2225 68.3125 30.8825 68.3125 31.5625 68.3125 C31.37695722 53.13172682 29.53045087 40.75830765 18.5625 29.3125 C10.58328432 22.15043292 1.22636021 17.52686045 -9.5 16.9375 C-14.31920729 16.6086459 -17.11608593 16.09204015 -20.4375 12.3125 C-21.88180855 9.42388291 -21.81438506 7.51602299 -21.4375 4.3125 C-16.81145314 -3.28743413 -7.69304989 -1.45044564 0 0 Z " fill="#448EFE" transform="translate(339.4375,309.6875)"/>
<path d="M0 0 C5.55666295 -0.49411823 9.13302913 1.07466215 13.9375 3.5625 C14.64898193 3.92819092 15.36046387 4.29388184 16.09350586 4.6706543 C26.66977535 10.29596632 33.94709116 19.42203721 37.9375 30.8125 C40.02241062 38.85795264 39.42817992 47.35092225 38.25 55.5 C37.86755466 58.95325644 37.92975021 59.85364627 39.5 63.125 C40.84927272 64.67666363 42.20811321 66.22118313 43.6171875 67.71875 C53.21257216 78.12441159 57.53549891 89.84374131 57.25 103.88671875 C56.11581576 118.01085689 50.24613577 129.35088316 40 139 C35.91942802 142.24792271 31.97628012 145.34123996 27 147 C27 146.34 27 145.68 27 145 C25.68 144.34 24.36 143.68 23 143 C23.515625 142.236875 24.03125 141.47375 24.5625 140.6875 C24.92472656 140.13707031 25.28695313 139.58664062 25.66015625 139.01953125 C26.65085417 137.52626354 27.6618337 136.04640666 28.68359375 134.57421875 C37.77343766 121.06651523 41.02475915 106.16075223 38.3515625 90.10546875 C35.76063265 79.35421709 31.61508595 70.30603349 23.5 62.6875 C20.58376912 59.65910639 20.02792125 58.386244 19.71875 54.109375 C19.88414456 50.36028502 20.37630918 46.69829166 21 43 C20.67 43 20.34 43 20 43 C20.03480469 42.32195312 20.06960938 41.64390625 20.10546875 40.9453125 C20.47720144 28.16478874 16.33979213 17.23239825 7.8359375 7.53125 C5.93719082 5.62559878 4.00250171 3.79534636 2 2 C1.34 1.34 0.68 0.68 0 0 Z " fill="#C8D8FC" transform="translate(404,149)"/>
<path d="M0 0 C0.89439285 -0.00860046 1.78878571 -0.01720093 2.71028137 -0.02606201 C3.69419357 -0.03032196 4.67810577 -0.03458191 5.6918335 -0.03897095 C7.24326302 -0.05123718 7.24326302 -0.05123718 8.82603455 -0.06375122 C12.26013606 -0.08863083 15.69419617 -0.10512797 19.12835693 -0.11953735 C20.29951805 -0.12486103 21.47067917 -0.13018471 22.67733002 -0.13566971 C28.87633104 -0.16241261 35.07531184 -0.18178378 41.27435303 -0.19619751 C47.68159329 -0.21284681 54.08831935 -0.25762442 60.49536514 -0.30856895 C65.41787312 -0.34220489 70.34025853 -0.35377102 75.26287079 -0.35942459 C77.62479328 -0.36614726 79.98670743 -0.38139548 82.34851837 -0.4053154 C85.65479062 -0.43688954 88.95966917 -0.4370147 92.26605225 -0.42959595 C93.24186752 -0.44600128 94.2176828 -0.46240662 95.22306824 -0.47930908 C99.63825073 -0.4387562 102.78852485 -0.29758684 106.35314941 2.47161865 C108.73773193 5.15390015 108.73773193 5.15390015 109.36273193 8.65390015 C108.65336515 12.62635416 107.56541486 14.32621722 104.73773193 17.15390015 C102.41357264 18.3159798 101.05717171 18.28690261 98.46873474 18.30107117 C97.57289673 18.30822647 96.67705872 18.31538177 95.7540741 18.32275391 C94.76859085 18.32544281 93.7831076 18.32813171 92.76776123 18.3309021 C91.73186859 18.3374733 90.69597595 18.34404449 89.62869263 18.35081482 C86.18977797 18.37057696 82.75090703 18.38221645 79.31195068 18.3921814 C78.13954142 18.39625692 76.96713215 18.40033245 75.75919533 18.40453148 C69.5548584 18.42540388 63.35054367 18.43970099 57.1461792 18.44906616 C50.72995238 18.46013773 44.31407168 18.4945433 37.89796734 18.53423786 C32.97121016 18.56035165 28.04453614 18.56875332 23.11771584 18.57234764 C20.7521919 18.57722653 18.386672 18.58887728 16.02121544 18.60738564 C12.71249131 18.63166674 9.4046717 18.63083196 6.09588623 18.62387085 C5.11647568 18.63668091 4.13706512 18.64949097 3.12797546 18.66268921 C-1.19984091 18.62945726 -3.59714101 18.56449901 -7.34715271 16.24952698 C-9.63911877 13.74152893 -10.19888136 12.7243805 -10.57476807 9.34140015 C-10.19062449 5.42313565 -8.9697049 3.94096748 -6.26226807 1.15390015 C-3.94150693 -0.00648042 -2.58452904 0.01847759 0 0 Z " fill="#4A91FE" transform="translate(104.26226806640625,374.8460998535156)"/>
<path d="M0 0 C1.04608429 -0.00554901 2.09216858 -0.01109802 3.16995239 -0.01681519 C6.62548727 -0.0286194 10.0797132 -0.00432683 13.53515625 0.02148438 C15.93741801 0.02319531 18.33968164 0.02312997 20.74194336 0.0213623 C25.77573516 0.023016 30.80908187 0.04172412 35.84277344 0.07324219 C42.29591237 0.11291938 48.74846818 0.11728761 55.20170593 0.10977936 C60.16196029 0.10671015 65.12208349 0.11882855 70.08230591 0.13591003 C72.46175311 0.14294249 74.84121517 0.14606427 77.22067261 0.1452179 C80.54582596 0.14701512 83.87028002 0.16839162 87.1953125 0.1953125 C88.17936066 0.1923819 89.16340881 0.18945129 90.17727661 0.18643188 C95.09415412 0.24786628 98.65409935 0.31836442 102.59765625 3.61523438 C104.12612286 6.6721676 103.8300807 9.24507985 103.59765625 12.61523438 C101.83750494 15.80027007 101.09874709 16.4482041 97.59765625 17.61523438 C96.12203677 17.71210161 94.64248532 17.75439048 93.16371155 17.7624054 C92.25663956 17.7695607 91.34956757 17.776716 90.41500854 17.78408813 C88.92579391 17.78812149 88.92579391 17.78812149 87.40649414 17.79223633 C86.35909561 17.79880753 85.31169708 17.80537872 84.2325592 17.81214905 C80.76180961 17.83188292 77.29110322 17.84354288 73.8203125 17.85351562 C72.04465314 17.85962892 72.04465314 17.85962892 70.23312187 17.86586571 C63.97157846 17.88672356 57.71005697 17.90102838 51.44848633 17.91040039 C44.97053647 17.92148389 38.49292831 17.95590728 32.01509953 17.99557209 C27.04206181 18.02166593 22.06910656 18.03008564 17.09600639 18.03368187 C14.70732749 18.03856399 12.31865265 18.0502238 9.93004036 18.06871986 C6.5924852 18.09296422 3.2558284 18.09217329 -0.08178711 18.08520508 C-1.07257263 18.09801514 -2.06335815 18.1108252 -3.08416748 18.12402344 C-9.78168435 18.0729115 -9.78168435 18.0729115 -12.98487854 15.71086121 C-15.3988455 12.14197366 -15.9133374 9.95868039 -15.40234375 5.61523438 C-11.1539882 -0.41900295 -6.78859589 -0.09149838 0 0 Z " fill="#428DFE" transform="translate(109.40234375,238.384765625)"/>
<path d="M0 0 C1.55712456 -0.00591408 1.55712456 -0.00591408 3.14570618 -0.01194763 C6.56817272 -0.01864655 9.98929786 0.01047978 13.41162109 0.04077148 C15.79242698 0.04502251 18.173237 0.04735026 20.55404663 0.0478363 C25.5389896 0.05399841 30.52348267 0.07668574 35.50830078 0.11230469 C41.90202197 0.15762567 48.29533628 0.17233345 54.68920326 0.1760416 C59.60307842 0.18046716 64.51686799 0.19576493 69.43070602 0.21491814 C71.78865225 0.22380405 74.14660761 0.23053225 76.50456619 0.23507881 C79.79616959 0.24410852 83.08740288 0.26648754 86.37890625 0.29296875 C87.84398872 0.29396576 87.84398872 0.29396576 89.33866882 0.29498291 C90.235811 0.30495804 91.13295319 0.31493317 92.05728149 0.32521057 C93.22364356 0.33218633 93.22364356 0.33218633 94.4135685 0.33930302 C96.89196268 0.63957773 98.45508216 1.26305425 100.56005859 2.59936523 C103.06037514 6.34984005 103.09609413 8.15792789 102.56005859 12.59936523 C100.5370753 15.50297502 98.9273262 17.31090288 95.37345886 18.06068802 C92.59301124 18.25229421 89.85292305 18.27473304 87.06591797 18.24633789 C86.01008011 18.25509949 84.95424225 18.26386108 83.8664093 18.27288818 C80.37845695 18.29488361 76.8917737 18.28032772 73.40380859 18.26342773 C70.9791235 18.26679579 68.55444005 18.27164832 66.12976074 18.27792358 C61.0489087 18.28529516 55.96849625 18.27457946 50.88769531 18.2512207 C44.37382771 18.22273366 37.86099014 18.23913598 31.34716034 18.26908302 C26.34055821 18.28714774 21.33420042 18.28140156 16.32759094 18.26844406 C13.92580544 18.26510781 11.52399778 18.26920475 9.12223816 18.28084183 C5.76562715 18.29353606 2.41068581 18.27419082 -0.94580078 18.24633789 C-1.93919968 18.25645905 -2.93259857 18.2665802 -3.95610046 18.27700806 C-8.58222991 18.20586381 -10.75424126 18.11077665 -14.55285645 15.27767944 C-16.43994141 12.59936523 -16.43994141 12.59936523 -17.12744141 9.09936523 C-16.38475099 5.31839586 -15.40257668 3.97035956 -12.3925972 1.62956047 C-8.494442 -0.42705439 -4.31102401 -0.06574765 0 0 Z " fill="#448EFE" transform="translate(110.43994140625,306.400634765625)"/>
<path d="M0 0 C1.58375679 -0.0131424 1.58375679 -0.0131424 3.19950867 -0.02655029 C6.68746102 -0.04854572 10.17414427 -0.03398983 13.66210938 -0.01708984 C16.08679447 -0.0204579 18.51147792 -0.02531043 20.93615723 -0.03158569 C26.01700927 -0.03895727 31.09742172 -0.02824157 36.17822266 -0.00488281 C42.69209025 0.02360423 49.20492783 0.00720192 55.71875763 -0.02274513 C60.72535976 -0.04080985 65.73171755 -0.03506367 70.73832703 -0.02210617 C73.14011253 -0.01876992 75.54192019 -0.02286686 77.94367981 -0.03450394 C81.30029082 -0.04719817 84.65523216 -0.02785293 88.01171875 0 C89.00511765 -0.01012115 89.99851654 -0.02024231 91.02201843 -0.03067017 C95.64814788 0.04047408 97.82015923 0.13556124 101.61877441 2.96865845 C103.50585938 5.64697266 103.50585938 5.64697266 104.19335938 9.14697266 C103.45049476 12.92882886 102.46780692 14.27372791 99.4575367 16.61482048 C95.56575429 18.67300481 91.38924746 18.32993857 87.08178711 18.27807617 C86.04531036 18.28523148 85.00883362 18.29238678 83.94094849 18.29975891 C80.5233317 18.31663377 77.10702871 18.29725044 73.68945312 18.27587891 C71.31103914 18.27670764 68.93262521 18.27916721 66.55421448 18.28318787 C61.57348356 18.28604498 56.59320256 18.27135118 51.61254883 18.24389648 C45.22772627 18.20979605 38.84370724 18.21583931 32.45884609 18.23455906 C27.5491923 18.24512566 22.63972558 18.23619448 17.73008919 18.22117424 C15.37575905 18.21599077 13.0214094 18.21647621 10.66708183 18.22271919 C7.37780584 18.22816776 4.08968186 18.20780679 0.80053711 18.18041992 C-0.65915245 18.19020874 -0.65915245 18.19020874 -2.14833069 18.20019531 C-6.45578914 18.13919471 -8.84613763 18.04834997 -12.57505798 15.7386322 C-14.85985658 13.24836905 -15.42188316 12.18890363 -15.86914062 8.83447266 C-15.49414062 5.64697266 -15.49414062 5.64697266 -13.62658691 2.9881897 C-9.13594789 -0.36815217 -5.47195128 -0.05575048 0 0 Z " fill="#448EFE" transform="translate(109.494140625,170.35302734375)"/>
<path d="M0 0 C4.39867338 1.49811414 7.88084887 4.65398279 11.48046875 7.50830078 C13.24712696 8.87453395 15.01405806 10.24041431 16.78125 11.60595703 C17.65990723 12.29189941 18.53856445 12.9778418 19.44384766 13.68457031 C21.885438 15.57390163 24.35069101 17.42302371 26.8359375 19.25439453 C27.93627319 20.06589966 27.93627319 20.06589966 29.05883789 20.89379883 C30.43526686 21.90664278 31.81329002 22.91732486 33.19311523 23.92553711 C36.03775203 26.03817248 38.05823823 27.718705 40.04296875 30.69580078 C40.48046875 34.07080078 40.48046875 34.07080078 40.04296875 37.69580078 C34.20653791 44.43101922 26.45510065 49.50419097 19.40429688 54.88134766 C17.18779309 56.58451724 14.99635076 58.31533869 12.80859375 60.05517578 C11.51244345 61.0613184 10.2156063 62.06657703 8.91796875 63.07080078 C8.33998535 63.5408252 7.76200195 64.01084961 7.16650391 64.49511719 C2.56364637 67.99137825 -0.39940739 68.31973361 -5.95703125 67.69580078 C-9.3985399 65.25806549 -10.71915025 63.83762959 -11.58203125 59.69580078 C-9.477548 49.59428119 8.05223114 40.36814257 16.04296875 34.69580078 C10.76735615 28.95566884 4.38406797 24.67717464 -1.91601562 20.13525391 C-2.78935547 19.49394531 -3.66269531 18.85263672 -4.5625 18.19189453 C-5.35809326 17.61624756 -6.15368652 17.04060059 -6.97338867 16.44750977 C-9.06138288 14.60365026 -10.01699089 13.30214619 -10.95703125 10.69580078 C-10.88229563 6.51060631 -10.56581639 4.41201859 -7.83203125 1.19580078 C-4.83559755 -0.36755593 -3.29318627 -0.57096823 0 0 Z " fill="#458EFE" transform="translate(44.95703125,68.30419921875)"/>
<path d="M0 0 C0.72421646 -0.0071553 1.44843292 -0.01431061 2.19459534 -0.02168274 C4.57894755 -0.0385363 6.96141045 -0.01918944 9.34570312 0.00219727 C11.00809891 0.00136825 12.67049461 -0.00109239 14.33288574 -0.00511169 C17.81315856 -0.00796738 21.292787 0.00670834 24.77294922 0.03417969 C29.22866507 0.06826268 33.68322894 0.06224243 38.13899994 0.04351711 C41.57063355 0.03293638 45.00200021 0.04189457 48.43360901 0.05690193 C50.07620958 0.06207636 51.71883812 0.0616109 53.36143494 0.05535698 C55.65953273 0.04989151 57.95599498 0.07031937 60.25390625 0.09765625 C62.21318054 0.10695412 62.21318054 0.10695412 64.21203613 0.11643982 C68.20254028 0.71785052 69.87771754 1.70942621 72.62695312 4.63110352 C73.57022489 10.03347819 73.57022489 10.03347819 72.62695312 12.63110352 C68.21426944 17.04461873 65.74314182 18.25733984 59.32397461 18.26220703 C58.61911926 18.26936234 57.91426392 18.27651764 57.18804932 18.28388977 C54.87404203 18.30070483 52.5619919 18.28142166 50.24804688 18.26000977 C48.63192078 18.26083905 47.01579477 18.26330068 45.39967346 18.26731873 C42.01952603 18.27017164 38.64004309 18.25552432 35.26000977 18.22802734 C30.93322745 18.1939173 26.60763065 18.19997623 22.28079128 18.21868992 C18.94609235 18.2292706 15.61166811 18.220313 12.27699471 18.2053051 C10.68184284 18.20013247 9.08666219 18.20059394 7.49151421 18.20685005 C5.26056322 18.21231664 3.03129604 18.19188569 0.80053711 18.16455078 C-0.46709976 18.1583522 -1.73473663 18.15215363 -3.04078674 18.14576721 C-6.94216128 17.54320446 -8.59455038 16.38004089 -11.37304688 13.63110352 C-12.81735542 10.74248642 -12.74993193 8.8346265 -12.37304688 5.63110352 C-8.60460014 0.7716483 -6.05103168 0.00445546 0 0 Z " fill="#458FFE" transform="translate(123.373046875,409.368896484375)"/>
<path d="M0 0 C1.07169434 -0.00832352 1.07169434 -0.00832352 2.16503906 -0.01681519 C4.51696735 -0.02858619 6.86695771 -0.00436553 9.21875 0.02148438 C10.85872307 0.02319627 12.49869887 0.02312899 14.13867188 0.0213623 C17.57188174 0.02301409 21.00443748 0.04168507 24.4375 0.07324219 C28.83255314 0.11291975 33.22674998 0.11728664 37.62194824 0.10977936 C41.00724089 0.10670605 44.39234196 0.11884293 47.77758789 0.13591003 C49.39785561 0.14292852 51.01814504 0.14606596 52.63842773 0.1452179 C54.90518238 0.14702086 57.17092157 0.16844353 59.4375 0.1953125 C60.72591797 0.20373169 62.01433594 0.21215088 63.34179688 0.2208252 C66.94440534 0.64158965 68.84921356 1.438316 71.71875 3.61523438 C73.28810594 6.75394625 73.07076103 9.15379259 72.71875 12.61523438 C70.08862286 16.0483123 68.59628306 17.45412575 64.29710388 18.24342346 C62.98790482 18.24438522 61.67870575 18.24534698 60.32983398 18.24633789 C59.24109985 18.25707085 59.24109985 18.25707085 58.13037109 18.26802063 C55.74121355 18.28487224 53.35394179 18.26553041 50.96484375 18.24414062 C49.30005234 18.24496957 47.63526101 18.24742993 45.97047424 18.25144958 C42.48600552 18.25430501 39.00218051 18.23963043 35.51782227 18.2121582 C31.05304093 18.1780487 26.5894084 18.18410449 22.1245718 18.20282078 C18.68868951 18.21339149 15.25307433 18.20445288 11.81721687 18.18943596 C10.1709987 18.18425595 8.52475261 18.18473377 6.87853813 18.19098091 C4.57783929 18.19643531 2.27878308 18.17605497 -0.02172852 18.14868164 C-1.33013199 18.14248306 -2.63853546 18.13628448 -3.98658752 18.12989807 C-7.80931052 17.53274532 -8.95694705 16.63718314 -11.28125 13.61523438 C-12.72555855 10.72661728 -12.65813506 8.81875736 -12.28125 5.61523438 C-8.53060492 0.79035177 -6.01821912 -0.00959633 0 0 Z " fill="#438DFE" transform="translate(123.28125,272.384765625)"/>
<path d="M0 0 C1.08632469 -0.0131424 1.08632469 -0.0131424 2.19459534 -0.02655029 C4.57891471 -0.04848486 6.96136626 -0.03401489 9.34570312 -0.01708984 C11.00810094 -0.02045974 12.67049635 -0.02531381 14.33288574 -0.03158569 C17.81314605 -0.03894889 21.29276374 -0.02827001 24.77294922 -0.00488281 C29.22881978 0.02360546 33.68318459 0.0071984 38.13899994 -0.02274513 C41.57065122 -0.04083354 45.00194688 -0.03505318 48.43360901 -0.02210617 C50.07621947 -0.01877638 51.71886248 -0.02284425 53.36143494 -0.03450394 C55.65979217 -0.0472392 57.95572887 -0.02780343 60.25390625 0 C61.56008911 0.00397797 62.86627197 0.00795593 64.21203613 0.01205444 C68.50086987 0.80945557 69.98751425 2.23405378 72.62695312 5.64697266 C73.18945312 9.20947266 73.18945312 9.20947266 72.62695312 12.64697266 C70.75986808 15.01194705 69.30633882 16.30727981 66.62695312 17.64697266 C64.34601509 17.75968674 62.06172961 17.8063746 59.77807617 17.82397461 C59.07380493 17.83054581 58.36953369 17.837117 57.6439209 17.84388733 C55.30883684 17.86362817 52.97381713 17.8752848 50.63867188 17.88525391 C49.44271865 17.8913672 49.44271865 17.8913672 48.22260475 17.89760399 C44.00232832 17.91846842 39.78208444 17.93276831 35.56176758 17.94213867 C31.20362795 17.953202 26.84599907 17.98759949 22.48803997 18.02731037 C19.13626662 18.05346249 15.7846152 18.06182925 12.43274879 18.06542015 C10.8263892 18.07029004 9.2200352 18.08191559 7.61377525 18.10045815 C5.36344383 18.12482026 3.11443673 18.12389069 0.86401367 18.11694336 C-1.05553886 18.12574272 -1.05553886 18.12574272 -3.01387024 18.13471985 C-6.94846599 17.5634227 -8.58083989 16.41991789 -11.37304688 13.64697266 C-12.81735542 10.75835556 -12.74993193 8.85049564 -12.37304688 5.64697266 C-8.60599421 0.79112651 -6.04767275 0.01841812 0 0 Z " fill="#438EFE" transform="translate(123.373046875,204.35302734375)"/>
<path d="M0 0 C0.70266495 -0.00817749 1.4053299 -0.01635498 2.12928772 -0.02478027 C4.45955554 -0.04963401 6.78976236 -0.06615167 9.12011719 -0.08056641 C10.31419819 -0.08855192 10.31419819 -0.08855192 11.53240204 -0.09669876 C15.74734026 -0.1234325 19.96224887 -0.14280512 24.17724609 -0.15722656 C28.52643771 -0.17385943 32.87486933 -0.21862424 37.22377396 -0.26959801 C40.57129767 -0.3032939 43.91864169 -0.31480657 47.26631927 -0.32045364 C48.86908515 -0.32716159 50.47183938 -0.34237197 52.07444 -0.36634445 C54.32238678 -0.39804692 56.56829364 -0.39802635 58.81640625 -0.390625 C60.09388733 -0.39871185 61.37136841 -0.40679871 62.68756104 -0.41513062 C67.31959988 0.39427972 68.92376316 1.82570994 72.16699219 5.19287109 C72.85449219 8.69287109 72.85449219 8.69287109 72.16699219 12.19287109 C69.5201345 15.59757549 68.04013248 17.03053254 63.7520752 17.82778931 C61.7928009 17.83375626 61.7928009 17.83375626 59.79394531 17.83984375 C58.70762062 17.85298615 58.70762062 17.85298615 57.59934998 17.86639404 C55.21503061 17.88832861 52.83257905 17.87385864 50.44824219 17.85693359 C48.78584438 17.86030349 47.12344897 17.86515756 45.46105957 17.87142944 C41.98079926 17.87879264 38.50118157 17.86811376 35.02099609 17.84472656 C30.56512553 17.81623829 26.11076072 17.83264535 21.65494537 17.86258888 C18.22329409 17.88067729 14.79199844 17.87489693 11.3603363 17.86194992 C9.71772584 17.85862013 8.07508283 17.862688 6.43251038 17.87434769 C4.13415314 17.88708295 1.83821644 17.86764718 -0.45996094 17.83984375 C-1.7661438 17.83586578 -3.07232666 17.83188782 -4.41809082 17.82778931 C-8.69536115 17.03253811 -10.18148059 15.57648229 -12.83300781 12.19287109 C-13.57764021 8.22149829 -13.20567659 6.75187426 -10.95800781 3.38037109 C-7.39904066 -0.28327156 -5.01334276 0.0505954 0 0 Z " fill="#458FFE" transform="translate(123.8330078125,340.80712890625)"/>
<path d="M0 0 C-0.0825 0.928125 -0.165 1.85625 -0.25 2.8125 C-0.27822869 6.33402896 0.65400007 8.88796495 2 12.125 C6.1682656 22.88562892 4.55810172 34.56499998 0 44.9375 C-6.24201975 56.65497566 -15.65976461 62.08091761 -27.75 66.3125 C-31.2522619 67.05336309 -34.43028186 67.14570278 -38 67 C-38 66.67 -38 66.34 -38 66 C-36.989375 65.814375 -35.97875 65.62875 -34.9375 65.4375 C-26.77891495 63.02439738 -22.40080526 55.21294909 -18.51171875 48.16015625 C-12.75189186 36.1195879 -11.89620728 21.49109951 -16.1484375 8.8203125 C-16.96291171 6.80984825 -16.96291171 6.80984825 -19 5 C-18.67 4.34 -18.34 3.68 -18 3 C-15.890625 2.4375 -15.890625 2.4375 -13.25 2 C-10.29675503 1.47338713 -7.85561075 0.94162988 -5.0625 -0.1875 C-3 -1 -3 -1 0 0 Z " fill="#C8D7FC" transform="translate(421,367)"/>
<path d="M0 0 C0.66 0 1.32 0 2 0 C8.62132165 8.94238277 11.24960174 17.93969524 10 29 C7.50240463 39.28136348 2.36594142 47.5532798 -6.37109375 53.65625 C-12.40270923 57.15519726 -17.93670142 59.33634755 -25 59 C-24.29875 58.34 -23.5975 57.68 -22.875 57 C-17.01799516 51.09321892 -12.95797542 44.76468549 -10 37 C-9.5875 35.948125 -9.175 34.89625 -8.75 33.8125 C-6.91173485 24.46798549 -7.36264497 15.79027464 -11 7 C-10.28972656 6.57847656 -9.57945312 6.15695312 -8.84765625 5.72265625 C-7.92855469 5.17480469 -7.00945312 4.62695312 -6.0625 4.0625 C-5.14597656 3.51722656 -4.22945313 2.97195313 -3.28515625 2.41015625 C-1.11587323 1.19267827 -1.11587323 1.19267827 0 0 Z " fill="#C7D7FC" transform="translate(451,303)"/>
<path d="M0 0 C0.82876144 -0.00570007 1.65752289 -0.01140015 2.51139832 -0.01727295 C4.26743288 -0.02672748 6.02348522 -0.03325873 7.77954102 -0.03710938 C10.45946471 -0.04679906 13.13861628 -0.0778109 15.81835938 -0.109375 C17.52473503 -0.11590673 19.23111617 -0.12115654 20.9375 -0.125 C21.73662308 -0.1373468 22.53574615 -0.1496936 23.35908508 -0.16241455 C27.95127774 -0.14413546 30.93244175 0.23134393 34.66796875 3.203125 C36.26413618 6.39545985 36.18262989 9.73773997 35.66796875 13.203125 C33.79781781 15.63432123 32.3865853 16.84381673 29.66796875 18.203125 C26.88230888 18.32657464 24.12265462 18.39154152 21.3359375 18.40625 C20.09279533 18.41480011 20.09279533 18.41480011 18.82453918 18.42352295 C17.06850462 18.43297748 15.31245228 18.43950873 13.55639648 18.44335938 C10.87647279 18.45304906 8.19732122 18.4840609 5.51757812 18.515625 C3.81120247 18.52215673 2.10482133 18.52740654 0.3984375 18.53125 C-0.40068558 18.5435968 -1.19980865 18.5559436 -2.02314758 18.56866455 C-6.61534024 18.55038546 -9.59650425 18.17490607 -13.33203125 15.203125 C-14.92819868 12.01079015 -14.84669239 8.66851003 -14.33203125 5.203125 C-10.23431896 -0.12390098 -6.32478121 0.03338262 0 0 Z " fill="#4A91FE" transform="translate(117.33203125,118.796875)"/>
<path d="M0 0 C11.23482314 1.00310921 18.35685487 4.37360292 26 13 C32.13447504 21.81058831 31.85809798 31.11307007 30.734375 41.44140625 C30.25 43.3125 30.25 43.3125 28 46 C22.43273197 47.75893396 16.80783285 48.09644003 11 48 C11.32226562 46.85273438 11.64453125 45.70546875 11.9765625 44.5234375 C14.55749179 34.14033614 14.42577452 22.39140177 9 13 C6.24747833 8.47235339 3.19233961 4.22487675 0 0 Z " fill="#C8D7FC" transform="translate(367,85)"/>
<path d="M0 0 C2.10945709 -0.00966311 4.21792207 -0.04065193 6.32714844 -0.07226562 C7.67349682 -0.07879993 9.01985218 -0.08404872 10.36621094 -0.08789062 C12.2026416 -0.10190918 12.2026416 -0.10190918 14.07617188 -0.11621094 C17.68660867 0.27309761 19.51358807 1.05349962 22.38183594 3.24023438 C24.38183594 6.24023438 24.38183594 6.24023438 24.25683594 9.67773438 C23.31217661 13.52384734 22.44141178 14.82965947 19.38183594 17.24023438 C15.10047524 19.38091472 9.4404713 18.50830162 4.68823242 18.53540039 C2.58738542 18.55258672 0.48812393 18.59647036 -1.61230469 18.640625 C-2.95409002 18.6507549 -4.2958887 18.65927008 -5.63769531 18.66601562 C-7.46457886 18.6878894 -7.46457886 18.6878894 -9.32836914 18.71020508 C-13.22626159 18.1533633 -14.84491109 16.97718573 -17.61816406 14.24023438 C-19.06247261 11.35161728 -18.99504912 9.44375736 -18.61816406 6.24023438 C-16.18066406 3.42773438 -16.18066406 3.42773438 -13.61816406 1.24023438 C-11.01259917 -1.36533051 -3.73498267 0.01037015 0 0 Z " fill="#4A92FE" transform="translate(52.6181640625,374.759765625)"/>
<path d="M0 0 C1.07030457 -0.00717545 1.07030457 -0.00717545 2.16223145 -0.01449585 C3.66498022 -0.0178856 5.16780366 -0.00874758 6.67041016 0.01220703 C8.96294475 0.03899467 11.25058534 0.01243719 13.54296875 -0.01953125 C15.00782324 -0.01622698 16.4726747 -0.00982036 17.9375 0 C18.95801453 -0.01518173 18.95801453 -0.01518173 19.99914551 -0.03067017 C23.80601246 0.06247202 25.39563339 0.60535244 28.40039062 3.01806641 C30.46875 5.6640625 30.46875 5.6640625 31.09375 8.6640625 C30.26805566 12.62739533 28.53433569 14.10940776 25.46875 16.6640625 C21.1873893 18.80474285 15.52738536 17.93212975 10.77514648 17.95922852 C8.67429948 17.97641484 6.57503799 18.02029849 4.47460938 18.06445312 C3.13282405 18.07458302 1.79102536 18.0830982 0.44921875 18.08984375 C-1.37766479 18.11171753 -1.37766479 18.11171753 -3.24145508 18.1340332 C-7.13934753 17.57719142 -8.75799702 16.40101385 -11.53125 13.6640625 C-12.97555855 10.77544541 -12.90813506 8.86758549 -12.53125 5.6640625 C-8.84206093 0.88759816 -5.81862331 -0.08656102 0 0 Z " fill="#468FFE" transform="translate(46.53125,409.3359375)"/>
<path d="M0 0 C1.07030457 -0.00717545 1.07030457 -0.00717545 2.16223145 -0.01449585 C3.66498022 -0.0178856 5.16780366 -0.00874758 6.67041016 0.01220703 C8.96294475 0.03899467 11.25058534 0.01243719 13.54296875 -0.01953125 C15.00782324 -0.01622698 16.4726747 -0.00982036 17.9375 0 C18.95801453 -0.01518173 18.95801453 -0.01518173 19.99914551 -0.03067017 C23.80678024 0.06249081 25.39734714 0.60680482 28.40429688 3.01806641 C30.46875 5.6640625 30.46875 5.6640625 31.03125 8.6640625 C30.34081143 12.34640154 29.10061072 14.03220178 26.46875 16.6640625 C21.39496422 18.35532443 16.00995723 17.928767 10.69970703 17.95922852 C9.29921369 17.97075588 7.89876455 17.9912202 6.49853516 18.02075195 C4.47007542 18.06351924 2.4429176 18.07960714 0.4140625 18.08984375 C-0.79749512 18.10442627 -2.00905273 18.11900879 -3.25732422 18.1340332 C-7.1443373 17.57605407 -8.76398101 16.39228881 -11.53125 13.6640625 C-12.97555855 10.77544541 -12.90813506 8.86758549 -12.53125 5.6640625 C-8.84206093 0.88759816 -5.81862331 -0.08656102 0 0 Z " fill="#468FFE" transform="translate(46.53125,170.3359375)"/>
<path d="M0 0 C2.0898686 -0.0171578 4.17813146 -0.06103617 6.26757812 -0.10522461 C7.6061082 -0.11535709 8.94465169 -0.12387146 10.28320312 -0.13061523 C12.10223145 -0.15248901 12.10223145 -0.15248901 13.95800781 -0.17480469 C18.05751559 0.39130381 20.20067154 1.65942309 23.36132812 4.29516602 C24.60473518 8.31795355 24.80557857 10.32204599 23.04882812 14.17016602 C21.36132812 16.29516602 21.36132812 16.29516602 19.36132812 17.29516602 C16.92745085 17.43009192 14.52342563 17.50770755 12.08789062 17.53344727 C11.36773773 17.54151901 10.64758484 17.54959076 9.90560913 17.5579071 C8.38078211 17.57174216 6.85592419 17.58246691 5.33105469 17.59033203 C3.00200611 17.60755011 0.67437562 17.65143806 -1.65429688 17.69555664 C-3.13605727 17.70568346 -4.61782973 17.7141996 -6.09960938 17.72094727 C-6.79452484 17.73845535 -7.48944031 17.75596344 -8.20541382 17.77400208 C-11.55507604 17.75901621 -13.33873973 17.52076874 -16.04736328 15.48339844 C-18.30904639 12.37332391 -18.63867188 10.11933348 -18.63867188 6.29516602 C-13.92473963 -1.18210583 -7.99693617 0.04573411 0 0 Z " fill="#468FFE" transform="translate(52.638671875,340.704833984375)"/>
<path d="M0 0 C2.10058559 -0.00968123 4.20018223 -0.04069247 6.30053711 -0.07226562 C7.64232819 -0.07879848 8.98412625 -0.08404785 10.32592773 -0.08789062 C11.5438501 -0.09723633 12.76177246 -0.10658203 14.01660156 -0.11621094 C17.61743453 0.27393497 19.44427001 1.06035713 22.30639648 3.24023438 C24.30639648 6.24023438 24.30639648 6.24023438 24.18139648 9.67773438 C23.19827797 13.6804312 22.55740782 14.80000158 19.30639648 17.24023438 C16.67375709 17.63866352 14.4662748 17.80239132 11.83764648 17.77148438 C11.12032349 17.77531128 10.40300049 17.77913818 9.66394043 17.78308105 C8.15102735 17.78579665 6.63806703 17.77845993 5.12524414 17.76171875 C2.81346672 17.74029988 0.50479635 17.76152789 -1.80688477 17.78710938 C-3.27954785 17.78446603 -4.75220901 17.7793409 -6.22485352 17.77148438 C-6.91349487 17.7795813 -7.60213623 17.78767822 -8.31164551 17.79602051 C-11.63421468 17.73131795 -13.41808845 17.44860524 -16.09790039 15.421875 C-18.36873684 12.31719408 -18.69360352 10.06460097 -18.69360352 6.24023438 C-13.96217628 -1.26478814 -8.017709 0.02239323 0 0 Z " fill="#458EFE" transform="translate(52.693603515625,306.759765625)"/>
<path d="M0 0 C1.0370105 -0.00361794 1.0370105 -0.00361794 2.0949707 -0.00730896 C3.55067708 -0.00633331 5.00642186 0.00699336 6.46191406 0.03198242 C8.6816291 0.06631544 10.8973626 0.05262782 13.1171875 0.03320312 C14.53647516 0.04010211 15.95575262 0.04977499 17.375 0.0625 C18.65761719 0.07337646 19.94023438 0.08425293 21.26171875 0.09545898 C25.24343102 0.71547333 26.90599001 1.75500119 29.6875 4.62890625 C30.75 8.06640625 30.75 8.06640625 30.6875 11.62890625 C28.92108828 14.43080071 27.65700178 16.14415536 24.6875 17.62890625 C20.31737717 17.88731413 15.94344302 17.89994007 11.56665039 17.92407227 C9.39339761 17.94126074 7.22167654 17.98514432 5.04882812 18.02929688 C3.6614695 18.03942651 2.27409796 18.04794177 0.88671875 18.0546875 C-0.37309814 18.06927002 -1.63291504 18.08385254 -2.9309082 18.09887695 C-6.8913946 17.54845198 -8.50569813 16.41689447 -11.3125 13.62890625 C-12.75680855 10.74028916 -12.68938506 8.83242924 -12.3125 5.62890625 C-8.56168111 0.80079049 -6.02201378 -0.0034044 0 0 Z " fill="#448EFE" transform="translate(46.3125,204.37109375)"/>
<path d="M0 0 C0.69275528 -0.0038269 1.38551056 -0.00765381 2.09925842 -0.01159668 C3.56089739 -0.01431212 5.02258526 -0.00697639 6.48413086 0.00976562 C8.71253779 0.03115289 10.93770961 0.00997357 13.16601562 -0.015625 C14.58985082 -0.01298102 16.01368401 -0.00785457 17.4375 0 C18.72648193 0.00451172 20.01546387 0.00902344 21.34350586 0.01367188 C25.34446001 0.61536179 26.99588832 1.64341565 29.78515625 4.53125 C30.84765625 7.96875 30.84765625 7.96875 30.78515625 11.53125 C28.69890286 14.95866629 27.61072515 16.25606037 23.78515625 17.53125 C19.38968962 17.8265607 14.99277532 17.88693718 10.58886719 17.9362793 C9.13973179 17.95787668 7.69072747 17.99200181 6.2421875 18.03881836 C4.14394444 18.10594112 2.04838475 18.13328609 -0.05078125 18.15234375 C-1.3042334 18.1773999 -2.55768555 18.20245605 -3.84912109 18.22827148 C-7.31070239 17.51139824 -7.93844367 17.21351924 -10.15869141 14.71899414 C-12.21484375 11.53125 -12.21484375 11.53125 -12.27734375 7.90625 C-10.13013139 1.08569309 -6.87805189 0.02409577 0 0 Z " fill="#438EFE" transform="translate(46.21484375,238.46875)"/>
<path d="M0 0 C1.31484375 -0.00064453 2.6296875 -0.00128906 3.984375 -0.00195312 C4.66435547 0.00843994 5.34433594 0.01883301 6.04492188 0.02954102 C8.11930345 0.05851419 10.19112762 0.05013643 12.265625 0.03710938 C23.64757322 0.1096414 23.64757322 0.1096414 28.125 3.49609375 C30.125 6.49609375 30.125 6.49609375 30.0625 9.93359375 C28.91991452 14.27541859 27.88131228 15.14396896 24.125 17.49609375 C19.55136667 18.22946568 14.9743741 18.15509809 10.35058594 18.12744141 C8.13017258 18.1211085 5.91506929 18.16809981 3.6953125 18.21875 C2.27604835 18.22329584 0.85676995 18.22470304 -0.5625 18.22265625 C-1.84511719 18.22861816 -3.12773438 18.23458008 -4.44921875 18.24072266 C-9.22917847 17.20174908 -10.25328764 15.562869 -12.875 11.49609375 C-13 7.87109375 -13 7.87109375 -11.875 4.49609375 C-8.04803756 0.59885976 -5.38436321 -0.0083226 0 0 Z " fill="#448EFE" transform="translate(46.875,272.50390625)"/>
<path d="M0 0 C1.65 1.65 3.3 3.3 5 5 C6.39305919 6.15410378 7.80920914 7.2810662 9.25 8.375 C10.0234375 8.96796875 10.796875 9.5609375 11.59375 10.171875 C12.3878125 10.77515625 13.181875 11.3784375 14 12 C18.95958688 15.76799782 23.72906641 19.45352231 28 24 C25.16759682 26.20952835 22.33390432 28.41739742 19.5 30.625 C18.70851563 31.24246094 17.91703125 31.85992187 17.1015625 32.49609375 C12.64284587 35.96804522 8.15990316 39.39787404 3.61132812 42.75146484 C1.86759934 44.04850188 1.86759934 44.04850188 0 46 C0 30.82 0 15.64 0 0 Z " fill="#E6ECFC" transform="translate(34,79)"/>
<path d="M0 0 C0.495 0.99 0.495 0.99 1 2 C-2.71744055 12.45389343 -11.56026691 20.2135208 -21.25 25 C-32.408867 30.25123153 -32.408867 30.25123153 -36.375 29.625 C-37.179375 29.315625 -37.179375 29.315625 -38 29 C-37.3709375 28.55011719 -36.741875 28.10023438 -36.09375 27.63671875 C-28.2828489 21.76677952 -22.074779 15.02608376 -18.25 5.9375 C-15.50493352 2.3536632 -14.33891367 2.35339251 -10 1.625 C-8.00069762 1.41007499 -6.00073415 1.20116077 -4 1 C-2.65972152 0.69579205 -1.3222055 0.37504868 0 0 Z " fill="#C8D8FC" transform="translate(375,439)"/>
<path d="M0 0 C4.43024874 0.87022743 5.91370196 2.00398461 8.5 5.6875 C9.12601538 9.65226406 9.15946039 11.68512021 6.9375 15.0625 C3.67160572 17.23976285 1.42016134 17.6875 -2.5 17.6875 C-6.28644566 15.71196313 -7.27321363 14.3678591 -8.625 10.3125 C-8.5 6.6875 -8.5 6.6875 -6.5 3.25 C-3.5 0.6875 -3.5 0.6875 0 0 Z " fill="#E2E9FC" transform="translate(443.5,477.3125)"/>
<path d="M0 0 C4.0553591 1.35178637 5.39946313 2.33855434 7.375 6.125 C7.375 10.04516134 6.92726285 12.29660572 4.75 15.5625 C1.37262021 17.78446039 -0.66023594 17.75101538 -4.625 17.125 C-8.30851539 14.53870196 -9.44227257 13.05524874 -10.3125 8.625 C-9.625 5.125 -9.625 5.125 -7.0625 2.125 C-3.625 0.125 -3.625 0.125 0 0 Z " fill="#E2E9FC" transform="translate(487.625,434.875)"/>
<path d="M0 0 C4.4297642 0.79102932 5.89210172 1.98974785 8.5 5.625 C9.21235686 9.4242366 8.81263988 11.06224821 6.9375 14.4375 C3.73003157 17.31599731 1.7850666 17.70017661 -2.5 17.625 C-5.30189446 15.85858828 -7.01524911 14.59450178 -8.5 11.625 C-9.03507099 7.6119676 -8.83051628 6.08571967 -6.4375 2.75 C-3.5 0.625 -3.5 0.625 0 0 Z " fill="#E2E9FC" transform="translate(486.5,59.375)"/>
<path d="M0 0 C2.4375 1.625 2.4375 1.625 4 4 C4.72125695 8.40768137 4.52001338 10.25937488 1.9375 13.9375 C-1 16 -1 16 -4.5 16.6875 C-8 16 -8 16 -11 13.4375 C-13 10 -13 10 -13.125 6.375 C-10.80869361 -0.57391916 -6.85196698 -1.99329948 0 0 Z " fill="#E2E9FC" transform="translate(448,18)"/>
<path d="M0 0 C4.21796616 0.86080942 6.17690429 2.46458565 9.0625 5.625 C9.70045207 9.53245641 9.29379757 12.336772 7.0625 15.625 C3.3419164 18.10538907 1.46453429 18.08837203 -2.9375 17.625 C-6.24498965 15.01382396 -7.75430509 12.99896185 -8.3125 8.8125 C-7.9375 5.625 -7.9375 5.625 -5.8125 2.75 C-2.9375 0.625 -2.9375 0.625 0 0 Z " fill="#4790FF" transform="translate(7.9375,400.375)"/>
<path d="M0 0 C7.63579215 1.33348553 13.95034387 4.07309217 20.875 7.5 C22.421875 8.24830078 22.421875 8.24830078 24 9.01171875 C31.48409125 12.65606084 31.48409125 12.65606084 35 15 C35 15.66 35 16.32 35 17 C33.02 17.66 31.04 18.32 29 19 C29 18.34 29 17.68 29 17 C28.42942871 16.72148193 27.85885742 16.44296387 27.27099609 16.15600586 C25.01891609 15.00962887 22.84483962 13.78027843 20.6640625 12.50390625 C19.84679687 12.02759766 19.02953125 11.55128906 18.1875 11.06054688 C16.48669111 10.06624778 14.78616758 9.0714604 13.0859375 8.07617188 C8.7839003 5.57003228 4.48826554 3.15641423 0 1 C0 0.67 0 0.34 0 0 Z " fill="#C7D7FC" transform="translate(316,54)"/>
<path d="M0 0 C0.33 0 0.66 0 1 0 C1.18451025 12.66970387 1.18451025 12.66970387 0 18 C-0.99 18.33 -1.98 18.66 -3 19 C-2.37679879 12.56025419 -1.35991738 6.32427599 0 0 Z " fill="#D8E4FC" transform="translate(425,187)"/>
</svg>
