<?xml version="1.0" encoding="UTF-8"?>
<svg version="1.1" xmlns="http://www.w3.org/2000/svg" width="512" height="512">
<path d="M0 0 C1.46401014 -0.00551503 1.46401014 -0.00551503 2.95759624 -0.01114148 C6.22531184 -0.02214706 9.4929956 -0.02601686 12.76072693 -0.02983093 C15.10502218 -0.03609795 17.44931644 -0.04274497 19.79360962 -0.04974365 C27.49024263 -0.0707585 35.18687578 -0.08114383 42.88352966 -0.09111023 C45.53614245 -0.09515878 48.18875514 -0.09927574 50.84136772 -0.10346031 C61.87764053 -0.12046719 72.91391237 -0.13495966 83.95019627 -0.14220905 C86.81086796 -0.14411873 89.67153964 -0.14603909 92.5322113 -0.147995 C93.2431558 -0.14847874 93.9541003 -0.14896248 94.68658858 -0.14946087 C106.19435826 -0.15775499 117.70202379 -0.18308385 129.20974804 -0.21557567 C141.04236268 -0.24871067 152.8749245 -0.26666359 164.70758575 -0.26985329 C171.34395004 -0.27201237 177.98017978 -0.28112054 184.61650276 -0.30631447 C190.86362773 -0.32964813 197.1104801 -0.33380693 203.35763741 -0.32355309 C205.64363514 -0.32305891 207.92964653 -0.32934434 210.21560287 -0.34310913 C226.9296437 -0.43807738 242.45041267 0.23697067 255.47337341 12.18232727 C266.84740409 24.21418435 268.57429325 37.04748099 268.44993591 53.02607727 C268.44619831 54.44810791 268.44335488 55.87014114 268.44136047 57.29217529 C268.43378273 61.00589815 268.4141858 64.71946056 268.39195251 68.43312073 C268.37136667 72.23426647 268.36233172 76.03543854 268.35227966 79.83662415 C268.33093336 87.27354565 268.29686972 94.71033572 268.25462341 102.14717102 C269.0578516 102.14440564 269.86107979 102.14164026 270.68864822 102.13879108 C290.27067779 102.07241745 309.85268479 102.02283518 329.43480301 101.9917345 C338.90473227 101.97629309 348.37458624 101.95525589 357.84446716 101.92085266 C366.10243017 101.89086663 374.36033862 101.87157623 382.61835456 101.86490554 C386.98727408 101.86100882 391.3560376 101.85190833 395.72490692 101.82998085 C399.84529654 101.80946996 403.96546734 101.80336641 408.08590317 101.80784798 C409.59022845 101.80702926 411.09456181 101.80115113 412.59884262 101.7895546 C428.55799045 101.67266167 440.81188919 104.48332354 453.00462341 115.20967102 C460.69751305 123.34852528 464.40443853 134.2431669 464.40179443 145.18490601 C464.40547112 146.00135651 464.40914781 146.81780701 464.41293591 147.65899843 C464.42396111 150.39863329 464.42781465 153.1382302 464.43162537 155.87788391 C464.43789099 157.84089783 464.44453788 159.80391056 464.45153809 161.766922 C464.47257239 168.21788203 464.48294116 174.66884228 464.49290466 181.11982727 C464.49695271 183.34219818 464.50106965 185.56456897 464.50525475 187.78693962 C464.52430649 198.23020005 464.53853652 208.67345342 464.54686671 219.11672789 C464.55663385 231.16197876 464.58293987 243.20704561 464.62336761 255.25223166 C464.65355834 264.56790765 464.66833848 273.88353098 464.67164773 283.19925493 C464.67399519 288.76026 464.682916 294.32106847 464.7081089 299.88202095 C464.7314457 305.11793282 464.73560023 310.35351944 464.72534752 315.58946991 C464.72485338 317.50541963 464.73113755 319.42138567 464.74490356 321.337286 C464.85446523 337.4971014 462.59363547 348.21549089 451.22337341 360.30732727 C442.47061911 368.79052211 432.0086241 372.29430683 419.98509216 372.24482727 C419.30408951 372.24341232 418.62308685 372.24199738 417.92144775 372.24053955 C415.76162694 372.234974 413.60191252 372.22242805 411.44212341 372.20967102 C409.97142179 372.20465156 408.50071854 372.20008944 407.03001404 372.19599915 C403.43818301 372.1850159 399.84641361 372.16777524 396.25462341 372.14717102 C396.26461617 373.31441963 396.26461617 373.31441963 396.27481079 374.50524902 C396.33497971 381.84702857 396.38062703 389.18868817 396.41005993 396.53065014 C396.42570052 400.30503058 396.44690902 404.07920688 396.48094177 407.85346985 C396.51359317 411.4974397 396.53148852 415.14121349 396.53925514 418.78531837 C396.54478833 420.1739695 396.55559344 421.56261018 396.57181358 422.9511776 C396.59366197 424.89945847 396.59484945 426.8479376 396.59519958 428.79634094 C396.60519234 430.4584687 396.60519234 430.4584687 396.61538696 432.1541748 C396.20346414 435.57160281 395.30557248 437.40462743 393.25462341 440.14717102 C389.72191951 442.50230695 388.41665974 442.65336463 384.25462341 442.14717102 C381.38743591 440.41670227 381.38743591 440.41670227 378.37962341 437.95967102 C377.82717957 437.51550842 377.27473572 437.07134583 376.70555115 436.61372375 C374.87710071 435.13843039 373.0661502 433.64317804 371.25462341 432.14717102 C369.95234556 431.08851546 368.64893704 430.0312494 367.34446716 428.97529602 C364.63247168 426.77818616 361.92651447 424.57391149 359.22337341 422.36592102 C355.62321281 419.43426219 351.97960856 416.56283705 348.31712341 413.70967102 C343.05698194 409.60789189 337.89226517 405.40121433 332.75462341 401.14717102 C322.66164645 392.75801036 322.66164645 392.75801036 312.25587463 384.76455688 C310.25462341 383.14717102 310.25462341 383.14717102 307.93086243 380.71569824 C297.32456309 370.69191874 286.01125338 371.81957076 272.09056091 372.05732727 C269.64684833 372.06116439 267.20312377 372.06013981 264.75941467 372.05450439 C258.35479327 372.05070624 251.95198872 372.10378127 245.54777527 372.17182922 C235.29356919 372.2708651 225.03888135 372.28143176 214.78427505 372.29459953 C211.21954035 372.30709425 207.65566034 372.3430223 204.09114075 372.38302612 C201.88961535 372.39606689 199.68808747 372.40869717 197.48655701 372.42085266 C196.50859665 372.4379982 195.53063629 372.45514374 194.52304077 372.47280884 C181.29628004 372.50001364 169.8651947 368.10531403 160.10618591 359.16279602 C152.1589894 350.51141754 148.11816086 339.33368765 148.14109802 327.70454407 C148.14117355 326.4235936 148.14124908 325.14264313 148.1413269 323.82287598 C148.14643276 322.43488017 148.15164874 321.04688477 148.15696716 319.65888977 C148.15883367 318.23114064 148.16025647 316.80339087 148.16125488 315.37564087 C148.16506177 311.62903557 148.17487634 307.88246942 148.18595886 304.13587952 C148.19621239 300.30826853 148.20076093 296.48065118 148.20579529 292.6530304 C148.21650034 285.15105948 148.23355468 277.64912075 148.25462341 270.14717102 C144.12776967 270.15738268 140.0028659 270.20275117 135.87669373 270.27915955 C134.47641366 270.30032404 133.07596018 270.31227949 131.67552185 270.31443787 C123.36812985 270.33406571 116.48922132 270.43429407 110.25462341 276.52217102 C108.69903101 278.15339031 107.20304438 279.80886268 105.73802185 281.52168274 C103.2478384 284.25039265 100.32574095 286.37426631 97.37962341 288.58467102 C96.21357005 289.4870522 95.04952645 290.39203594 93.88743591 291.29951477 C93.00233337 291.98956604 93.00233337 291.98956604 92.09934998 292.69355774 C88.78544269 295.30486054 85.52220169 297.97829589 82.25462341 300.64717102 C77.29243179 304.69715137 72.30303723 308.70517 67.25462341 312.64717102 C62.12469643 316.65354687 57.05248698 320.72540845 52.00462341 324.83467102 C51.32794617 325.38284485 50.65126892 325.93101868 49.9540863 326.49580383 C47.02744812 328.86981986 44.12551812 331.25804969 41.26634216 333.71357727 C33.26503598 340.5007247 33.26503598 340.5007247 27.25462341 340.14717102 C24.41252302 338.94717308 22.81958147 338.0145674 21.13209534 335.42372131 C19.99683816 332.47836206 20.01494581 330.06657261 20.02757263 326.90986633 C20.02772369 325.64886108 20.02787476 324.38785583 20.0280304 323.08863831 C20.03824285 321.7175226 20.04867483 320.34640851 20.05931091 318.97529602 C20.06304285 317.56853944 20.06588897 316.16178025 20.06788635 314.75502014 C20.07550866 311.05930863 20.09514496 307.36375527 20.11729431 303.66810608 C20.13778305 299.8942224 20.14689453 296.12031308 20.15696716 292.34638977 C20.17839229 284.94657823 20.21251115 277.54689682 20.25462341 270.14717102 C19.40343933 270.16288147 18.55225525 270.17859192 17.67527771 270.19477844 C14.46403834 270.24644253 11.25301344 270.28377819 8.04148865 270.31196594 C6.66153415 270.32689044 5.2816257 270.34723763 3.90184021 270.37348938 C-12.20607627 270.67189248 -24.53761673 267.76715338 -36.41334534 256.63935852 C-44.29476689 248.21666681 -48.22135651 237.96189596 -48.13978577 226.51489258 C-48.14587687 225.69487552 -48.15196797 224.87485846 -48.15824366 224.0299924 C-48.17476722 221.30808374 -48.1701132 218.58664837 -48.16529846 215.86470032 C-48.17264501 213.90256773 -48.18123294 211.94043947 -48.19096375 209.97831726 C-48.21312751 204.66619195 -48.21611297 199.354222 -48.21421623 194.0420568 C-48.21409629 189.59895549 -48.22267036 185.1558868 -48.23099375 180.7127946 C-48.25020963 170.22548439 -48.25311836 159.73825377 -48.24635315 149.25093079 C-48.23971471 138.45188893 -48.26257317 127.65318884 -48.29966688 116.85421628 C-48.33041133 107.56473221 -48.34171873 98.27535782 -48.33783007 88.98582393 C-48.33576736 83.44551943 -48.34116784 77.90548091 -48.36572266 72.36522484 C-48.38806539 67.1521373 -48.38604934 61.9396035 -48.36579514 56.72651291 C-48.36239832 54.82066094 -48.36741645 52.91477114 -48.38177872 51.00897026 C-48.49157194 35.35128276 -45.77880922 23.77443488 -34.78443909 12.05732727 C-24.82382016 2.4023591 -13.41167334 -0.00272469 0 0 Z M-25.74537659 27.14717102 C-30.80085483 35.09149398 -31.90030645 42.50163973 -31.87908936 51.83108521 C-31.88135491 52.57321705 -31.88362047 53.3153489 -31.88595468 54.07996958 C-31.89225079 56.55005872 -31.89146815 59.02009236 -31.89064026 61.4901886 C-31.89363449 63.26807729 -31.89703763 65.04596534 -31.90081787 66.82385254 C-31.90963517 71.6421411 -31.91199503 76.46041189 -31.91263366 81.27870774 C-31.91334544 84.29215761 -31.9154822 87.30560299 -31.91813087 90.31905174 C-31.92737676 100.84094402 -31.93146671 111.36282364 -31.93067932 121.88471985 C-31.93007872 131.67821987 -31.94062906 141.47166477 -31.95642298 151.26515085 C-31.96951687 159.68576338 -31.97486244 168.10635794 -31.97422391 176.52698058 C-31.97396947 181.55072989 -31.97679093 186.5744302 -31.98740196 191.59816933 C-31.99711409 196.32517197 -31.99714082 201.05207907 -31.98988533 205.77908516 C-31.98884336 207.50839122 -31.99117924 209.23770332 -31.99724579 210.96699905 C-32.28774256 229.39717581 -32.28774256 229.39717581 -23.74537659 245.14717102 C-15.86393673 251.83922996 -8.25679911 253.43047921 1.80149841 253.45576477 C3.63353321 253.48089807 5.46556439 253.50629643 7.29759216 253.53193665 C10.16363279 253.5607894 13.02961112 253.5848335 15.89573669 253.60346985 C18.67712808 253.62505493 21.4578405 253.66445405 24.23899841 253.70576477 C25.52807098 253.70593849 25.52807098 253.70593849 26.84318542 253.70611572 C28.04023102 253.72612389 28.04023102 253.72612389 29.26145935 253.74653625 C29.96204468 253.7516069 30.66263 253.75667755 31.38444519 253.76190186 C33.92336396 254.28493603 34.76640496 255.02975857 36.25462341 257.14717102 C36.65335083 259.63391113 36.65335083 259.63391113 36.68699646 262.62837219 C36.70679062 263.74930771 36.72658478 264.87024323 36.74697876 266.02514648 C36.75336868 267.23459427 36.75975861 268.44404205 36.76634216 269.69013977 C36.78429337 270.92887344 36.80224457 272.16760712 36.82073975 273.44387817 C36.86577418 276.73346562 36.89804991 280.02285561 36.92417908 283.31263733 C36.95398281 286.67103119 37.00051365 290.02918864 37.04563904 293.3874054 C37.13073661 299.97388499 37.19901955 306.56038001 37.25462341 313.14717102 C40.24920816 311.37166059 43.06658076 309.61648311 45.75071716 307.39717102 C46.70107849 306.61696594 46.70107849 306.61696594 47.67063904 305.82099915 C48.33772888 305.26863586 49.00481873 304.71627258 49.69212341 304.14717102 C51.12755108 302.9691485 52.56376263 301.79208057 54.00071716 300.61592102 C54.71727478 300.02939758 55.4338324 299.44287415 56.17210388 298.83857727 C59.17026554 296.40349357 62.20850476 294.02179795 65.25462341 291.64717102 C70.30342288 287.70565934 75.29217204 283.69681678 80.25462341 279.64717102 C87.51772558 273.72207791 94.86435838 267.91249579 102.25462341 262.14717102 C103.17888123 261.42013977 104.10313904 260.69310852 105.05540466 259.94404602 C105.86364685 259.30982727 106.67188904 258.67560852 107.50462341 258.02217102 C108.19040466 257.4833429 108.87618591 256.94451477 109.58274841 256.38935852 C112.46504653 254.24783796 114.2612486 254.01998036 117.80041504 254.00914001 C118.75778564 254.00368668 119.71515625 253.99823334 120.70153809 253.99261475 C122.28254555 253.99105125 122.28254555 253.99105125 123.89549255 253.98945618 C125.00298859 253.98437546 126.11048462 253.97929474 127.25154114 253.97406006 C129.66386174 253.96333743 132.07619241 253.95472472 134.4885273 253.94794083 C138.3095739 253.93617256 142.13050641 253.91672302 145.95150757 253.89482117 C156.81837921 253.83314905 167.68523321 253.77898726 178.55223083 253.74580383 C185.19414521 253.72543304 191.8358711 253.68949403 198.47767448 253.64504623 C201.00730913 253.63090356 203.53698011 253.62216772 206.0666523 253.61899185 C209.613983 253.61406884 213.16077233 253.59087191 216.70799255 253.56367493 C217.74782791 253.56668106 218.78766327 253.56968719 219.85900879 253.57278442 C229.90354431 253.45875021 236.95407981 251.29609272 244.30540466 244.34248352 C249.73928359 238.22256376 251.40381121 231.56668856 251.40179443 223.56463623 C251.40730947 222.39531173 251.40730947 222.39531173 251.41293591 221.2023645 C251.42397753 218.58166514 251.42781744 215.96100541 251.43162537 213.34028625 C251.43788979 211.46446608 251.44453657 209.58864716 251.45153809 207.71282959 C251.47258796 201.54381679 251.4829431 195.37480372 251.49290466 189.20576477 C251.49695223 187.08150278 251.50106915 184.95724092 251.50525475 182.8329792 C251.52431047 172.85050427 251.53853926 162.86803673 251.54686671 152.8855471 C251.55663322 141.36833711 251.58293589 129.85131962 251.62336761 118.33417743 C251.653553 109.4295741 251.668338 100.52502585 251.67164773 91.62037235 C251.67399595 86.30362573 251.68292657 80.98708466 251.7081089 75.67039299 C251.73143614 70.66431032 251.73560409 65.65856783 251.72534752 60.65244484 C251.72485314 58.8199284 251.73114464 56.98739496 251.74490356 55.15493011 C251.82407751 43.98047151 251.85094095 34.0183804 244.00462341 25.27217102 C238.37010966 20.13446385 231.75558293 17.03218128 224.08904839 17.01294994 C223.26168643 17.0084921 222.43432447 17.00403426 221.58189094 16.99944133 C220.67820876 16.99962569 219.77452657 16.99981005 218.84346008 17 C217.87929613 16.99632331 216.91513218 16.99264662 215.92175114 16.98885852 C212.68228003 16.97782183 209.44284099 16.97397785 206.20335388 16.97016907 C203.88404234 16.96390439 201.5647318 16.95725759 199.24542236 16.95025635 C191.62089233 16.92921359 183.99636208 16.91885359 176.37181091 16.90888977 C173.74699518 16.90484226 171.12217956 16.90072534 168.49736404 16.89653969 C157.57868938 16.87967059 146.6600168 16.86503609 135.7413311 16.85779095 C132.90917332 16.85588116 130.07701554 16.85396081 127.24485779 16.852005 C126.5409672 16.85152126 125.83707661 16.85103752 125.111856 16.85053913 C113.71509623 16.84224285 102.31844155 16.81691198 90.92172764 16.78442433 C79.21236212 16.75131845 67.50304995 16.73333899 55.79363739 16.73014671 C49.22272031 16.72779639 42.65196937 16.71883792 36.08109665 16.69368553 C29.89720639 16.67039705 23.71359156 16.66617494 17.52966881 16.67644691 C15.26337582 16.67694219 12.99706923 16.67062416 10.73081779 16.65689087 C7.62944642 16.63915253 4.52906145 16.64628827 1.4276886 16.65942383 C0.53739075 16.64845458 -0.35290711 16.63748534 -1.27018368 16.62618369 C-10.55126832 16.72065486 -19.65184618 19.87524797 -25.74537659 27.14717102 Z " fill="#9AC8FF" transform="translate(47.74537658691406,34.85282897949219)"/>
<path d="M0 0 C1.46401014 -0.00551503 1.46401014 -0.00551503 2.95759624 -0.01114148 C6.22531184 -0.02214706 9.4929956 -0.02601686 12.76072693 -0.02983093 C15.10502218 -0.03609795 17.44931644 -0.04274497 19.79360962 -0.04974365 C27.49024263 -0.0707585 35.18687578 -0.08114383 42.88352966 -0.09111023 C45.53614245 -0.09515878 48.18875514 -0.09927574 50.84136772 -0.10346031 C61.87764053 -0.12046719 72.91391237 -0.13495966 83.95019627 -0.14220905 C86.81086796 -0.14411873 89.67153964 -0.14603909 92.5322113 -0.147995 C93.2431558 -0.14847874 93.9541003 -0.14896248 94.68658858 -0.14946087 C106.19435826 -0.15775499 117.70202379 -0.18308385 129.20974804 -0.21557567 C141.04236268 -0.24871067 152.8749245 -0.26666359 164.70758575 -0.26985329 C171.34395004 -0.27201237 177.98017978 -0.28112054 184.61650276 -0.30631447 C190.86362773 -0.32964813 197.1104801 -0.33380693 203.35763741 -0.32355309 C205.64363514 -0.32305891 207.92964653 -0.32934434 210.21560287 -0.34310913 C226.9296437 -0.43807738 242.45041267 0.23697067 255.47337341 12.18232727 C266.84740409 24.21418435 268.57429325 37.04748099 268.44993591 53.02607727 C268.44619831 54.44810791 268.44335488 55.87014114 268.44136047 57.29217529 C268.43378273 61.00589815 268.4141858 64.71946056 268.39195251 68.43312073 C268.37136667 72.23426647 268.36233172 76.03543854 268.35227966 79.83662415 C268.33093336 87.27354565 268.29686972 94.71033572 268.25462341 102.14717102 C269.0578516 102.14440564 269.86107979 102.14164026 270.68864822 102.13879108 C290.27067779 102.07241745 309.85268479 102.02283518 329.43480301 101.9917345 C338.90473227 101.97629309 348.37458624 101.95525589 357.84446716 101.92085266 C366.10243017 101.89086663 374.36033862 101.87157623 382.61835456 101.86490554 C386.98727408 101.86100882 391.3560376 101.85190833 395.72490692 101.82998085 C399.84529654 101.80946996 403.96546734 101.80336641 408.08590317 101.80784798 C409.59022845 101.80702926 411.09456181 101.80115113 412.59884262 101.7895546 C428.55799045 101.67266167 440.81188919 104.48332354 453.00462341 115.20967102 C460.69751305 123.34852528 464.40443853 134.2431669 464.40179443 145.18490601 C464.40547112 146.00135651 464.40914781 146.81780701 464.41293591 147.65899843 C464.42396111 150.39863329 464.42781465 153.1382302 464.43162537 155.87788391 C464.43789099 157.84089783 464.44453788 159.80391056 464.45153809 161.766922 C464.47257239 168.21788203 464.48294116 174.66884228 464.49290466 181.11982727 C464.49695271 183.34219818 464.50106965 185.56456897 464.50525475 187.78693962 C464.52430649 198.23020005 464.53853652 208.67345342 464.54686671 219.11672789 C464.55663385 231.16197876 464.58293987 243.20704561 464.62336761 255.25223166 C464.65355834 264.56790765 464.66833848 273.88353098 464.67164773 283.19925493 C464.67399519 288.76026 464.682916 294.32106847 464.7081089 299.88202095 C464.7314457 305.11793282 464.73560023 310.35351944 464.72534752 315.58946991 C464.72485338 317.50541963 464.73113755 319.42138567 464.74490356 321.337286 C464.85446523 337.4971014 462.59363547 348.21549089 451.22337341 360.30732727 C442.47061911 368.79052211 432.0086241 372.29430683 419.98509216 372.24482727 C419.30408951 372.24341232 418.62308685 372.24199738 417.92144775 372.24053955 C415.76162694 372.234974 413.60191252 372.22242805 411.44212341 372.20967102 C409.97142179 372.20465156 408.50071854 372.20008944 407.03001404 372.19599915 C403.43818301 372.1850159 399.84641361 372.16777524 396.25462341 372.14717102 C396.26461617 373.31441963 396.26461617 373.31441963 396.27481079 374.50524902 C396.33497971 381.84702857 396.38062703 389.18868817 396.41005993 396.53065014 C396.42570052 400.30503058 396.44690902 404.07920688 396.48094177 407.85346985 C396.51359317 411.4974397 396.53148852 415.14121349 396.53925514 418.78531837 C396.54478833 420.1739695 396.55559344 421.56261018 396.57181358 422.9511776 C396.59366197 424.89945847 396.59484945 426.8479376 396.59519958 428.79634094 C396.60519234 430.4584687 396.60519234 430.4584687 396.61538696 432.1541748 C396.20346414 435.57160281 395.30557248 437.40462743 393.25462341 440.14717102 C389.72191951 442.50230695 388.41665974 442.65336463 384.25462341 442.14717102 C381.38743591 440.41670227 381.38743591 440.41670227 378.37962341 437.95967102 C377.82717957 437.51550842 377.27473572 437.07134583 376.70555115 436.61372375 C374.87710071 435.13843039 373.0661502 433.64317804 371.25462341 432.14717102 C369.95234556 431.08851546 368.64893704 430.0312494 367.34446716 428.97529602 C364.63247168 426.77818616 361.92651447 424.57391149 359.22337341 422.36592102 C355.62321281 419.43426219 351.97960856 416.56283705 348.31712341 413.70967102 C343.05698194 409.60789189 337.89226517 405.40121433 332.75462341 401.14717102 C322.66164645 392.75801036 322.66164645 392.75801036 312.25587463 384.76455688 C310.25462341 383.14717102 310.25462341 383.14717102 307.93086243 380.71569824 C297.32456309 370.69191874 286.01125338 371.81957076 272.09056091 372.05732727 C269.64684833 372.06116439 267.20312377 372.06013981 264.75941467 372.05450439 C258.35479327 372.05070624 251.95198872 372.10378127 245.54777527 372.17182922 C235.29356919 372.2708651 225.03888135 372.28143176 214.78427505 372.29459953 C211.21954035 372.30709425 207.65566034 372.3430223 204.09114075 372.38302612 C201.88961535 372.39606689 199.68808747 372.40869717 197.48655701 372.42085266 C196.50859665 372.4379982 195.53063629 372.45514374 194.52304077 372.47280884 C181.29628004 372.50001364 169.8651947 368.10531403 160.10618591 359.16279602 C152.1589894 350.51141754 148.11816086 339.33368765 148.14109802 327.70454407 C148.14117355 326.4235936 148.14124908 325.14264313 148.1413269 323.82287598 C148.14643276 322.43488017 148.15164874 321.04688477 148.15696716 319.65888977 C148.15883367 318.23114064 148.16025647 316.80339087 148.16125488 315.37564087 C148.16506177 311.62903557 148.17487634 307.88246942 148.18595886 304.13587952 C148.19621239 300.30826853 148.20076093 296.48065118 148.20579529 292.6530304 C148.21650034 285.15105948 148.23355468 277.64912075 148.25462341 270.14717102 C144.12776967 270.15738268 140.0028659 270.20275117 135.87669373 270.27915955 C134.47641366 270.30032404 133.07596018 270.31227949 131.67552185 270.31443787 C123.36812985 270.33406571 116.48922132 270.43429407 110.25462341 276.52217102 C108.69903101 278.15339031 107.20304438 279.80886268 105.73802185 281.52168274 C103.2478384 284.25039265 100.32574095 286.37426631 97.37962341 288.58467102 C96.21357005 289.4870522 95.04952645 290.39203594 93.88743591 291.29951477 C93.00233337 291.98956604 93.00233337 291.98956604 92.09934998 292.69355774 C88.78544269 295.30486054 85.52220169 297.97829589 82.25462341 300.64717102 C77.29243179 304.69715137 72.30303723 308.70517 67.25462341 312.64717102 C62.12469643 316.65354687 57.05248698 320.72540845 52.00462341 324.83467102 C51.32794617 325.38284485 50.65126892 325.93101868 49.9540863 326.49580383 C47.02744812 328.86981986 44.12551812 331.25804969 41.26634216 333.71357727 C33.26503598 340.5007247 33.26503598 340.5007247 27.25462341 340.14717102 C24.41252302 338.94717308 22.81958147 338.0145674 21.13209534 335.42372131 C19.99683816 332.47836206 20.01494581 330.06657261 20.02757263 326.90986633 C20.02772369 325.64886108 20.02787476 324.38785583 20.0280304 323.08863831 C20.03824285 321.7175226 20.04867483 320.34640851 20.05931091 318.97529602 C20.06304285 317.56853944 20.06588897 316.16178025 20.06788635 314.75502014 C20.07550866 311.05930863 20.09514496 307.36375527 20.11729431 303.66810608 C20.13778305 299.8942224 20.14689453 296.12031308 20.15696716 292.34638977 C20.17839229 284.94657823 20.21251115 277.54689682 20.25462341 270.14717102 C19.40343933 270.16288147 18.55225525 270.17859192 17.67527771 270.19477844 C14.46403834 270.24644253 11.25301344 270.28377819 8.04148865 270.31196594 C6.66153415 270.32689044 5.2816257 270.34723763 3.90184021 270.37348938 C-12.20607627 270.67189248 -24.53761673 267.76715338 -36.41334534 256.63935852 C-44.29476689 248.21666681 -48.22135651 237.96189596 -48.13978577 226.51489258 C-48.14587687 225.69487552 -48.15196797 224.87485846 -48.15824366 224.0299924 C-48.17476722 221.30808374 -48.1701132 218.58664837 -48.16529846 215.86470032 C-48.17264501 213.90256773 -48.18123294 211.94043947 -48.19096375 209.97831726 C-48.21312751 204.66619195 -48.21611297 199.354222 -48.21421623 194.0420568 C-48.21409629 189.59895549 -48.22267036 185.1558868 -48.23099375 180.7127946 C-48.25020963 170.22548439 -48.25311836 159.73825377 -48.24635315 149.25093079 C-48.23971471 138.45188893 -48.26257317 127.65318884 -48.29966688 116.85421628 C-48.33041133 107.56473221 -48.34171873 98.27535782 -48.33783007 88.98582393 C-48.33576736 83.44551943 -48.34116784 77.90548091 -48.36572266 72.36522484 C-48.38806539 67.1521373 -48.38604934 61.9396035 -48.36579514 56.72651291 C-48.36239832 54.82066094 -48.36741645 52.91477114 -48.38177872 51.00897026 C-48.49157194 35.35128276 -45.77880922 23.77443488 -34.78443909 12.05732727 C-24.82382016 2.4023591 -13.41167334 -0.00272469 0 0 Z M-25.74537659 27.14717102 C-30.80085483 35.09149398 -31.90030645 42.50163973 -31.87908936 51.83108521 C-31.88135491 52.57321705 -31.88362047 53.3153489 -31.88595468 54.07996958 C-31.89225079 56.55005872 -31.89146815 59.02009236 -31.89064026 61.4901886 C-31.89363449 63.26807729 -31.89703763 65.04596534 -31.90081787 66.82385254 C-31.90963517 71.6421411 -31.91199503 76.46041189 -31.91263366 81.27870774 C-31.91334544 84.29215761 -31.9154822 87.30560299 -31.91813087 90.31905174 C-31.92737676 100.84094402 -31.93146671 111.36282364 -31.93067932 121.88471985 C-31.93007872 131.67821987 -31.94062906 141.47166477 -31.95642298 151.26515085 C-31.96951687 159.68576338 -31.97486244 168.10635794 -31.97422391 176.52698058 C-31.97396947 181.55072989 -31.97679093 186.5744302 -31.98740196 191.59816933 C-31.99711409 196.32517197 -31.99714082 201.05207907 -31.98988533 205.77908516 C-31.98884336 207.50839122 -31.99117924 209.23770332 -31.99724579 210.96699905 C-32.28774256 229.39717581 -32.28774256 229.39717581 -23.74537659 245.14717102 C-15.86393673 251.83922996 -8.25679911 253.43047921 1.80149841 253.45576477 C3.63353321 253.48089807 5.46556439 253.50629643 7.29759216 253.53193665 C10.16363279 253.5607894 13.02961112 253.5848335 15.89573669 253.60346985 C18.67712808 253.62505493 21.4578405 253.66445405 24.23899841 253.70576477 C25.52807098 253.70593849 25.52807098 253.70593849 26.84318542 253.70611572 C28.04023102 253.72612389 28.04023102 253.72612389 29.26145935 253.74653625 C29.96204468 253.7516069 30.66263 253.75667755 31.38444519 253.76190186 C33.92336396 254.28493603 34.76640496 255.02975857 36.25462341 257.14717102 C36.65335083 259.63391113 36.65335083 259.63391113 36.68699646 262.62837219 C36.70679062 263.74930771 36.72658478 264.87024323 36.74697876 266.02514648 C36.75336868 267.23459427 36.75975861 268.44404205 36.76634216 269.69013977 C36.78429337 270.92887344 36.80224457 272.16760712 36.82073975 273.44387817 C36.86577418 276.73346562 36.89804991 280.02285561 36.92417908 283.31263733 C36.95398281 286.67103119 37.00051365 290.02918864 37.04563904 293.3874054 C37.13073661 299.97388499 37.19901955 306.56038001 37.25462341 313.14717102 C40.24920816 311.37166059 43.06658076 309.61648311 45.75071716 307.39717102 C46.70107849 306.61696594 46.70107849 306.61696594 47.67063904 305.82099915 C48.33772888 305.26863586 49.00481873 304.71627258 49.69212341 304.14717102 C51.12755108 302.9691485 52.56376263 301.79208057 54.00071716 300.61592102 C54.71727478 300.02939758 55.4338324 299.44287415 56.17210388 298.83857727 C59.17026554 296.40349357 62.20850476 294.02179795 65.25462341 291.64717102 C70.30342288 287.70565934 75.29217204 283.69681678 80.25462341 279.64717102 C87.51772558 273.72207791 94.86435838 267.91249579 102.25462341 262.14717102 C103.17888123 261.42013977 104.10313904 260.69310852 105.05540466 259.94404602 C105.86364685 259.30982727 106.67188904 258.67560852 107.50462341 258.02217102 C108.19040466 257.4833429 108.87618591 256.94451477 109.58274841 256.38935852 C112.46504653 254.24783796 114.2612486 254.01998036 117.80041504 254.00914001 C118.75778564 254.00368668 119.71515625 253.99823334 120.70153809 253.99261475 C122.28254555 253.99105125 122.28254555 253.99105125 123.89549255 253.98945618 C125.00298859 253.98437546 126.11048462 253.97929474 127.25154114 253.97406006 C129.66386174 253.96333743 132.07619241 253.95472472 134.4885273 253.94794083 C138.3095739 253.93617256 142.13050641 253.91672302 145.95150757 253.89482117 C156.81837921 253.83314905 167.68523321 253.77898726 178.55223083 253.74580383 C185.19414521 253.72543304 191.8358711 253.68949403 198.47767448 253.64504623 C201.00730913 253.63090356 203.53698011 253.62216772 206.0666523 253.61899185 C209.613983 253.61406884 213.16077233 253.59087191 216.70799255 253.56367493 C217.74782791 253.56668106 218.78766327 253.56968719 219.85900879 253.57278442 C229.90354431 253.45875021 236.95407981 251.29609272 244.30540466 244.34248352 C249.73928359 238.22256376 251.40381121 231.56668856 251.40179443 223.56463623 C251.40730947 222.39531173 251.40730947 222.39531173 251.41293591 221.2023645 C251.42397753 218.58166514 251.42781744 215.96100541 251.43162537 213.34028625 C251.43788979 211.46446608 251.44453657 209.58864716 251.45153809 207.71282959 C251.47258796 201.54381679 251.4829431 195.37480372 251.49290466 189.20576477 C251.49695223 187.08150278 251.50106915 184.95724092 251.50525475 182.8329792 C251.52431047 172.85050427 251.53853926 162.86803673 251.54686671 152.8855471 C251.55663322 141.36833711 251.58293589 129.85131962 251.62336761 118.33417743 C251.653553 109.4295741 251.668338 100.52502585 251.67164773 91.62037235 C251.67399595 86.30362573 251.68292657 80.98708466 251.7081089 75.67039299 C251.73143614 70.66431032 251.73560409 65.65856783 251.72534752 60.65244484 C251.72485314 58.8199284 251.73114464 56.98739496 251.74490356 55.15493011 C251.82407751 43.98047151 251.85094095 34.0183804 244.00462341 25.27217102 C238.37010966 20.13446385 231.75558293 17.03218128 224.08904839 17.01294994 C223.26168643 17.0084921 222.43432447 17.00403426 221.58189094 16.99944133 C220.67820876 16.99962569 219.77452657 16.99981005 218.84346008 17 C217.87929613 16.99632331 216.91513218 16.99264662 215.92175114 16.98885852 C212.68228003 16.97782183 209.44284099 16.97397785 206.20335388 16.97016907 C203.88404234 16.96390439 201.5647318 16.95725759 199.24542236 16.95025635 C191.62089233 16.92921359 183.99636208 16.91885359 176.37181091 16.90888977 C173.74699518 16.90484226 171.12217956 16.90072534 168.49736404 16.89653969 C157.57868938 16.87967059 146.6600168 16.86503609 135.7413311 16.85779095 C132.90917332 16.85588116 130.07701554 16.85396081 127.24485779 16.852005 C126.5409672 16.85152126 125.83707661 16.85103752 125.111856 16.85053913 C113.71509623 16.84224285 102.31844155 16.81691198 90.92172764 16.78442433 C79.21236212 16.75131845 67.50304995 16.73333899 55.79363739 16.73014671 C49.22272031 16.72779639 42.65196937 16.71883792 36.08109665 16.69368553 C29.89720639 16.67039705 23.71359156 16.66617494 17.52966881 16.67644691 C15.26337582 16.67694219 12.99706923 16.67062416 10.73081779 16.65689087 C7.62944642 16.63915253 4.52906145 16.64628827 1.4276886 16.65942383 C0.53739075 16.64845458 -0.35290711 16.63748534 -1.27018368 16.62618369 C-10.55126832 16.72065486 -19.65184618 19.87524797 -25.74537659 27.14717102 Z M268.25462341 119.14717102 C268.25223506 119.70209826 268.24984671 120.25702551 268.24738598 120.82876873 C268.1880241 134.3860578 268.11215616 147.94317013 268.0189085 161.50026989 C267.97430321 168.05662987 267.93502543 174.61292912 267.90818787 181.16938782 C267.88205673 187.50430097 267.84158513 193.83897917 267.79143715 200.17374611 C267.77483464 202.58284379 267.76327939 204.99198204 267.75700951 207.40112877 C267.70376571 225.98967168 267.64907012 242.76458728 254.40306091 257.22529602 C243.08613918 267.34879691 231.26012997 268.44609823 216.81712341 268.56123352 C215.32639016 268.57997025 213.83566723 268.59954549 212.34495544 268.61991882 C208.44558331 268.67098175 204.54617689 268.71074467 200.64665222 268.74806213 C196.65781859 268.78826497 192.6691244 268.83928256 188.68040466 268.88935852 C180.87190699 268.98581131 173.06334116 269.07031281 165.25462341 269.14717102 C165.16152666 277.44935378 165.09065914 285.75131474 165.04737473 294.05389214 C165.02658965 297.91004381 164.99844099 301.76583571 164.9528656 305.6217804 C164.9090798 309.35007843 164.8854182 313.07803263 164.87511444 316.80656815 C164.86778122 318.22181223 164.85346262 319.63703967 164.83170319 321.05213547 C164.67889595 331.41130658 165.39526812 340.01355073 172.44212341 348.02217102 C177.30766968 352.92467081 183.90320668 355.34624205 190.70466614 355.61231995 C192.75050477 355.61722432 194.79647164 355.60058515 196.84202576 355.56611633 C197.96683853 355.56360367 199.09165131 355.561091 200.25054932 355.5585022 C202.67970678 355.55112025 205.10885038 355.53491472 207.53789902 355.51076508 C211.3896513 355.47483813 215.24051258 355.46736166 219.09242249 355.46791077 C230.03901924 355.46529419 240.98510449 355.41899326 251.93138123 355.33613586 C258.63988332 355.28569965 265.34740605 355.27776029 272.05612564 355.29172516 C274.60373018 355.28912312 277.15136704 355.27154953 279.69875717 355.23839569 C303.79634602 354.92944238 303.79634602 354.92944238 311.35479736 362.08978271 C312.29521126 363.10818993 312.29521126 363.10818993 313.25462341 364.14717102 C314.67309505 365.31807894 316.10461275 366.4735874 317.55540466 367.60420227 C318.89498278 368.71989 320.23220248 369.83841514 321.56712341 370.95967102 C326.76325283 375.28197687 331.98496924 379.55613087 337.31712341 383.70967102 C342.34667027 387.62877027 347.31485539 391.61549209 352.25462341 395.64717102 C357.45820853 399.88808658 362.67670438 404.10816301 367.94212341 408.27217102 C368.50608826 408.7214093 369.0700531 409.17064758 369.65110779 409.63349915 C372.7356458 412.06159376 375.8740792 414.15987484 379.25462341 416.14717102 C379.25604843 415.46922989 379.25747345 414.79128876 379.25894165 414.09280396 C379.27862987 407.03588922 379.33288557 399.97984048 379.4072113 392.92329407 C379.43040664 390.28989373 379.44479057 387.65640042 379.45018005 385.02290344 C379.45945769 381.23691259 379.50042718 377.45238727 379.54759216 373.66670227 C379.54365952 372.48945084 379.53972687 371.3121994 379.53567505 370.09927368 C379.62194179 365.26504105 379.68621225 362.08921071 382.21385193 357.90010071 C386.43877173 355.46453875 389.81589155 355.48931025 394.61399841 355.58076477 C395.5178125 355.57513016 396.42162659 355.56949554 397.35282898 355.56369019 C400.2372896 355.54725987 403.12021668 355.56274645 406.00462341 355.58467102 C408.87460953 355.60133452 411.74356782 355.61024559 414.61357117 355.59494019 C416.39559799 355.58575581 418.17784377 355.59450046 419.9596405 355.62457275 C427.58706863 355.59143475 433.1755431 353.16041584 439.50462341 349.02217102 C445.8396465 342.39919234 448.40576817 334.5918105 448.39506531 325.59587097 C448.39803643 324.81969929 448.40100755 324.04352761 448.40406871 323.24383557 C448.41276248 320.63461754 448.41426455 318.02544536 448.41575623 315.41621399 C448.42038403 313.54862367 448.42540863 311.68103431 448.43080139 309.81344604 C448.44393355 304.73260328 448.45037228 299.65177374 448.45481205 294.57091665 C448.45774227 291.39601685 448.46184704 288.22112067 448.46631622 285.04622269 C448.47999508 275.11126785 448.48965908 265.17632128 448.49351811 255.24135768 C448.49799594 243.77624301 448.51552947 232.31124773 448.54451871 220.84616935 C448.56614965 211.98319406 448.5762232 203.12025231 448.57755923 194.25725091 C448.57860651 188.96460961 448.58449762 183.67208049 448.60237885 178.37946701 C448.61888324 173.39723039 448.62100349 168.41518996 448.61223984 163.43293571 C448.61147066 161.6080682 448.61579645 159.78319004 448.62569809 157.95834923 C448.76680488 141.97157294 448.76680488 141.97157294 441.91087341 127.78388977 C435.52234334 121.47069614 428.53492055 119.01996444 419.77531433 119.0269165 C418.80238587 119.02563487 418.80238587 119.02563487 417.80980229 119.02432734 C415.63871187 119.02268161 413.46769889 119.02817903 411.2966156 119.03364563 C409.73939516 119.03392772 408.18217459 119.03376933 406.62495422 119.03320312 C402.39804153 119.03291602 398.17115717 119.03879883 393.94425106 119.04577708 C389.52665284 119.05202496 385.10905398 119.05261556 380.69145203 119.05380249 C372.32632749 119.05691157 363.96121601 119.06511926 355.59609723 119.07515198 C346.07260825 119.08632625 336.54911865 119.09182688 327.02562475 119.09684741 C307.43528368 119.10730221 287.84495437 119.12489348 268.25462341 119.14717102 Z " fill="#57A4FF" transform="translate(47.74537658691406,34.85282897949219)"/>
<path d="M0 0 C0.66 0.02191406 1.32 0.04382813 2 0.06640625 C2.66 0.06511719 3.32 0.06382812 4 0.0625 C6.85932489 0.87226975 8.04734342 2.41326208 10 4.62890625 C11.21528625 7.04266357 11.21528625 7.04266357 12.2355957 9.77246094 C12.62786346 10.80566467 13.02013123 11.83886841 13.42428589 12.90338135 C14.04377609 14.5850943 14.04377609 14.5850943 14.67578125 16.30078125 C15.11810089 17.47493591 15.56042053 18.64909058 16.0161438 19.85882568 C17.21112031 23.03706295 18.39641321 26.21859163 19.57746506 29.40200806 C20.80613073 32.70654069 22.04732493 36.00635909 23.28735352 39.30664062 C25.51449385 45.23923172 27.73164316 51.17549151 29.9438982 57.11364746 C32.47472181 63.90582864 35.0204056 70.69240461 37.56761169 77.47845459 C39.10422297 81.57259242 40.63930045 85.66726399 42.16723633 89.76464844 C42.44151962 90.49891052 42.71580292 91.23317261 42.99839783 91.98968506 C43.53049029 93.41513208 44.06118493 94.84110181 44.59034729 96.26763916 C45.98804192 100.01461424 47.44024272 103.73097194 48.96142578 107.4296875 C49.28651627 108.23079956 49.61160675 109.03191162 49.94654846 109.8572998 C50.56771887 111.38207933 51.19985386 112.9024603 51.84532166 114.41711426 C53.8577843 119.38447475 54.47144594 123.26178553 54 128.62890625 C51.9375 131.69140625 51.9375 131.69140625 49 133.62890625 C45.59545615 133.62890625 43.2170164 133.54801812 40.4440918 131.45385742 C38.47040948 128.9596435 37.60007977 126.41873732 36.51953125 123.4296875 C36.12096924 122.34083252 35.72240723 121.25197754 35.31176758 120.13012695 C34.81700928 118.74784912 34.32225098 117.36557129 33.8125 115.94140625 C32.224375 111.54828125 30.63625 107.15515625 29 102.62890625 C11.18 102.29890625 -6.64 101.96890625 -25 101.62890625 C-25.99 104.92890625 -26.98 108.22890625 -28 111.62890625 C-28.91062736 114.58015514 -29.8395134 117.51172482 -30.8125 120.44140625 C-31.03486328 121.16521484 -31.25722656 121.88902344 -31.48632812 122.63476562 C-33.26776542 127.9211446 -35.33235492 130.51917139 -40 133.62890625 C-43.95344762 133.78704415 -45.42681264 133.11391094 -48.4375 130.56640625 C-50.53662598 126.62004942 -49.97830682 123.8302808 -49 119.62890625 C-47.44638345 114.79669619 -45.63408847 110.07139686 -43.8125 105.3359375 C-43.27616027 103.92202569 -42.74062555 102.50780828 -42.20584106 101.0933075 C-40.77604539 97.31803459 -39.33557648 93.54692283 -37.89267731 89.77664185 C-36.40185397 85.87666174 -34.91972269 81.97338239 -33.43701172 78.0703125 C-31.65332215 73.37630337 -29.86879499 68.68262251 -28.07980347 63.9906311 C-24.55851094 54.75270587 -21.07428519 45.50239487 -17.6328125 36.234375 C-16.85172175 34.1375546 -16.07047826 32.0407911 -15.2890625 29.9440918 C-14.2159659 27.06457824 -13.14538481 24.18429219 -12.08398438 21.30044556 C-11.12941461 18.7088292 -10.16370567 16.12163249 -9.1953125 13.53515625 C-8.92663361 12.7956926 -8.65795471 12.05622894 -8.38113403 11.2943573 C-4.66832402 1.46796908 -4.66832402 1.46796908 0 0 Z " fill="#58A4FF" transform="translate(352,205.37109375)"/>
<path d="M0 0 C2.89628269 2.0407525 4.7460816 3.60196981 5.39819336 7.19238281 C5.49215596 9.74999888 5.43640126 12.25632169 5.3125 14.8125 C5.28994141 15.69615234 5.26738281 16.57980469 5.24414062 17.49023438 C5.18547428 19.6608891 5.09579979 21.8306669 5 24 C5.55266037 23.98889694 6.10532074 23.97779388 6.67472839 23.96635437 C12.43345965 23.85562731 18.19188796 23.78027816 23.95141602 23.7253418 C26.09997849 23.70021715 28.24845565 23.66611139 30.39672852 23.62280273 C33.48735612 23.56206208 36.57685263 23.53376956 39.66796875 23.51171875 C40.62648239 23.48591232 41.58499603 23.4601059 42.57255554 23.43351746 C47.18629746 23.43158265 49.31061715 23.48701248 53.10668945 26.31176758 C55 29 55 29 55.625 32.5 C55 36 55 36 53.25 38.875 C49.50276969 41.32511213 48.49309005 41.02478573 44.1875 40.8125 C40.96751971 40.80031404 40.96751971 40.80031404 38 42 C34.85880048 46.26852896 32.98141111 50.88451327 30.96533203 55.76269531 C29.44776078 59.2798989 27.6323271 62.6044383 25.75 65.9375 C25.38890137 66.58211182 25.02780273 67.22672363 24.65576172 67.89086914 C20.01546025 75.97799531 14.49843993 83.48267434 9 91 C18.91779429 104.56931858 18.91779429 104.56931858 33.0625 113 C36.0904863 113.22281479 36.0904863 113.22281479 38.8125 111.5625 C42.95167061 109.5334948 46.46614003 109.08806612 51 110 C54.06862356 112.54471222 54.84823663 114.08941981 55.5 118 C54.8486937 121.90783778 53.9157461 123.29760117 51 126 C43.63025641 130.02969466 35.93540512 132.58659783 27.57421875 130.3515625 C14.89466643 125.73723086 6.19469666 115.43012274 -3 106 C-5.30010129 108.29219717 -7.59853488 110.58328936 -9.8515625 112.921875 C-15.19724558 118.43240293 -20.99255487 123.23093172 -27 128 C-28.10601562 128.94166016 -28.10601562 128.94166016 -29.234375 129.90234375 C-32.50073184 132.59265704 -34.45443568 133.89828462 -38.6875 134.6875 C-42.98692201 133.79516713 -44.48381331 132.58365982 -47 129 C-47.625 125.5 -47.625 125.5 -47 122 C-43.67640351 118.30511886 -39.90012539 115.20130037 -36.0625 112.0625 C-28.57025497 105.84539111 -21.78623157 98.96936825 -15 92 C-15.53729736 91.1941748 -15.53729736 91.1941748 -16.08544922 90.37207031 C-17.06012376 88.90987397 -18.03412816 87.4472309 -19.0078125 85.984375 C-20.51885925 83.72076772 -22.03492381 81.46086707 -23.5546875 79.203125 C-24.45312959 77.86458641 -25.35156708 76.52604474 -26.25 75.1875 C-26.68618652 74.54159912 -27.12237305 73.89569824 -27.57177734 73.23022461 C-33.84380004 63.87094317 -33.84380004 63.87094317 -33 57 C-30.54999553 53.61322911 -29.13607554 52.21301416 -25 51.4375 C-20.42919608 52.29452573 -17.89702166 54.76974351 -15.19140625 58.48046875 C-14.65386719 59.37378906 -14.11632812 60.26710937 -13.5625 61.1875 C-12.97210938 62.14785156 -12.38171875 63.10820312 -11.7734375 64.09765625 C-11.18820313 65.05542969 -10.60296875 66.01320313 -10 67 C-8.90648488 68.71517098 -7.80322808 70.424195 -6.6875 72.125 C-6.21699219 72.84945312 -5.74648437 73.57390625 -5.26171875 74.3203125 C-4.08933758 76.14139297 -4.08933758 76.14139297 -2 77 C-1.71858154 76.41984131 -1.43716309 75.83968262 -1.1472168 75.24194336 C-0.06699431 73.13092334 1.10069423 71.13998322 2.35546875 69.12890625 C2.81373047 68.38833984 3.27199219 67.64777344 3.74414062 66.88476562 C4.68517642 65.37070398 5.62780888 63.85763318 6.57226562 62.34570312 C9.43957341 57.7047209 12.11300772 52.9931323 14.6887207 48.18334961 C15.31116165 47.02250351 15.9336026 45.86165741 16.5749054 44.66563416 C17.04518661 43.78597488 17.51546783 42.90631561 18 42 C17.08402542 41.99635437 16.16805084 41.99270874 15.22431946 41.98895264 C6.58728341 41.95106811 -2.04937521 41.89421012 -10.68614483 41.81609726 C-15.12630874 41.77660712 -19.56627388 41.74442629 -24.0065918 41.72900391 C-28.29270619 41.71384727 -32.57827417 41.67941989 -36.86414528 41.63169098 C-38.49833232 41.61686683 -40.13259737 41.60895839 -41.76685143 41.60811615 C-44.05829322 41.60574773 -46.34822343 41.57868138 -48.6394043 41.54589844 C-49.94290329 41.53701599 -51.24640228 41.52813354 -52.58940125 41.51898193 C-56.54818235 40.91658452 -58.20737833 39.81879532 -61 37 C-62.15396814 33.99968284 -62.12583833 32.48047363 -61.3125 29.375 C-59.82105001 26.67618573 -58.6008491 25.62387921 -56 24 C-53.84857178 23.63923645 -53.84857178 23.63923645 -51.50683594 23.65942383 C-50.18591949 23.65976372 -50.18591949 23.65976372 -48.83831787 23.66011047 C-47.42561615 23.68333626 -47.42561615 23.68333626 -45.984375 23.70703125 C-45.01340881 23.71127609 -44.04244263 23.71552094 -43.04205322 23.71989441 C-39.94441869 23.73667147 -36.84743751 23.77432228 -33.75 23.8125 C-31.6484469 23.82754808 -29.5468836 23.84123627 -27.4453125 23.85351562 C-22.29662371 23.88657189 -17.14842259 23.93834792 -12 24 C-12.03480469 22.75863281 -12.06960937 21.51726562 -12.10546875 20.23828125 C-12.13361584 18.59636774 -12.16091501 16.95443954 -12.1875 15.3125 C-12.21263672 14.49587891 -12.23777344 13.67925781 -12.26367188 12.83789062 C-12.32170486 8.05984178 -12.14903871 4.86576907 -9 1 C-5.86128812 -0.56935594 -3.46144178 -0.35201103 0 0 Z " fill="#56A4FF" transform="translate(161,103)"/>
<path d="M0 0 C2.19847913 2.19847913 2.78478385 3.68150387 3.86352539 6.56982422 C4.22052017 7.51775848 4.57751495 8.46569275 4.94532776 9.44235229 C5.32559616 10.46942291 5.70586456 11.49649353 6.09765625 12.5546875 C6.49198349 13.60778107 6.88631073 14.66087463 7.29258728 15.74588013 C8.12642436 17.97594768 8.9576158 20.20700595 9.78637695 22.43896484 C11.05546977 25.85607069 12.33266848 29.27005775 13.61132812 32.68359375 C14.41975022 34.8487794 15.22770837 37.01413835 16.03515625 39.1796875 C16.41744888 40.20270966 16.79974152 41.22573181 17.19361877 42.27975464 C17.5474614 43.23399323 17.90130402 44.18823181 18.26586914 45.17138672 C18.57738419 46.00918671 18.88889923 46.84698669 19.20985413 47.71017456 C19.92091472 49.77081259 20.4713037 51.88521479 21 54 C7.47 54 -6.06 54 -20 54 C-19.18194929 49.09169575 -18.0248293 44.9992659 -16.234375 40.43359375 C-15.95909973 39.71824966 -15.68382446 39.00290558 -15.40020752 38.2658844 C-14.52211975 35.98766082 -13.63623782 33.71256385 -12.75 31.4375 C-12.17004911 29.93705131 -11.59061759 28.43640177 -11.01171875 26.93554688 C-9.8820929 24.00874893 -8.74829844 21.08362006 -7.61132812 18.15966797 C-6.56261044 15.45961944 -5.52451507 12.75594729 -4.49804688 10.04736328 C-3.82612305 8.2778833 -3.82612305 8.2778833 -3.140625 6.47265625 C-2.5532959 4.91623413 -2.5532959 4.91623413 -1.95410156 3.32836914 C-1 1 -1 1 0 0 Z " fill="#98C7FF" transform="translate(354,237)"/>
</svg>
