<?xml version="1.0" encoding="UTF-8"?>
<svg version="1.1" xmlns="http://www.w3.org/2000/svg" width="512" height="512">
<path d="M0 0 C0.81597656 0.75410156 1.63195312 1.50820313 2.47265625 2.28515625 C4.9458695 4.34347616 4.9458695 4.34347616 8.28125 3.76953125 C9.5084375 3.51558594 10.735625 3.26164062 12 3 C28.86462835 1.63159814 45.07888836 4.33066396 58.65234375 15.10546875 C61.19342645 17.32557258 63.61226297 19.61635156 66 22 C66.6496875 22.63808594 67.299375 23.27617188 67.96875 23.93359375 C74.23961813 30.54825947 78.316595 38.56827975 80.3125 47.4375 C81.0942583 50.32540712 81.52333369 51.62729795 83.8984375 53.484375 C85.44428063 54.29686593 87.01076896 55.07106849 88.59375 55.80859375 C94.4926589 58.72931975 98.45735135 62.7447013 101.15722656 68.67236328 C103.38553649 72.05038172 104.48334758 72.88005539 108.48059082 73.80804443 C113.08346122 74.21096337 117.68283085 74.08890498 122.296875 73.9921875 C124.01312307 73.99022074 125.72938131 73.99266174 127.44561768 73.9992981 C131.96019767 74.00691961 136.47276323 73.96351147 140.98693848 73.90667725 C148.19592365 73.8240295 155.40528217 73.81734122 162.61466217 73.81363297 C165.11975488 73.80486982 167.62375455 73.77349856 170.12860107 73.73849487 C185.02855095 73.60512591 195.19072273 76.49842276 206.25 86.75 C214.97739293 95.85986832 217.30863021 106.93284365 217.26742554 119.14447021 C217.27195665 120.1392256 217.27648776 121.13398098 217.28115618 122.15888047 C217.2937735 125.47803842 217.29218152 128.79703172 217.29052734 132.11621094 C217.29651426 134.50183319 217.30332018 136.88745351 217.31088257 139.27307129 C217.32670134 145.07263334 217.33299025 150.87214579 217.33410732 156.67172834 C217.33505978 161.3892132 217.33917993 166.10668471 217.34550858 170.82416534 C217.36310997 184.21847591 217.37234921 197.6127545 217.37084763 211.00707671 C217.37076772 211.72822772 217.3706878 212.44937874 217.37060547 213.19238281 C217.37052371 213.91442108 217.37044195 214.63645935 217.37035771 215.38037756 C217.36954518 227.07623045 217.38867726 238.77195445 217.4168822 250.46777007 C217.44565822 262.49594244 217.4594199 274.52405204 217.45769465 286.55225968 C217.45703236 293.29754729 217.46245361 300.04269977 217.48405075 306.78795624 C217.5034572 313.13442989 217.5035408 319.48061879 217.48901749 325.82710266 C217.48693129 328.15060595 217.49161888 330.47412718 217.5037384 332.79759979 C217.58410807 349.27865588 217.07087476 363.25628662 205.1875 375.93359375 C194.61446029 385.84581848 182.75935329 388.32667972 168.69702148 388.22705078 C167.05645027 388.22748886 167.05645027 388.22748886 165.38273621 388.22793579 C161.79543917 388.22655105 158.20835416 388.21103015 154.62109375 388.1953125 C152.12289035 388.19157933 149.62468549 388.18873379 147.1264801 388.18673706 C141.24060977 388.17990113 135.35481675 388.164165 129.46897799 388.14403808 C122.10368103 388.11940399 114.73837454 388.10872964 107.37304688 388.09765625 C94.24865238 388.0762484 81.12434767 388.04108568 68 388 C68 399.88 68 411.76 68 424 C71.47015625 423.95359375 74.9403125 423.9071875 78.515625 423.859375 C81.91144349 423.8280965 85.30724535 423.80385594 88.703125 423.78027344 C91.04629815 423.76027389 93.38942214 423.73306523 95.73242188 423.69824219 C99.11861371 423.64920875 102.50414041 423.62691379 105.890625 423.609375 C106.92237854 423.58872986 107.95413208 423.56808472 109.01715088 423.54681396 C121.11813355 423.54315845 131.10540749 427.1839336 139.71484375 435.6953125 C145.31338331 441.80032141 147.46848193 447.72046773 147.43359375 455.98046875 C147.4388356 456.71574295 147.44407745 457.45101715 147.44947815 458.20857239 C147.45585913 459.75060775 147.45461262 461.29269204 147.44604492 462.8347168 C147.43748323 465.19211734 147.46642846 467.54713189 147.49804688 469.90429688 C147.49965793 471.40885344 147.49908318 472.91341429 147.49609375 474.41796875 C147.50732773 475.11907272 147.51856171 475.8201767 147.53013611 476.54252625 C147.48431966 479.75526045 147.29727885 481.61892397 145.29543686 484.18504667 C142.5323531 486.3697585 141.25583957 486.50090434 137.77130127 486.50336456 C136.70685162 486.51379555 135.64240196 486.52422654 134.54569626 486.53497362 C132.7929936 486.52158929 132.7929936 486.52158929 131.00488281 486.50793457 C129.76288746 486.51417453 128.52089211 486.5204145 127.24126053 486.52684355 C123.79163494 486.5400569 120.34287799 486.53527651 116.89330482 486.52289867 C113.17407842 486.51386365 109.45492898 486.52781018 105.73571777 486.53881836 C98.44898771 486.55662481 91.16242226 486.55275419 83.87568569 486.5411678 C77.95474837 486.53214208 72.03385726 486.53090573 66.11291504 486.53526306 C64.84989559 486.53618246 64.84989559 486.53618246 63.5613606 486.53712043 C61.85094164 486.53839931 60.1405227 486.53969616 58.43010378 486.5410108 C42.38343367 486.55242282 26.33685489 486.53929315 10.29019976 486.51780933 C-3.48496466 486.49993777 -17.25999426 486.50304171 -31.03515625 486.52148438 C-47.02356309 486.54288012 -63.01188984 486.55132413 -79.00030899 486.53903532 C-80.70451099 486.53776109 -82.40871301 486.53650361 -84.11291504 486.53526306 C-84.95146176 486.53464596 -85.79000848 486.53402886 -86.65396571 486.53339306 C-92.56925675 486.52993626 -98.48449708 486.53577558 -104.39978027 486.54518127 C-111.6064729 486.55638827 -118.81299121 486.55338873 -126.01966381 486.5320583 C-129.69816878 486.52153021 -133.3763829 486.51745562 -137.05488586 486.53065491 C-141.03838344 486.54473263 -145.02140249 486.52794815 -149.00488281 486.50793457 C-150.75758547 486.5213189 -150.75758547 486.5213189 -152.54569626 486.53497362 C-153.61014591 486.52454263 -154.67459557 486.51411164 -155.77130127 486.50336456 C-156.69109394 486.50271515 -157.61088661 486.50206574 -158.55855179 486.50139666 C-161.79272657 485.8371989 -162.98871892 484.57171885 -165 482 C-165.41127933 479.36593001 -165.58528215 477.15583057 -165.56640625 474.5234375 C-165.57260483 473.7981485 -165.57880341 473.0728595 -165.58518982 472.32559204 C-165.59228302 470.79080543 -165.5891225 469.25594181 -165.57641602 467.72119141 C-165.56266298 465.40247797 -165.59648024 463.08789674 -165.63476562 460.76953125 C-165.6905247 450.11897378 -163.98783879 442.34610489 -156.8125 434.1875 C-147.51361772 425.59768282 -136.53798888 423.68600582 -124.37890625 423.8046875 C-122.72905983 423.80893234 -122.72905983 423.80893234 -121.04588318 423.81326294 C-117.55130897 423.8244102 -114.05699606 423.84950502 -110.5625 423.875 C-108.18555059 423.88503684 -105.80859714 423.89416146 -103.43164062 423.90234375 C-97.62091338 423.92262552 -91.81074737 423.96178537 -86 424 C-86 412.12 -86 400.24 -86 388 C-89.3299707 388.01571045 -92.65994141 388.0314209 -96.09082031 388.04760742 C-107.12292216 388.09743312 -118.15502913 388.1305008 -129.1872139 388.15543652 C-135.87259364 388.17085603 -142.55785044 388.19223051 -149.24316406 388.22631836 C-155.70115031 388.25903906 -162.15902553 388.27687986 -168.61708832 388.28463173 C-171.07450863 388.29015244 -173.53192322 388.30093279 -175.98929596 388.31719017 C-179.4451435 388.33913313 -182.90053874 388.34195986 -186.35644531 388.34057617 C-187.86265442 388.35675491 -187.86265442 388.35675491 -189.39929199 388.3732605 C-202.59923749 388.31648967 -213.37647032 384.77791632 -223.2890625 375.96484375 C-230.21746041 368.81587887 -235.10957525 358.82910187 -235.13422108 348.73348331 C-235.13867892 347.88358769 -235.14313676 347.03369206 -235.14772969 346.15804201 C-235.14745315 344.76473332 -235.14745315 344.76473332 -235.14717102 343.34327698 C-235.15084771 342.35264486 -235.1545244 341.36201274 -235.1583125 340.34136146 C-235.16935116 337.01215568 -235.17319355 333.68298111 -235.17700195 330.35375977 C-235.1832666 327.97035116 -235.1899134 325.58694354 -235.19691467 323.20353699 C-235.21614416 316.04305021 -235.22674462 308.88256287 -235.23564246 301.72205749 C-235.24002941 298.34613145 -235.24539528 294.97020696 -235.25063133 291.59428215 C-235.26764436 280.36421948 -235.28213598 269.13415778 -235.28938007 257.90408421 C-235.29128983 254.990825 -235.29321018 252.07756581 -235.29516602 249.16430664 C-235.29564976 248.44026868 -235.2961335 247.71623072 -235.2966319 246.97025221 C-235.30492261 235.25542736 -235.33024293 223.54070494 -235.36274669 211.82592476 C-235.39588028 199.78545119 -235.41383464 187.74502954 -235.41702431 175.70451015 C-235.41918394 168.94962045 -235.42785158 162.19487998 -235.45348549 155.44003487 C-235.47681708 149.07967076 -235.48097876 142.71957441 -235.47072411 136.35917854 C-235.47022984 134.03125618 -235.47651795 131.70332042 -235.49028015 129.37543869 C-235.65603736 99.66229755 -235.65603736 99.66229755 -225 88 C-224.49855469 87.39671875 -223.99710938 86.7934375 -223.48046875 86.171875 C-217.72631332 79.73170104 -209.54478112 75.31164015 -201 74 C-198.45534618 73.93893477 -195.94178439 73.92730108 -193.39916992 73.96923828 C-191.84824506 73.98533388 -190.29731603 74.00103208 -188.74638367 74.01638794 C-187.9293717 74.02592625 -187.11235973 74.03546455 -186.27058983 74.0452919 C-181.01191851 74.09709066 -175.7529146 74.09106383 -170.49402905 74.09665108 C-165.87997949 74.10487081 -161.26761614 74.13271098 -156.65405273 74.20214844 C-152.18011183 74.26834899 -147.70885557 74.28060313 -143.23452187 74.25689316 C-141.5356593 74.25750169 -139.83668355 74.27747963 -138.13829613 74.31766129 C-128.53706944 74.77718314 -128.53706944 74.77718314 -120.3031311 70.60955811 C-118.17037029 67.75244118 -118.17037029 67.75244118 -116.61103821 64.75875854 C-114.37193468 60.92449443 -111.36723617 58.85282949 -107.78515625 56.33984375 C-105.86830168 55.10902045 -105.86830168 55.10902045 -105 53 C-104.7299345 51.08605754 -104.48398627 49.16868745 -104.25 47.25 C-101.30035684 27.74360073 -91.57880907 12.85760539 -76.2734375 0.86328125 C-53.2092279 -14.81902056 -23.48096352 -13.63127096 0 0 Z M-70.8203125 18.9765625 C-82.16572768 29.50868627 -86.97091203 42.45906266 -88.12304688 57.63085938 C-88.19458984 58.40623047 -88.26613281 59.18160156 -88.33984375 59.98046875 C-88.39519287 60.68067139 -88.45054199 61.38087402 -88.50756836 62.10229492 C-89.5312813 66.0474217 -93.02549143 67.72897228 -96.3125 69.75 C-102.59500697 73.88726069 -108.3508889 79.3762405 -110 87 C-110.98913141 96.01208616 -110.52474911 103.58655758 -105 111 C-99.31543766 117.32218435 -93.40671981 121.52820241 -84.77362251 122.28153801 C-80.75645576 122.39761351 -76.74906751 122.41749302 -72.73071289 122.40405273 C-71.18750008 122.40976201 -69.64429148 122.41672842 -68.10108948 122.42485046 C-63.92747697 122.44273527 -59.75407525 122.44162238 -55.58043599 122.43590808 C-52.08898144 122.43280951 -48.59756698 122.43891607 -45.10611814 122.44494683 C-36.86604002 122.45897501 -28.62606562 122.45744493 -20.38598633 122.44604492 C-11.90053906 122.43456448 -3.41540789 122.44864195 5.06999773 122.4754414 C12.37047415 122.49763055 19.67085158 122.50422857 26.97135931 122.49836498 C31.32498184 122.49500199 35.67840177 122.49736659 40.03199577 122.51461601 C44.12714206 122.53013458 48.22182166 122.52607563 52.31694984 122.50731087 C53.81446624 122.50363856 55.31201759 122.50669366 56.80950165 122.51719666 C68.19242143 122.59090098 76.72968963 121.04321361 85.203125 113.02734375 C91.24380773 106.2118778 92.85423474 99.41934427 92.47265625 90.3984375 C91.27463385 81.78455745 87.01520085 76.15432868 80.41796875 70.6953125 C76.5410969 67.97711802 71.86941207 65 67 65 C66.65388672 63.31583984 66.65388672 63.31583984 66.30078125 61.59765625 C63.18855687 47.05661624 58.25447661 35.77356732 45.8125 26.6875 C35.49534605 20.34527694 23.45898329 18.21984047 11.55078125 20.4609375 C9.6937968 20.94905913 7.84618958 21.47251726 6 22 C2.16942367 22.43315781 0.4933345 22.31714361 -2.7890625 20.20703125 C-3.72492188 19.41683594 -4.66078125 18.62664063 -5.625 17.8125 C-25.27949116 2.13986998 -51.73073374 2.5705028 -70.8203125 18.9765625 Z M-190 119 C-190 183.35 -190 247.7 -190 314 C-70.54 314 48.92 314 172 314 C172 249.65 172 185.3 172 119 C148.9 119 125.8 119 102 119 C99.36 121.97 96.72 124.94 94 128 C91.27734375 130.0859375 91.27734375 130.0859375 88.9375 131.375 C87.67679687 132.07302734 87.67679687 132.07302734 86.390625 132.78515625 C79.06695327 136.50682604 73.00415412 138.10530384 64.73120117 138.20532227 C64.00700894 138.21535499 63.28281672 138.22538771 62.53667927 138.23572445 C60.20547436 138.2669666 57.87425236 138.29182129 55.54296875 138.31640625 C54.09850529 138.33482289 52.65404713 138.35366027 51.20959473 138.3729248 C45.8689592 138.44121142 40.52822221 138.50136719 35.1875 138.5625 C23.245625 138.706875 11.30375 138.85125 -1 139 C-1 183.55 -1 228.1 -1 274 C25.73 274 52.46 274 80 274 C76.58333176 269.44444235 73.2196317 265.00357094 69.61157227 260.6237793 C55.71114265 243.68712511 43.62649818 224.65356247 45.21484375 201.92578125 C47.17384922 187.6530271 53.79184175 174.91606202 64.875 165.625 C76.87997565 156.68978982 90.04297578 152.92585056 105 154 C106.30324219 154.08701172 106.30324219 154.08701172 107.6328125 154.17578125 C120.58677255 155.78052555 133.53833514 163.31143675 141.8515625 173.203125 C152.15425376 186.79390922 154.17093421 201.50291259 153 218 C152.22821501 222.35050774 150.8927209 226.01728869 149 230 C148.72623535 230.58056152 148.4524707 231.16112305 148.17041016 231.75927734 C143.75828827 240.95418718 138.38521353 249.02980439 132 257 C131.06414062 258.2065625 131.06414062 258.2065625 130.109375 259.4375 C124.52475515 266.57079595 118.54344597 273.36755898 112.57714844 280.18115234 C111.48696309 281.43840944 110.40751707 282.70503033 109.33691406 283.97900391 C108.80549805 284.61112793 108.27408203 285.24325195 107.7265625 285.89453125 C107.25041504 286.4666333 106.77426758 287.03873535 106.28369141 287.62817383 C103.96366141 290.10749079 102.777722 290.0079976 99.26957989 290.13422108 C97.60948479 290.1436945 95.94935243 290.14752595 94.28923035 290.14717102 C93.3763336 290.15084771 92.46343685 290.1545244 91.52287656 290.1583125 C88.44517709 290.16937945 85.36751134 290.17319825 82.28979492 290.17700195 C80.09074292 290.18326427 77.89169198 290.18991086 75.69264221 290.19691467 C69.70501626 290.21434462 63.71739831 290.22488161 57.72975326 290.2331202 C53.99189028 290.23826553 50.25402981 290.24434143 46.51616859 290.25063133 C35.50063299 290.26859418 24.48510199 290.28297319 13.46955432 290.29080774 C11.4532543 290.29224625 9.43695429 290.29369762 7.4206543 290.29516602 C6.75319914 290.29564976 6.08574399 290.2961335 5.39806292 290.2966319 C-5.4169838 290.30493419 -16.23191999 290.33027432 -27.04691843 290.36274669 C-38.1471162 290.39580405 -49.24726791 290.41349473 -60.34751624 290.41702431 C-66.5812824 290.41937932 -72.81487387 290.42839836 -79.04859352 290.45348549 C-84.91152288 290.47669886 -90.77416168 290.48102653 -96.63712502 290.47072411 C-98.79102543 290.47022701 -100.94493983 290.47659823 -103.09879684 290.49028015 C-106.03564272 290.50789455 -108.97143401 290.50094434 -111.90827942 290.48774719 C-112.76392339 290.49871644 -113.61956736 290.50968568 -114.50113994 290.52098733 C-118.49918681 290.47750608 -120.49236189 290.32495743 -123.93664074 288.12015057 C-126.17545083 285.81972011 -128.20499977 283.46304908 -130.1875 280.9375 C-133.26816578 277.08412597 -136.43469952 273.40752237 -139.8125 269.8125 C-158.08340892 249.83933249 -172.19849284 228.16356047 -171.17919922 200.47021484 C-170.30127044 188.36819395 -163.76024194 176.30848058 -155 168 C-142.379555 157.52819707 -127.29730533 152.74010857 -111 154 C-97.57381695 155.80547694 -85.10640167 161.84217426 -76 172 C-66.37256361 184.7472617 -61.80741013 198.79358735 -63.46484375 214.77734375 C-66.85350742 235.18353011 -79.99838107 251.37650902 -92.79711914 266.84667969 C-93.32942139 267.49024414 -93.86172363 268.13380859 -94.41015625 268.796875 C-94.88590088 269.36760742 -95.36164551 269.93833984 -95.85180664 270.52636719 C-97.08981213 272.01549175 -97.08981213 272.01549175 -98 274 C-71.27 274 -44.54 274 -17 274 C-17 229.45 -17 184.9 -17 139 C-40.57385245 138.79016804 -40.57385245 138.79016804 -64.14794922 138.61206055 C-68.73657227 138.56213379 -68.73657227 138.56213379 -70.89358521 138.5349884 C-72.38059806 138.518977 -73.86767876 138.50859597 -75.35476685 138.50288391 C-90.58442996 138.43670977 -102.64396827 135.83783499 -114.39453125 125.625 C-116.42760875 123.5671892 -118.19291482 121.25885648 -120 119 C-143.1 119 -166.2 119 -190 119 Z M-130.4375 198.625 C-133.56259531 203.37514487 -133.58794943 207.39768188 -133 213 C-131.71586382 217.10768861 -129.38472522 220.05324735 -125.8125 222.4375 C-121.60463181 224.51890803 -117.59627416 224.79722985 -113 224 C-107.71628174 222.1522557 -104.5280273 218.95882278 -102 214 C-100.63969416 209.10289896 -100.88420445 205.52091853 -102.8671875 200.9296875 C-105.34062607 196.71631283 -108.51535191 193.83416372 -113.17578125 192.26953125 C-120.31419303 191.02431607 -125.58959559 193.40417986 -130.4375 198.625 Z M87.1875 197.625 C84.39979218 201.35737957 83.18619107 205.36141387 83 210 C84.64529625 215.80692793 87.62965957 220.02643983 92.89453125 223.109375 C97.27501458 224.96234383 101.85878027 224.86315605 106.2578125 223.08984375 C110.75073514 220.51180142 113.46149328 218.09630352 115 213 C115.64571256 207.98959747 115.58716608 204.21949878 113.375 199.625 C109.19565923 195.00572862 105.24348945 192.3816595 99.015625 191.90625 C93.99131435 192.13993887 90.76871825 194.28252963 87.1875 197.625 Z M-69 388 C-69 399.88 -69 411.76 -69 424 C-29.4 424 10.2 424 51 424 C51 412.12 51 400.24 51 388 C11.4 388 -28.2 388 -69 388 Z " fill="#57A4FF" transform="translate(265,18)"/>
<path d="M0 0 C1.02522011 -0.00021904 1.02522011 -0.00021904 2.07115173 -0.0004425 C4.31659181 0.00025078 6.56194757 0.00801565 8.80737305 0.01586914 C10.3696437 0.0177354 11.93191495 0.01915832 13.4941864 0.02015686 C17.59589264 0.02396567 21.69756318 0.03378193 25.79925537 0.04486084 C29.98880531 0.05511019 34.17836105 0.05966202 38.36791992 0.06469727 C46.58082688 0.07540572 54.79370489 0.09246242 63.0065918 0.11352539 C63.5015918 6.05352539 63.5015918 6.05352539 64.0065918 12.11352539 C63.12820145 12.11939163 62.2498111 12.12525787 61.34480286 12.13130188 C53.06099196 12.18923999 44.77745037 12.26132316 36.49390125 12.3492403 C32.23537404 12.39394056 27.97694242 12.43319734 23.71826172 12.45996094 C19.60727604 12.48599752 15.49665827 12.52640215 11.3859005 12.57671165 C9.8186978 12.59337803 8.25143147 12.60489376 6.6841526 12.6111393 C4.4863097 12.6207832 2.2894075 12.64884393 0.09179688 12.68115234 C-1.15840744 12.6922554 -2.40861176 12.70335846 -3.69670105 12.71479797 C-8.65044295 13.31393906 -10.95608234 14.8529377 -14.10586071 18.68063736 C-16.47782767 22.99454047 -16.55469921 26.05678172 -16.50134277 30.88771057 C-16.50758274 31.75910594 -16.5138227 32.63050132 -16.52025175 33.52830261 C-16.53617885 36.44183422 -16.52357862 39.3545289 -16.51098633 42.26806641 C-16.51640752 44.35933927 -16.52353017 46.45060831 -16.53222656 48.54187012 C-16.55046186 54.21738462 -16.54339169 59.89260828 -16.53071022 65.56812787 C-16.52058505 71.50619622 -16.52997444 77.44423963 -16.53625488 83.38230896 C-16.54353211 93.35322543 -16.53394094 103.32402339 -16.51489258 113.29492188 C-16.49311781 124.82619994 -16.50017942 136.35719519 -16.5221982 147.88846642 C-16.54034287 157.78669742 -16.54291524 167.68484322 -16.53244352 177.58308548 C-16.52620426 183.4959492 -16.52538508 189.40867991 -16.53858948 195.32153511 C-16.55013389 200.87923823 -16.54214773 206.43657618 -16.51901245 211.99423981 C-16.51371812 214.03524862 -16.51525146 216.07628811 -16.52406311 218.11728477 C-16.5349733 220.90071434 -16.5213098 223.68296938 -16.50134277 226.46632385 C-16.51026566 227.27643891 -16.51918855 228.08655398 -16.52838182 228.92121798 C-16.47934847 232.43839668 -16.19315595 234.78121688 -14.36665386 237.8198604 C-11.28313138 240.79998491 -9.76122016 240.73813886 -5.51811314 240.73714447 C-4.86666025 240.74381248 -4.21520736 240.75048049 -3.54401347 240.75735056 C-1.35137474 240.7736508 0.83949464 240.75418003 3.03208923 240.73498535 C4.61590857 240.73931248 6.19972319 240.74582678 7.78352553 240.75434542 C12.14323993 240.77138567 16.50238258 240.75712205 20.8620671 240.73783064 C25.56086415 240.72243957 30.25958948 240.73579623 34.95838928 240.74557495 C44.16654935 240.76012298 53.37448941 240.74784568 62.58262866 240.72646171 C73.30017333 240.70248361 84.01766724 240.70416414 94.73523278 240.70676762 C113.8555981 240.71046033 132.97585958 240.68961093 152.09619141 240.65551758 C170.65969467 240.62242927 189.22308893 240.60825822 207.78662109 240.61450195 C227.98782351 240.62126307 248.18898022 240.6188133 268.39017588 240.59914255 C269.45803425 240.59810307 270.52589262 240.59706358 271.62611033 240.59599259 C273.77100046 240.59390166 275.91589057 240.59179068 278.06078066 240.58965942 C285.53551368 240.58275787 293.01023264 240.58209551 300.48496819 240.58354187 C309.59213082 240.58498029 318.69920444 240.57531443 327.80633753 240.55159551 C332.455008 240.53971963 337.10355428 240.5326209 341.75223923 240.53843307 C346.00533246 240.54359359 350.25816299 240.53495684 354.51121122 240.51515847 C356.05221297 240.51040708 357.59324021 240.51073347 359.13423824 240.51656884 C361.22495857 240.52372258 363.31480178 240.51251617 365.40545559 240.49663544 C366.56788955 240.49506423 367.73032351 240.49349303 368.92798275 240.49187422 C372.36010187 240.07008041 374.249369 239.1668337 377.0065918 237.11352539 C378.61828104 233.8901469 378.15456018 230.36859695 378.15376282 226.8270874 C378.15927785 225.52617924 378.15927785 225.52617924 378.1649043 224.19899011 C378.17596956 221.27563921 378.17978978 218.35232382 378.18359375 215.42895508 C378.18985625 213.33989854 378.19650285 211.25084312 378.20350647 209.16178894 C378.2209359 203.47367326 378.23147349 197.78556601 378.239712 192.09743023 C378.24485794 188.54583018 378.25093384 184.99423277 378.25722313 181.44263458 C378.27628045 170.33676294 378.29051055 159.23089797 378.2988351 148.12501311 C378.30861112 135.29354027 378.33493802 122.46223977 378.37533599 109.63082767 C378.40546861 99.72079531 378.42030126 89.81081243 378.42361611 79.90073514 C378.42596982 73.97824801 378.43497204 68.05594488 378.46007729 62.13350677 C378.48331304 56.56194528 378.48760926 50.99068952 378.4773159 45.41909218 C378.47681934 43.37365262 378.48317508 41.32819825 378.49687195 39.28280449 C378.51452289 36.4908006 378.50751817 33.69990198 378.49433899 30.90789795 C378.50530824 30.09796725 378.51627748 29.28803655 378.52757913 28.4535625 C378.46791715 23.22029019 377.44078504 20.28231299 374.0065918 16.11352539 C370.06071966 12.95300193 366.90283641 12.72539257 361.92138672 12.68115234 C361.22815308 12.67096069 360.53491943 12.66076904 359.82067871 12.65026855 C357.54272295 12.62021604 355.26518823 12.61088489 352.98706055 12.60180664 C351.40235505 12.58495414 349.81766288 12.56680312 348.23298645 12.54740906 C344.07215538 12.49996469 339.91137833 12.47011953 335.75036621 12.44396973 C331.50037978 12.414136 327.25057936 12.36761536 323.00073242 12.32250977 C314.66944372 12.23654 306.33813799 12.16916678 298.0065918 12.11352539 C298.3365918 8.15352539 298.6665918 4.19352539 299.0065918 0.11352539 C308.10833667 0.02054664 317.20991621 -0.05038013 326.31203365 -0.0937233 C330.53924867 -0.11453356 334.76613701 -0.14272983 338.99316406 -0.18823242 C343.07806641 -0.23192626 347.16265598 -0.25566098 351.24777412 -0.26598358 C352.80060304 -0.273333 354.35341624 -0.28768416 355.90611076 -0.30939484 C367.22040448 -0.4612015 375.89977759 0.55426673 384.50268555 8.39868164 C388.54466488 13.00758795 391.12736478 19.04596864 391.13801956 25.17446327 C391.14186071 26.00393427 391.14570185 26.83340528 391.1496594 27.68801177 C391.14879291 28.59917986 391.14792643 29.51034795 391.14703369 30.4491272 C391.15149037 31.90127516 391.15149037 31.90127516 391.15603709 33.38275945 C391.16474015 36.64149347 391.16623371 39.90019082 391.16772461 43.15893555 C391.17235172 45.48957396 391.17737623 47.82021162 391.18276978 50.15084839 C391.19590779 56.49404766 391.20234169 62.83723634 391.20678043 69.1804471 C391.20970944 73.14264221 391.21381397 77.1048344 391.21828461 81.06702805 C391.23039634 92.04056733 391.24077693 103.01410408 391.2441597 113.98764992 C391.24437926 114.69007197 391.24459883 115.39249403 391.24482505 116.1162016 C391.24504333 116.82029579 391.24526161 117.52438998 391.2454865 118.24982035 C391.24592996 119.67655667 391.24637653 121.10329298 391.24682617 122.5300293 C391.2470476 123.23773831 391.24726903 123.94544733 391.24749717 124.67460208 C391.25144236 136.1335121 391.26888712 147.59235842 391.29218569 159.05124386 C391.31592166 170.82046398 391.32836262 182.58965217 391.32952762 194.35889661 C391.33057586 200.96497542 391.33648763 207.57096445 391.35434723 214.17702103 C391.37082641 220.39369271 391.37298402 226.61020711 391.36420822 232.82689285 C391.36343772 235.10650046 391.36778226 237.38611651 391.37766647 239.66570282 C391.39038684 242.78266262 391.38450827 245.89906551 391.37408447 249.01602173 C391.38616908 250.36269737 391.38616908 250.36269737 391.39849782 251.73657858 C391.32805059 260.77111503 389.13377986 267.76074215 382.91674805 274.38696289 C380.14343117 276.89372375 377.36117032 278.46912415 374.0065918 280.11352539 C373.3465918 280.44352539 372.6865918 280.77352539 372.0065918 281.11352539 C369.9452759 281.21227611 367.88068454 281.24455168 365.81700706 281.24774647 C365.1721374 281.2500987 364.52726774 281.25245093 363.86285657 281.25487444 C361.68112727 281.26158244 359.49945728 281.26110568 357.31771851 281.26069641 C355.74601927 281.26399393 354.17432088 281.26771926 352.60262358 281.27183789 C348.26718472 281.28187897 343.9317597 281.28557807 339.59631085 281.2882272 C334.92675005 281.29212408 330.25720027 281.3017029 325.58764648 281.31044006 C314.30173033 281.33022305 303.01581325 281.34027349 291.72988409 281.34916785 C286.41819509 281.35354818 281.10650709 281.35891569 275.79481888 281.36415672 C258.1422083 281.38117164 240.48959834 281.3956661 222.83698082 281.40290546 C218.25370661 281.40481544 213.6704324 281.40673576 209.0871582 281.40869141 C207.37838017 281.40941702 207.37838017 281.40941702 205.63508137 281.41015729 C187.17864898 281.41845857 168.72228138 281.44379599 150.26587729 281.47627208 C131.3267662 281.50932641 112.38768805 281.5273528 93.44854796 281.53054971 C82.81103922 281.53271642 72.17362493 281.54148863 61.53614426 281.56701088 C52.4769701 281.58869575 43.41791334 281.59677924 34.35871617 281.5870441 C29.73596115 281.58249283 25.11344842 281.58443353 20.49072647 281.60380554 C16.25771508 281.62139128 12.02512358 281.62047695 7.79210801 281.60490825 C6.26174786 281.60252517 4.73135898 281.606892 3.20104282 281.6187369 C-6.03769807 281.68580965 -12.66705206 281.2426298 -20.20043945 275.40258789 C-27.9170256 267.40437451 -29.1427663 260.27740998 -29.14057922 249.53741455 C-29.14425591 248.56760706 -29.1479326 247.59779956 -29.1517207 246.59860396 C-29.1627415 243.34608543 -29.16659865 240.09359885 -29.17041016 236.84106445 C-29.17667593 234.51013081 -29.18332283 232.17919816 -29.19032288 229.8482666 C-29.21134896 222.19190159 -29.22172267 214.5355364 -29.23168945 206.87915039 C-29.2357373 204.24285624 -29.23985423 201.60656219 -29.24403954 198.97026825 C-29.26090474 188.00522784 -29.27554027 177.04018949 -29.28278828 166.07513809 C-29.28469804 163.23213957 -29.2866184 160.38914106 -29.28857422 157.54614258 C-29.28905796 156.83956456 -29.2895417 156.13298655 -29.2900401 155.40499708 C-29.29834032 143.95912664 -29.3236796 132.51336071 -29.3561549 121.06753591 C-29.38924947 109.30729301 -29.4072391 97.5471032 -29.41043252 85.7868135 C-29.41278362 79.18743892 -29.42175254 72.58822968 -29.44689369 65.98889923 C-29.47016453 59.78037586 -29.4744114 53.57212684 -29.46413231 47.36357117 C-29.46363663 45.08718198 -29.46996632 42.81077934 -29.48368835 40.53443146 C-29.50139918 37.42181642 -29.49430449 34.31018689 -29.4811554 31.1975708 C-29.49212464 30.30115128 -29.50309389 29.40473176 -29.51439553 28.481148 C-29.42699577 19.88585718 -26.45196754 12.94957735 -20.6340332 6.61743164 C-14.48221781 0.97826753 -8.10566445 -0.0146048 0 0 Z " fill="#9AC8FF" transform="translate(74.993408203125,107.886474609375)"/>
<path d="M0 0 C1.51006249 -0.00679667 1.51006249 -0.00679667 3.05063128 -0.01373065 C6.42212693 -0.02638535 9.79346126 -0.02475356 13.16497803 -0.02310181 C15.58310657 -0.02908641 18.00123319 -0.0358918 20.4193573 -0.04345703 C26.30541545 -0.05929602 32.19143582 -0.06556577 38.07751092 -0.06668179 C42.86418736 -0.06763322 47.65085062 -0.07174825 52.43752289 -0.07808304 C66.01979357 -0.09569126 79.60203269 -0.10492268 93.18431488 -0.10342209 C93.91608313 -0.10334218 94.64785138 -0.10326227 95.40179443 -0.10317993 C96.13446017 -0.10309817 96.8671259 -0.10301641 97.62199363 -0.10293217 C109.49068694 -0.10211961 121.35925325 -0.12125087 133.22790983 -0.14945666 C145.42551097 -0.17821455 157.62305022 -0.19199533 169.8206861 -0.19026911 C176.66430765 -0.18960617 183.50779608 -0.1950564 190.35138702 -0.21662521 C196.7897271 -0.23678728 203.22785897 -0.23613361 209.6662159 -0.22159195 C212.02603376 -0.21950238 214.38586919 -0.22421353 216.74565697 -0.23631287 C219.97391431 -0.2517898 223.20120623 -0.24244013 226.42944336 -0.22705078 C227.821208 -0.24248147 227.821208 -0.24248147 229.24108911 -0.25822389 C237.65741905 -0.16991774 245.87687389 2.17561046 251.96868896 8.26742554 C253.96868896 12.26742554 253.96868896 12.26742554 253.96868896 30.26742554 C161.56868896 30.26742554 69.16868896 30.26742554 -26.03131104 30.26742554 C-26.03131104 12.26742554 -26.03131104 12.26742554 -22.03131104 6.26742554 C-14.97869082 0.74798363 -8.64212185 -0.02857321 0 0 Z " fill="#9AC8FF" transform="translate(142.03131103515625,457.7325744628906)"/>
<path d="M0 0 C8.90021296 6.21656096 14.93825704 14.13932085 17.796875 24.6796875 C20.11949913 41.24018636 11.97569925 55.53768406 2.34667969 68.43579102 C-2.72251969 75.06836029 -8.15624542 81.39000744 -13.63671875 87.68359375 C-15.5922604 89.96654725 -17.4464124 92.24410969 -19.203125 94.6796875 C-33.55943027 88.97055215 -48.3801892 63.72842962 -54.83984375 50.26953125 C-59.30431851 39.74155782 -61.03805771 30.21523136 -57.234375 19.0859375 C-52.87913309 8.92370638 -45.02542314 1.04524826 -35.02734375 -3.62890625 C-23.75862853 -7.89991823 -10.15673583 -6.08683814 0 0 Z M-37.203125 4.6796875 C-37.89921875 5.0921875 -38.5953125 5.5046875 -39.3125 5.9296875 C-46.09314465 10.41612907 -49.6063448 16.687737 -52.578125 24.1171875 C-54.39526183 34.47486742 -53.429088 43.64628615 -47.28515625 52.41796875 C-40.67558049 60.31436457 -33.20055099 64.84719094 -22.9140625 65.91796875 C-13.48650121 66.21750665 -6.07298546 63.62790139 1.171875 57.5546875 C8.47064553 50.53440742 11.88183425 42.51595651 12.109375 32.4921875 C12.04701233 26.29749596 11.01245948 21.9488384 7.796875 16.6796875 C7.16072266 15.63167969 7.16072266 15.63167969 6.51171875 14.5625 C1.69766655 7.45540344 -4.92908566 2.91866494 -13.203125 0.6796875 C-21.93128403 -0.14607892 -29.67049664 -0.06527525 -37.203125 4.6796875 Z " fill="#99C7FF" transform="translate(168.203125,193.3203125)"/>
<path d="M0 0 C9.45594157 5.726373 16.90262803 14.583794 19.61328125 25.4609375 C22.21654373 42.55306489 14.41159147 55.71376091 4.68359375 69.21484375 C-10.48410691 89.51840413 -10.48410691 89.51840413 -18 96 C-18.66 96 -19.32 96 -20 96 C-21.43549726 94.40665761 -22.79827327 92.74748918 -24.125 91.0625 C-26.9233865 87.55228228 -29.74349277 84.14989451 -32.8125 80.875 C-45.48574908 66.70331064 -57.73943487 49.31045123 -57.3671875 29.6640625 C-56.30445329 19.05933174 -50.83962721 10.97131407 -43 4 C-30.22356709 -5.27445883 -14.23920627 -7.50287704 0 0 Z M-43 12 C-50.08837584 20.69043946 -51.990087 28.89045239 -51 40 C-49.26273997 48.76791639 -44.72311463 55.20601146 -38 61 C-29.40361966 66.403794 -21.40643901 68.28146599 -11.3359375 66.5390625 C-2.37089997 64.1798421 4.83451231 58.68710151 10 51 C14.38066227 43.1773888 15.22330769 35.32884803 13.52734375 26.5546875 C10.53403957 16.26632463 4.33319787 9.13610432 -5 4 C-18.78158341 -1.66366442 -32.60125803 2.02412739 -43 12 Z " fill="#99C7FF" transform="translate(383,192)"/>
</svg>
