<?xml version="1.0" encoding="UTF-8"?>
<svg version="1.1" xmlns="http://www.w3.org/2000/svg" width="512" height="512">
<path d="M0 0 C0.78761719 -0.00630432 1.57523437 -0.01260864 2.38671875 -0.019104 C3.64935547 -0.01303131 3.64935547 -0.01303131 4.9375 -0.00683594 C5.81019531 -0.00874939 6.68289062 -0.01066284 7.58203125 -0.01263428 C9.42448211 -0.01399338 11.26694262 -0.01031612 13.109375 -0.00195312 C15.92730243 0.00875033 18.74459236 -0.00185766 21.5625 -0.01464844 C23.35416807 -0.01332679 25.14583575 -0.0107643 26.9375 -0.00683594 C27.77925781 -0.0108844 28.62101563 -0.01493286 29.48828125 -0.019104 C30.66970703 -0.00964752 30.66970703 -0.00964752 31.875 0 C32.90947266 0.00238678 32.90947266 0.00238678 33.96484375 0.00482178 C36.31720972 0.30767434 37.913697 1.03641477 39.9375 2.25878906 C41.0625 4.07128906 41.0625 4.07128906 41.9375 6.25878906 C42.26234375 7.05414063 42.5871875 7.84949219 42.921875 8.66894531 C43.25703125 9.52359375 43.5921875 10.37824219 43.9375 11.25878906 C44.31390625 12.165 44.6903125 13.07121094 45.078125 14.00488281 C47.9375 20.94188765 47.9375 20.94188765 47.9375 23.25878906 C48.5459375 23.39414063 49.154375 23.52949219 49.78125 23.66894531 C54.35568684 24.79237318 58.54525936 25.95461477 62.66796875 28.26269531 C69.48087014 32.25891727 69.48087014 32.25891727 77.08837891 32.89013672 C80.70350837 31.6511564 83.91466413 29.93421547 87.21875 28.03613281 C91.33348998 25.80373161 94.29005194 25.69632868 98.9375 26.25878906 C101.30859375 27.62988281 101.30859375 27.62988281 103.375 29.69628906 C104.19871094 30.50195312 105.02242187 31.30761719 105.87109375 32.13769531 C106.3388623 32.61480957 106.80663086 33.09192383 107.28857422 33.58349609 C109.2647512 35.59127319 111.27463535 37.5627558 113.28515625 39.53613281 C116.32519813 42.53523567 119.36082847 45.53835561 122.375 48.56347656 C123.33212891 49.52229736 123.33212891 49.52229736 124.30859375 50.50048828 C127.52813681 53.97578041 128.37069282 56.38475501 128.25732422 61.11816406 C127.81241343 64.09600973 126.57711733 66.2517144 125.09130859 68.83813477 C121.71539376 74.75694192 121.71539376 74.75694192 121.24462891 81.37451172 C122.64409185 85.67121407 124.83358401 89.51316819 127.03955078 93.43847656 C128.33057402 96.05562427 128.76417909 98.70908835 129.25 101.57128906 C129.78394992 104.16539807 129.78394992 104.16539807 130.9375 106.25878906 C133.31023669 107.62714401 135.41137628 108.12860274 138.09375 108.66113281 C141.26171079 109.32692677 143.97744144 110.39152641 146.9375 111.69628906 C147.845 112.086875 148.7525 112.47746094 149.6875 112.87988281 C152.30430091 114.48358198 152.80607066 115.45754512 153.9375 118.25878906 C154.19146729 120.23144531 154.19146729 120.23144531 154.19628906 122.32128906 C154.20259338 123.10890625 154.20889771 123.89652344 154.21539307 124.70800781 C154.20932037 125.97064453 154.20932037 125.97064453 154.203125 127.25878906 C154.20503845 128.13148438 154.2069519 129.00417969 154.20892334 129.90332031 C154.21028244 131.74577117 154.20660518 133.58823169 154.19824219 135.43066406 C154.18753873 138.24859149 154.19814672 141.06588143 154.2109375 143.88378906 C154.20961586 145.67545713 154.20705336 147.46712481 154.203125 149.25878906 C154.20717346 150.10054687 154.21122192 150.94230469 154.21539307 151.80957031 C154.20908875 152.5971875 154.20278442 153.38480469 154.19628906 154.19628906 C154.19469788 154.8859375 154.19310669 155.57558594 154.19146729 156.28613281 C153.88861472 158.63849878 153.15987429 160.23498606 151.9375 162.25878906 C150.125 163.38378906 150.125 163.38378906 147.9375 164.25878906 C147.14214844 164.58363281 146.34679687 164.90847656 145.52734375 165.24316406 C144.67269531 165.57832031 143.81804687 165.91347656 142.9375 166.25878906 C142.03128906 166.63519531 141.12507813 167.01160156 140.19140625 167.39941406 C133.25440141 170.25878906 133.25440141 170.25878906 130.9375 170.25878906 C130.73447266 171.17144531 130.73447266 171.17144531 130.52734375 172.10253906 C129.40391588 176.6769759 128.24167429 180.86654843 125.93359375 184.98925781 C121.93737179 191.80215921 121.93737179 191.80215921 121.30615234 199.40966797 C122.54513267 203.02479743 124.26207359 206.23595319 126.16015625 209.54003906 C128.39255745 213.65477904 128.49996038 216.61134101 127.9375 221.25878906 C126.56640625 223.62988281 126.56640625 223.62988281 124.5 225.69628906 C123.69433594 226.52 122.88867188 227.34371094 122.05859375 228.19238281 C121.34292236 228.89403564 121.34292236 228.89403564 120.61279297 229.60986328 C118.60501588 231.58604027 116.63353326 233.59592441 114.66015625 235.60644531 C111.66105339 238.64648719 108.65793345 241.68211753 105.6328125 244.69628906 C104.99359863 245.334375 104.35438477 245.97246094 103.69580078 246.62988281 C100.22050865 249.84942587 97.81153406 250.69198188 93.078125 250.57861328 C90.10027933 250.13370249 87.94457467 248.89840639 85.3581543 247.41259766 C79.43934714 244.03668282 79.43934714 244.03668282 72.82177734 243.56591797 C68.525075 244.96538091 64.68312087 247.15487308 60.7578125 249.36083984 C58.14066479 250.65186308 55.48720072 251.08546815 52.625 251.57128906 C50.03213902 252.09630185 50.03213902 252.09630185 47.9375 253.25878906 C46.54662524 255.68145653 46.01340313 257.81597918 45.47265625 260.55175781 C44.92566138 263.31867348 44.07902382 265.62259513 42.9375 268.19628906 C42.628125 268.9065625 42.31875 269.61683594 42 270.34863281 C40.44940016 273.13629209 38.78761669 274.83373072 35.9375 276.25878906 C32.99466833 276.37024577 30.07623495 276.42291368 27.1328125 276.42675781 C26.25728729 276.43008621 25.38176208 276.43341461 24.47970581 276.43684387 C22.62531053 276.44191177 20.77090611 276.44425224 18.91650391 276.4440918 C16.0809013 276.4462749 13.2456898 276.46442259 10.41015625 276.48339844 C8.60937633 276.48633307 6.80859456 276.4883174 5.0078125 276.48925781 C4.15978058 276.49644333 3.31174866 276.50362885 2.4380188 276.5110321 C1.64394623 276.50795547 0.84987366 276.50487885 0.03173828 276.50170898 C-0.66394257 276.503134 -1.35962341 276.50455902 -2.0763855 276.50602722 C-4.4733604 276.20764379 -6.0256916 275.55297634 -8.0625 274.25878906 C-9.6953125 271.24707031 -9.6953125 271.24707031 -11.1875 267.57128906 C-11.68507813 266.37117188 -12.18265625 265.17105469 -12.6953125 263.93457031 C-14.0625 260.25878906 -14.0625 260.25878906 -14.953125 256.39550781 C-15.70242925 253.15732666 -15.70242925 253.15732666 -18.1015625 252.16503906 C-18.95492187 252.03097656 -19.80828125 251.89691406 -20.6875 251.75878906 C-24.41694264 251.02943261 -27.48745553 250.13341848 -30.78515625 248.28222656 C-37.59516144 244.26026465 -37.59516144 244.26026465 -45.21337891 243.62744141 C-48.82850837 244.86642173 -52.03966413 246.58336265 -55.34375 248.48144531 C-59.45848998 250.71384651 -62.41505194 250.82124944 -67.0625 250.25878906 C-69.43359375 248.88769531 -69.43359375 248.88769531 -71.5 246.82128906 C-72.32371094 246.015625 -73.14742187 245.20996094 -73.99609375 244.37988281 C-74.4638623 243.90276855 -74.93163086 243.4256543 -75.41357422 242.93408203 C-77.3897512 240.92630494 -79.39963535 238.95482233 -81.41015625 236.98144531 C-84.45019813 233.98234245 -87.48582847 230.97922252 -90.5 227.95410156 C-91.13808594 227.3148877 -91.77617187 226.67567383 -92.43359375 226.01708984 C-95.65540253 222.539352 -96.49902932 220.12379289 -96.38671875 215.38623047 C-95.93688124 212.43451056 -94.68133311 210.36734245 -93.16577148 207.83105469 C-90.7160094 203.64602188 -88.63764996 199.73749123 -89.48388672 194.80029297 C-91.1374743 189.74358495 -93.54002839 185.11052238 -96.05249023 180.43554688 C-97.08366781 178.21316852 -97.59337653 176.20322679 -98.0625 173.80566406 C-98.65261257 170.19392918 -98.65261257 170.19392918 -101.12890625 168.96191406 C-101.95261719 168.81238281 -102.77632812 168.66285156 -103.625 168.50878906 C-107.27101322 167.68447303 -110.57153454 166.76506569 -114 165.25878906 C-114.71027344 164.94941406 -115.42054687 164.64003906 -116.15234375 164.32128906 C-118.94000303 162.77068922 -120.63744165 161.10890576 -122.0625 158.25878906 C-122.17395671 155.31595739 -122.22662462 152.39752401 -122.23046875 149.45410156 C-122.23546135 148.14081375 -122.23546135 148.14081375 -122.24055481 146.80099487 C-122.2456227 144.94659959 -122.24796318 143.09219517 -122.24780273 141.23779297 C-122.24998583 138.40219037 -122.26813353 135.56697886 -122.28710938 132.73144531 C-122.290044 130.93066539 -122.29202833 129.12988363 -122.29296875 127.32910156 C-122.30015427 126.48106964 -122.30733978 125.63303772 -122.31474304 124.75930786 C-122.3101281 123.56819901 -122.3101281 123.56819901 -122.30541992 122.35302734 C-122.30684494 121.6573465 -122.30826996 120.96166565 -122.30973816 120.24490356 C-122.01135473 117.84792866 -121.35668728 116.29559746 -120.0625 114.25878906 C-117.05078125 112.62597656 -117.05078125 112.62597656 -113.375 111.13378906 C-112.17488281 110.63621094 -110.97476563 110.13863281 -109.73828125 109.62597656 C-106.0625 108.25878906 -106.0625 108.25878906 -102.19921875 107.36816406 C-98.9610376 106.61885981 -98.9610376 106.61885981 -97.96875 104.21972656 C-97.8346875 103.36636719 -97.700625 102.51300781 -97.5625 101.63378906 C-96.83314355 97.90434642 -95.93712941 94.83383353 -94.0859375 91.53613281 C-90.06397558 84.72612762 -90.06397558 84.72612762 -89.43115234 77.10791016 C-90.67013267 73.49278069 -92.38707359 70.28162493 -94.28515625 66.97753906 C-96.375984 63.03941453 -97.29103332 59.64069997 -96.0625 55.25878906 C-94.12244056 52.18996065 -91.65041784 49.7882682 -89.0625 47.25878906 C-88.26376465 46.43781738 -87.4650293 45.6168457 -86.64208984 44.77099609 C-84.03455595 42.0970219 -81.39671268 39.45645245 -78.75 36.82128906 C-77.39165039 35.45713867 -77.39165039 35.45713867 -76.00585938 34.06542969 C-75.14154297 33.20240234 -74.27722656 32.339375 -73.38671875 31.45019531 C-72.60385498 30.66845947 -71.82099121 29.88672363 -71.0144043 29.08129883 C-67.8765505 26.15145785 -65.50498286 25.92348878 -61.22509766 25.96972656 C-58.2325684 26.36972144 -56.19605625 27.62501547 -53.63476562 29.15551758 C-49.44973282 31.60527966 -45.54120217 33.68363911 -40.60400391 32.83740234 C-35.54739799 31.18384815 -30.91467974 28.78109817 -26.23950195 26.26928711 C-24.01676333 25.23755949 -22.00306802 24.72350398 -19.60546875 24.25097656 C-16.01115188 23.67099891 -16.01115188 23.67099891 -14.80078125 21.26269531 C-14.66027344 20.45703125 -14.51976562 19.65136719 -14.375 18.82128906 C-13.45099948 14.75213294 -12.30044706 11.08910327 -10.625 7.25878906 C-10.23441406 6.35128906 -9.84382813 5.44378906 -9.44140625 4.50878906 C-7.16048246 0.78694175 -4.2215665 0.00974018 0 0 Z M-23.9921875 103.74316406 C-35.1364994 117.28455437 -37.58207664 131.21731047 -36.0625 148.25878906 C-33.5292205 162.05611492 -24.5839851 174.33981158 -13.171875 182.26660156 C0.19864685 190.46033162 14.10296465 192.52579421 29.546875 189.56738281 C32.48624066 188.65739785 35.16707041 187.59393585 37.9375 186.25878906 C38.7934375 185.84628906 39.649375 185.43378906 40.53125 185.00878906 C53.04611543 178.21059055 61.84860394 166.97634907 66.875 153.75878906 C70.3489485 140.340663 68.85263898 125.55425916 62.4296875 113.40722656 C54.97288546 100.81737009 43.4708646 90.43672326 29.0234375 86.69628906 C8.34581952 83.76477867 -9.30776089 88.26925215 -23.9921875 103.74316406 Z " fill="#9AC8FF" transform="translate(240.0625,117.7412109375)"/>
<path d="M0 0 C4.61766575 2.95119497 6.51815218 6.51238859 8.6875 11.375 C24.57936168 44.86510389 55.58569363 70.43218052 89.94140625 83.24609375 C128.26993657 96.87844412 170.28675014 95.22686096 207.1953125 77.90625 C237.68812596 62.94928249 262.38311918 38.31630156 277.31323242 7.83447266 C279.06712753 4.34194614 280.55844021 1.94403477 284 0 C287.77762603 -0.56262515 289.48999479 -0.29466967 292.8125 1.625 C295.58032513 4.63006729 296.07721461 5.90762576 296 10 C294.89538227 13.12463626 293.52278434 16.0590002 292 19 C292.70125 19.25265625 293.4025 19.5053125 294.125 19.765625 C298.40188062 21.60189439 302.16340317 24.2079194 306.0625 26.734375 C308.89743805 28.31002757 308.89743805 28.31002757 311.62109375 27.33203125 C312.40613281 26.89246094 313.19117188 26.45289063 314 26 C314.69222656 25.65839844 315.38445312 25.31679688 316.09765625 24.96484375 C317.41066681 24.27831934 318.72316511 23.59081435 320.03515625 22.90234375 C327.15803717 19.63119963 335.98337404 19.9303166 343.25 22.5625 C351.77172275 26.47455892 357.30382009 32.41788269 361 41 C363.57390025 48.96919115 362.81931923 58.20030262 359.31640625 65.71875 C354.53929448 73.99718701 348.16405947 78.80001323 339.015625 81.609375 C329.77613333 83.39997416 320.86540642 81.74057995 312.9296875 76.6796875 C306.61120697 71.67413799 302.47702887 64.92224577 301 57 C300.47487437 47.05025126 300.47487437 47.05025126 302 44 C301.30132812 43.74605469 300.60265625 43.49210937 299.8828125 43.23046875 C295.56741269 41.3885298 291.71946603 38.83792213 287.7421875 36.36328125 C285.01226256 34.60397278 285.01226256 34.60397278 282 36 C280.55699673 37.75884133 279.19308786 39.58320077 277.875 41.4375 C273.59576556 47.31142062 269.00825238 52.72443117 264 58 C263.5364209 58.49612793 263.0728418 58.99225586 262.59521484 59.50341797 C254.17001472 68.47538624 245.01437811 75.86523767 235 83 C236.89301536 88.17232986 239.70024214 92.65693138 242.5390625 97.35546875 C244 100 244 100 244 102 C244.66 101.67 245.32 101.34 246 101 C255.41686985 99.9868976 264.34860818 101.78753375 271.875 107.75 C278.67648723 114.22527681 281.96353658 121.89252542 282.375 131.25 C282.16643099 140.1939297 279.18158318 147.78934588 273 154.27734375 C265.42487101 160.8020154 258.16495301 162.3829362 248.38671875 162.2734375 C240.5953139 161.64437367 234.42572951 158.371077 228.7578125 153.0703125 C222.8305537 146.0893188 220.64563412 138.24958128 220.7109375 129.28125 C221.21960856 123.50714606 222.87125541 117.41666791 226.76171875 113 C227.37466797 112.01 227.37466797 112.01 228 111 C226.71000651 105.79702624 223.21096842 101.19611303 220.4609375 96.64453125 C219 94 219 94 219 92 C218.12601562 92.43570313 217.25203125 92.87140625 216.3515625 93.3203125 C195.63170083 103.44563568 174.06662772 108.9860823 151 110 C151 117.26 151 124.52 151 132 C153.97 132.99 153.97 132.99 157 134 C163.6242863 137.86915818 168.25265125 142.89373043 171.25 149.9375 C173.65274641 159.7487145 173.34973498 168.29833444 168.375 177.3125 C163.77728503 184.36009229 157.82411478 188.11311488 150 191 C139.44482338 192.41393332 130.84590214 191.26700277 122 185 C115.90000168 179.81376661 112.33134201 172.42452207 111.125 164.5625 C110.52217364 155.89687114 112.89756938 148.00912838 118 141 C121.76455361 136.97157581 125.89532545 134.13684051 131 132 C131.66 132 132.32 132 133 132 C133 124.74 133 117.48 133 110 C131.123125 109.9175 129.24625 109.835 127.3125 109.75 C105.19233628 108.12056312 84.76928468 101.85548411 65 92 C64.62101562 93.051875 64.62101562 93.051875 64.234375 94.125 C62.39810561 98.40188062 59.7920806 102.16340317 57.265625 106.0625 C55.68997243 108.89743805 55.68997243 108.89743805 56.66796875 111.62109375 C57.10753906 112.40613281 57.54710937 113.19117188 58 114 C58.34160156 114.69222656 58.68320313 115.38445312 59.03515625 116.09765625 C59.72168066 117.41066681 60.40918565 118.72316511 61.09765625 120.03515625 C64.36880037 127.15803717 64.0696834 135.98337404 61.4375 143.25 C57.52544108 151.77172275 51.58211731 157.30382009 43 161 C35.03080885 163.57390025 25.79969738 162.81931923 18.28125 159.31640625 C10.00281299 154.53929448 5.19998677 148.16405947 2.390625 139.015625 C0.60002584 129.77613333 2.25942005 120.86540642 7.3203125 112.9296875 C12.32586201 106.61120697 19.07775423 102.47702887 27 101 C36.94974874 100.47487437 36.94974874 100.47487437 40 102 C40.25394531 101.30132812 40.50789063 100.60265625 40.76953125 99.8828125 C42.6114702 95.56741269 45.16207787 91.71946603 47.63671875 87.7421875 C49.39602722 85.01226256 49.39602722 85.01226256 48 82 C46.24115867 80.55699673 44.41679923 79.19308786 42.5625 77.875 C36.68857938 73.59576556 31.27556883 69.00825238 26 64 C25.50387207 63.5364209 25.00774414 63.0728418 24.49658203 62.59521484 C15.52461376 54.17001472 8.13476233 45.01437811 1 35 C-4.17232986 36.89301536 -8.65693138 39.70024214 -13.35546875 42.5390625 C-16 44 -16 44 -18 44 C-17.67 44.66 -17.34 45.32 -17 46 C-15.9868976 55.41686985 -17.78753375 64.34860818 -23.75 71.875 C-30.22527681 78.67648723 -37.89252542 81.96353658 -47.25 82.375 C-56.1939297 82.16643099 -63.78934588 79.18158318 -70.27734375 73 C-76.8020154 65.42487101 -78.3829362 58.16495301 -78.2734375 48.38671875 C-77.64437367 40.5953139 -74.371077 34.42572951 -69.0703125 28.7578125 C-62.0893188 22.8305537 -54.24958128 20.64563412 -45.28125 20.7109375 C-39.50714606 21.21960856 -33.41666791 22.87125541 -29 26.76171875 C-28.34 27.17035156 -27.68 27.57898438 -27 28 C-21.79702624 26.71000651 -17.19611303 23.21096842 -12.64453125 20.4609375 C-10 19 -10 19 -8 19 C-8.45052734 18.25556641 -8.45052734 18.25556641 -8.91015625 17.49609375 C-10.95491866 13.843247 -11.99146886 11.51186843 -12.0625 7.25 C-10.08737302 1.20843513 -6.2461743 -1.04102905 0 0 Z " fill="#6599FF" transform="translate(114,314)"/>
<path d="M0 0 C8.8754481 4.14409187 14.09391338 9.54124803 17.75 18.58203125 C20.4119456 26.76096254 19.82850488 34.65238383 16.34765625 42.5078125 C12.96766647 48.70446042 8.67633988 53.38820133 2.50390625 56.8984375 C0.02890625 57.3934375 0.02890625 57.3934375 -2.49609375 57.8984375 C-2.49609375 65.1584375 -2.49609375 72.4184375 -2.49609375 79.8984375 C-0.43359375 79.9809375 1.62890625 80.0634375 3.75390625 80.1484375 C25.56039036 81.4406555 46.07599303 88.21313563 65.50390625 97.8984375 C65.7565625 97.1971875 66.00921875 96.4959375 66.26953125 95.7734375 C68.10580064 91.49655688 70.71182565 87.73503433 73.23828125 83.8359375 C74.81393382 81.00099945 74.81393382 81.00099945 73.8359375 78.27734375 C73.39636719 77.49230469 72.95679688 76.70726563 72.50390625 75.8984375 C71.99150391 74.86009766 71.99150391 74.86009766 71.46875 73.80078125 C70.78222559 72.48777069 70.0947206 71.17527239 69.40625 69.86328125 C66.13510588 62.74040033 66.43422285 53.91506346 69.06640625 46.6484375 C72.97846517 38.12671475 78.92178894 32.59461741 87.50390625 28.8984375 C95.4730974 26.32453725 104.70420887 27.07911827 112.22265625 30.58203125 C120.50109326 35.35914302 125.30391948 41.73437803 128.11328125 50.8828125 C129.90388041 60.12230417 128.2444862 69.03303108 123.18359375 76.96875 C118.17804424 83.28723053 111.42615202 87.42140863 103.50390625 88.8984375 C93.55415751 89.42356313 93.55415751 89.42356313 90.50390625 87.8984375 C90.24996094 88.59710938 89.99601562 89.29578125 89.734375 90.015625 C87.89243605 94.33102481 85.34182838 98.17897147 82.8671875 102.15625 C81.10787903 104.88617494 81.10787903 104.88617494 82.50390625 107.8984375 C84.26274758 109.34144077 86.08710702 110.70534964 87.94140625 112.0234375 C93.81532687 116.30267194 99.22833742 120.89018512 104.50390625 125.8984375 C105.00003418 126.3620166 105.49616211 126.8255957 106.00732422 127.30322266 C114.97929249 135.72842278 122.36914392 144.88405939 129.50390625 154.8984375 C134.67623611 153.00542214 139.16083763 150.19819536 143.859375 147.359375 C146.50390625 145.8984375 146.50390625 145.8984375 148.50390625 145.8984375 C148.17390625 145.2384375 147.84390625 144.5784375 147.50390625 143.8984375 C146.49080385 134.48156765 148.29144 125.54982932 154.25390625 118.0234375 C160.72918306 111.22195027 168.39643167 107.93490092 177.75390625 107.5234375 C186.69783595 107.73200651 194.29325213 110.71685432 200.78125 116.8984375 C207.30592165 124.47356649 208.88684245 131.73348449 208.77734375 141.51171875 C208.14827992 149.3031236 204.87498325 155.47270799 199.57421875 161.140625 C192.59322505 167.0678838 184.75348753 169.25280338 175.78515625 169.1875 C170.01105231 168.67882894 163.92057416 167.02718209 159.50390625 163.13671875 C158.84390625 162.72808594 158.18390625 162.31945312 157.50390625 161.8984375 C152.30093249 163.18843099 147.70001928 166.68746908 143.1484375 169.4375 C140.50390625 170.8984375 140.50390625 170.8984375 138.50390625 170.8984375 C138.95443359 171.76855469 138.95443359 171.76855469 139.4140625 172.65625 C141.19742382 176.31969733 142.48874435 179.09485696 142.56640625 183.2109375 C141.1756971 186.7286136 139.77075802 188.01092315 136.50390625 189.8984375 C132.83415476 190.51006275 131.19127572 190.337742 128.046875 188.328125 C124.99875716 185.41579121 123.5039081 182.30598712 121.81640625 178.5234375 C115.46239079 165.13314742 106.29955314 153.92998377 96.50390625 142.8984375 C95.92382812 142.24488281 95.34375 141.59132812 94.74609375 140.91796875 C85.59125481 131.23408133 74.05241186 123.37946952 62.50390625 116.8984375 C61.91448242 116.5674707 61.32505859 116.23650391 60.71777344 115.89550781 C26.5171471 96.99563763 -14.57117121 92.49882023 -52.18725586 102.89916992 C-90.49163041 114.11528723 -122.79999926 139.09647702 -142.49609375 173.8984375 C-144.36497452 177.34410443 -146.17445617 180.81716828 -147.92578125 184.32421875 C-149.54743304 186.98259818 -150.8298333 188.32696769 -153.49609375 189.8984375 C-157.23703544 190.45559903 -158.98968977 190.17977304 -162.30859375 188.3359375 C-165.23730253 185.07251915 -165.5690165 183.27380242 -165.49609375 178.8984375 C-164.42340049 176.062753 -163.06412514 173.48939066 -161.49609375 170.8984375 C-162.54796875 170.51945312 -162.54796875 170.51945312 -163.62109375 170.1328125 C-167.89797437 168.29654311 -171.65949692 165.6905181 -175.55859375 163.1640625 C-178.3935318 161.58840993 -178.3935318 161.58840993 -181.1171875 162.56640625 C-182.29474609 163.22576172 -182.29474609 163.22576172 -183.49609375 163.8984375 C-184.18832031 164.24003906 -184.88054687 164.58164063 -185.59375 164.93359375 C-186.90676056 165.62011816 -188.21925886 166.30762315 -189.53125 166.99609375 C-196.65413092 170.26723787 -205.47946779 169.9681209 -212.74609375 167.3359375 C-221.2678165 163.42387858 -226.79991384 157.48055481 -230.49609375 148.8984375 C-233.069994 140.92924635 -232.31541298 131.69813488 -228.8125 124.1796875 C-224.03538823 115.90125049 -217.66015322 111.09842427 -208.51171875 108.2890625 C-199.27222708 106.49846334 -190.36150017 108.15785755 -182.42578125 113.21875 C-176.10730072 118.22429951 -171.97312262 124.97619173 -170.49609375 132.8984375 C-169.97096812 142.84818624 -169.97096812 142.84818624 -171.49609375 145.8984375 C-170.79742187 146.15238281 -170.09875 146.40632812 -169.37890625 146.66796875 C-165.06350644 148.5099077 -161.21555978 151.06051537 -157.23828125 153.53515625 C-154.50835631 155.29446472 -154.50835631 155.29446472 -151.49609375 153.8984375 C-150.05309048 152.13959617 -148.68918161 150.31523673 -147.37109375 148.4609375 C-143.09185931 142.58701688 -138.50434613 137.17400633 -133.49609375 131.8984375 C-133.03251465 131.40230957 -132.56893555 130.90618164 -132.09130859 130.39501953 C-123.66610847 121.42305126 -114.51047186 114.03319983 -104.49609375 106.8984375 C-106.38910911 101.72610764 -109.19633589 97.24150612 -112.03515625 92.54296875 C-113.49609375 89.8984375 -113.49609375 89.8984375 -113.49609375 87.8984375 C-114.48609375 88.3934375 -114.48609375 88.3934375 -115.49609375 88.8984375 C-126.21555606 89.85127859 -134.18523266 87.73521153 -142.484375 80.85546875 C-148.81106028 74.70077103 -151.48608629 67.40425228 -151.87109375 58.6484375 C-151.66252474 49.7045078 -148.67767693 42.10909162 -142.49609375 35.62109375 C-134.92096476 29.0964221 -127.66104676 27.5155013 -117.8828125 27.625 C-110.09140765 28.25406383 -103.92182326 31.5273605 -98.25390625 36.828125 C-92.32664745 43.8091187 -90.14172787 51.64885622 -90.20703125 60.6171875 C-90.71570231 66.39129144 -92.36734916 72.48176959 -96.2578125 76.8984375 C-96.87076172 77.8884375 -96.87076172 77.8884375 -97.49609375 78.8984375 C-96.20610026 84.10141126 -92.70706217 88.70232447 -89.95703125 93.25390625 C-88.49609375 95.8984375 -88.49609375 95.8984375 -88.49609375 97.8984375 C-87.62210938 97.46273437 -86.748125 97.02703125 -85.84765625 96.578125 C-65.11024548 86.44562511 -43.572303 80.82148587 -20.49609375 79.8984375 C-20.49609375 72.6384375 -20.49609375 65.3784375 -20.49609375 57.8984375 C-23.46609375 56.9084375 -23.46609375 56.9084375 -26.49609375 55.8984375 C-33.12038005 52.02927932 -37.748745 47.00470707 -40.74609375 39.9609375 C-43.14884016 30.149723 -42.84582873 21.60010306 -37.87109375 12.5859375 C-29.54187534 -0.18147758 -14.31222238 -4.5095494 0 0 Z " fill="#6599FF" transform="translate(267.49609375,8.1015625)"/>
<path d="M0 0 C0.78761719 -0.00630432 1.57523437 -0.01260864 2.38671875 -0.019104 C3.64935547 -0.01303131 3.64935547 -0.01303131 4.9375 -0.00683594 C5.81019531 -0.00874939 6.68289062 -0.01066284 7.58203125 -0.01263428 C9.42448211 -0.01399338 11.26694262 -0.01031612 13.109375 -0.00195312 C15.92730243 0.00875033 18.74459236 -0.00185766 21.5625 -0.01464844 C23.35416807 -0.01332679 25.14583575 -0.0107643 26.9375 -0.00683594 C27.77925781 -0.0108844 28.62101563 -0.01493286 29.48828125 -0.019104 C30.66970703 -0.00964752 30.66970703 -0.00964752 31.875 0 C32.90947266 0.00238678 32.90947266 0.00238678 33.96484375 0.00482178 C36.31720972 0.30767434 37.913697 1.03641477 39.9375 2.25878906 C41.0625 4.07128906 41.0625 4.07128906 41.9375 6.25878906 C42.26234375 7.05414063 42.5871875 7.84949219 42.921875 8.66894531 C43.25703125 9.52359375 43.5921875 10.37824219 43.9375 11.25878906 C44.31390625 12.165 44.6903125 13.07121094 45.078125 14.00488281 C47.9375 20.94188765 47.9375 20.94188765 47.9375 23.25878906 C48.5459375 23.39414063 49.154375 23.52949219 49.78125 23.66894531 C54.35568684 24.79237318 58.54525936 25.95461477 62.66796875 28.26269531 C69.48087014 32.25891727 69.48087014 32.25891727 77.08837891 32.89013672 C80.70350837 31.6511564 83.91466413 29.93421547 87.21875 28.03613281 C91.33348998 25.80373161 94.29005194 25.69632868 98.9375 26.25878906 C101.30859375 27.62988281 101.30859375 27.62988281 103.375 29.69628906 C104.19871094 30.50195312 105.02242187 31.30761719 105.87109375 32.13769531 C106.3388623 32.61480957 106.80663086 33.09192383 107.28857422 33.58349609 C109.2647512 35.59127319 111.27463535 37.5627558 113.28515625 39.53613281 C116.32519813 42.53523567 119.36082847 45.53835561 122.375 48.56347656 C123.33212891 49.52229736 123.33212891 49.52229736 124.30859375 50.50048828 C127.52813681 53.97578041 128.37069282 56.38475501 128.25732422 61.11816406 C127.81241343 64.09600973 126.57711733 66.2517144 125.09130859 68.83813477 C121.71539376 74.75694192 121.71539376 74.75694192 121.24462891 81.37451172 C122.64409185 85.67121407 124.83358401 89.51316819 127.03955078 93.43847656 C128.33057402 96.05562427 128.76417909 98.70908835 129.25 101.57128906 C129.78394992 104.16539807 129.78394992 104.16539807 130.9375 106.25878906 C133.31023669 107.62714401 135.41137628 108.12860274 138.09375 108.66113281 C141.26171079 109.32692677 143.97744144 110.39152641 146.9375 111.69628906 C147.845 112.086875 148.7525 112.47746094 149.6875 112.87988281 C152.30430091 114.48358198 152.80607066 115.45754512 153.9375 118.25878906 C154.19146729 120.23144531 154.19146729 120.23144531 154.19628906 122.32128906 C154.20259338 123.10890625 154.20889771 123.89652344 154.21539307 124.70800781 C154.20932037 125.97064453 154.20932037 125.97064453 154.203125 127.25878906 C154.20503845 128.13148438 154.2069519 129.00417969 154.20892334 129.90332031 C154.21028244 131.74577117 154.20660518 133.58823169 154.19824219 135.43066406 C154.18753873 138.24859149 154.19814672 141.06588143 154.2109375 143.88378906 C154.20961586 145.67545713 154.20705336 147.46712481 154.203125 149.25878906 C154.20717346 150.10054687 154.21122192 150.94230469 154.21539307 151.80957031 C154.20908875 152.5971875 154.20278442 153.38480469 154.19628906 154.19628906 C154.19469788 154.8859375 154.19310669 155.57558594 154.19146729 156.28613281 C153.88861472 158.63849878 153.15987429 160.23498606 151.9375 162.25878906 C150.125 163.38378906 150.125 163.38378906 147.9375 164.25878906 C147.14214844 164.58363281 146.34679687 164.90847656 145.52734375 165.24316406 C144.67269531 165.57832031 143.81804687 165.91347656 142.9375 166.25878906 C142.03128906 166.63519531 141.12507813 167.01160156 140.19140625 167.39941406 C133.25440141 170.25878906 133.25440141 170.25878906 130.9375 170.25878906 C130.73447266 171.17144531 130.73447266 171.17144531 130.52734375 172.10253906 C129.40391588 176.6769759 128.24167429 180.86654843 125.93359375 184.98925781 C121.93737179 191.80215921 121.93737179 191.80215921 121.30615234 199.40966797 C122.54513267 203.02479743 124.26207359 206.23595319 126.16015625 209.54003906 C128.39255745 213.65477904 128.49996038 216.61134101 127.9375 221.25878906 C126.56640625 223.62988281 126.56640625 223.62988281 124.5 225.69628906 C123.69433594 226.52 122.88867188 227.34371094 122.05859375 228.19238281 C121.34292236 228.89403564 121.34292236 228.89403564 120.61279297 229.60986328 C118.60501588 231.58604027 116.63353326 233.59592441 114.66015625 235.60644531 C111.66105339 238.64648719 108.65793345 241.68211753 105.6328125 244.69628906 C104.99359863 245.334375 104.35438477 245.97246094 103.69580078 246.62988281 C100.22050865 249.84942587 97.81153406 250.69198188 93.078125 250.57861328 C90.10027933 250.13370249 87.94457467 248.89840639 85.3581543 247.41259766 C79.43934714 244.03668282 79.43934714 244.03668282 72.82177734 243.56591797 C68.525075 244.96538091 64.68312087 247.15487308 60.7578125 249.36083984 C58.14066479 250.65186308 55.48720072 251.08546815 52.625 251.57128906 C50.03213902 252.09630185 50.03213902 252.09630185 47.9375 253.25878906 C46.54662524 255.68145653 46.01340313 257.81597918 45.47265625 260.55175781 C44.92566138 263.31867348 44.07902382 265.62259513 42.9375 268.19628906 C42.628125 268.9065625 42.31875 269.61683594 42 270.34863281 C40.44940016 273.13629209 38.78761669 274.83373072 35.9375 276.25878906 C32.99466833 276.37024577 30.07623495 276.42291368 27.1328125 276.42675781 C26.25728729 276.43008621 25.38176208 276.43341461 24.47970581 276.43684387 C22.62531053 276.44191177 20.77090611 276.44425224 18.91650391 276.4440918 C16.0809013 276.4462749 13.2456898 276.46442259 10.41015625 276.48339844 C8.60937633 276.48633307 6.80859456 276.4883174 5.0078125 276.48925781 C4.15978058 276.49644333 3.31174866 276.50362885 2.4380188 276.5110321 C1.64394623 276.50795547 0.84987366 276.50487885 0.03173828 276.50170898 C-0.66394257 276.503134 -1.35962341 276.50455902 -2.0763855 276.50602722 C-4.4733604 276.20764379 -6.0256916 275.55297634 -8.0625 274.25878906 C-9.6953125 271.24707031 -9.6953125 271.24707031 -11.1875 267.57128906 C-11.68507813 266.37117188 -12.18265625 265.17105469 -12.6953125 263.93457031 C-14.0625 260.25878906 -14.0625 260.25878906 -14.953125 256.39550781 C-15.70242925 253.15732666 -15.70242925 253.15732666 -18.1015625 252.16503906 C-18.95492187 252.03097656 -19.80828125 251.89691406 -20.6875 251.75878906 C-24.41694264 251.02943261 -27.48745553 250.13341848 -30.78515625 248.28222656 C-37.59516144 244.26026465 -37.59516144 244.26026465 -45.21337891 243.62744141 C-48.82850837 244.86642173 -52.03966413 246.58336265 -55.34375 248.48144531 C-59.45848998 250.71384651 -62.41505194 250.82124944 -67.0625 250.25878906 C-69.43359375 248.88769531 -69.43359375 248.88769531 -71.5 246.82128906 C-72.32371094 246.015625 -73.14742187 245.20996094 -73.99609375 244.37988281 C-74.4638623 243.90276855 -74.93163086 243.4256543 -75.41357422 242.93408203 C-77.3897512 240.92630494 -79.39963535 238.95482233 -81.41015625 236.98144531 C-84.45019813 233.98234245 -87.48582847 230.97922252 -90.5 227.95410156 C-91.13808594 227.3148877 -91.77617187 226.67567383 -92.43359375 226.01708984 C-95.65540253 222.539352 -96.49902932 220.12379289 -96.38671875 215.38623047 C-95.93688124 212.43451056 -94.68133311 210.36734245 -93.16577148 207.83105469 C-90.7160094 203.64602188 -88.63764996 199.73749123 -89.48388672 194.80029297 C-91.1374743 189.74358495 -93.54002839 185.11052238 -96.05249023 180.43554688 C-97.08366781 178.21316852 -97.59337653 176.20322679 -98.0625 173.80566406 C-98.65261257 170.19392918 -98.65261257 170.19392918 -101.12890625 168.96191406 C-101.95261719 168.81238281 -102.77632812 168.66285156 -103.625 168.50878906 C-107.27101322 167.68447303 -110.57153454 166.76506569 -114 165.25878906 C-114.71027344 164.94941406 -115.42054687 164.64003906 -116.15234375 164.32128906 C-118.94000303 162.77068922 -120.63744165 161.10890576 -122.0625 158.25878906 C-122.17395671 155.31595739 -122.22662462 152.39752401 -122.23046875 149.45410156 C-122.23546135 148.14081375 -122.23546135 148.14081375 -122.24055481 146.80099487 C-122.2456227 144.94659959 -122.24796318 143.09219517 -122.24780273 141.23779297 C-122.24998583 138.40219037 -122.26813353 135.56697886 -122.28710938 132.73144531 C-122.290044 130.93066539 -122.29202833 129.12988363 -122.29296875 127.32910156 C-122.30015427 126.48106964 -122.30733978 125.63303772 -122.31474304 124.75930786 C-122.3101281 123.56819901 -122.3101281 123.56819901 -122.30541992 122.35302734 C-122.30684494 121.6573465 -122.30826996 120.96166565 -122.30973816 120.24490356 C-122.01135473 117.84792866 -121.35668728 116.29559746 -120.0625 114.25878906 C-117.05078125 112.62597656 -117.05078125 112.62597656 -113.375 111.13378906 C-112.17488281 110.63621094 -110.97476563 110.13863281 -109.73828125 109.62597656 C-106.0625 108.25878906 -106.0625 108.25878906 -102.19921875 107.36816406 C-98.9610376 106.61885981 -98.9610376 106.61885981 -97.96875 104.21972656 C-97.8346875 103.36636719 -97.700625 102.51300781 -97.5625 101.63378906 C-96.83314355 97.90434642 -95.93712941 94.83383353 -94.0859375 91.53613281 C-90.06397558 84.72612762 -90.06397558 84.72612762 -89.43115234 77.10791016 C-90.67013267 73.49278069 -92.38707359 70.28162493 -94.28515625 66.97753906 C-96.375984 63.03941453 -97.29103332 59.64069997 -96.0625 55.25878906 C-94.12244056 52.18996065 -91.65041784 49.7882682 -89.0625 47.25878906 C-88.26376465 46.43781738 -87.4650293 45.6168457 -86.64208984 44.77099609 C-84.03455595 42.0970219 -81.39671268 39.45645245 -78.75 36.82128906 C-77.39165039 35.45713867 -77.39165039 35.45713867 -76.00585938 34.06542969 C-75.14154297 33.20240234 -74.27722656 32.339375 -73.38671875 31.45019531 C-72.60385498 30.66845947 -71.82099121 29.88672363 -71.0144043 29.08129883 C-67.8765505 26.15145785 -65.50498286 25.92348878 -61.22509766 25.96972656 C-58.2325684 26.36972144 -56.19605625 27.62501547 -53.63476562 29.15551758 C-49.44973282 31.60527966 -45.54120217 33.68363911 -40.60400391 32.83740234 C-35.54739799 31.18384815 -30.91467974 28.78109817 -26.23950195 26.26928711 C-24.01676333 25.23755949 -22.00306802 24.72350398 -19.60546875 24.25097656 C-16.01115188 23.67099891 -16.01115188 23.67099891 -14.80078125 21.26269531 C-14.66027344 20.45703125 -14.51976562 19.65136719 -14.375 18.82128906 C-13.45099948 14.75213294 -12.30044706 11.08910327 -10.625 7.25878906 C-10.23441406 6.35128906 -9.84382813 5.44378906 -9.44140625 4.50878906 C-7.16048246 0.78694175 -4.2215665 0.00974018 0 0 Z M3.9375 17.25878906 C1.30685176 23.09332896 1.30685176 23.09332896 -1.15234375 29.00097656 C-1.43207031 29.70480469 -1.71179688 30.40863281 -2 31.13378906 C-2.41572266 32.21273437 -2.41572266 32.21273437 -2.83984375 33.31347656 C-5.55929856 37.64027687 -10.17678428 38.70991651 -14.875 39.94628906 C-21.15932298 41.76731447 -26.66135098 44.40307352 -32.3293457 47.61694336 C-37.1929896 50.24750354 -40.52217759 50.85803731 -46.0625 50.25878906 C-49.81722839 48.85670694 -53.29547405 47.14215334 -56.890625 45.37597656 C-59.86816135 43.94901394 -59.86816135 43.94901394 -62.04492188 44.98535156 C-64.16202007 46.32160328 -65.76298494 47.73150521 -67.515625 49.51660156 C-68.134375 50.14179688 -68.753125 50.76699219 -69.390625 51.41113281 C-70.02484375 52.06210938 -70.6590625 52.71308594 -71.3125 53.38378906 C-71.9621875 54.0425 -72.611875 54.70121094 -73.28125 55.37988281 C-74.87961727 57.00175549 -76.47311897 58.62811716 -78.0625 60.25878906 C-77.60053208 61.68550471 -77.13498703 63.11106235 -76.66796875 64.53613281 C-76.40910889 65.33011475 -76.15024902 66.12409668 -75.88354492 66.94213867 C-75.01839185 69.50783427 -75.01839185 69.50783427 -73.375 72.82128906 C-71.66300615 77.30508248 -71.11913406 81.5946253 -72.73706055 86.16381836 C-73.67590488 88.09322626 -74.69043132 89.9555422 -75.75 91.82128906 C-79.3071167 98.44407355 -81.81767663 104.95129672 -83.95703125 112.14941406 C-86.14892982 118.31461287 -86.14892982 118.31461287 -89.78540039 120.10888672 C-91.90027433 120.95889604 -94.02849424 121.71586971 -96.1875 122.44628906 C-100.98647771 123.7728556 -100.98647771 123.7728556 -105.0625 126.25878906 C-105.14976223 128.03950152 -105.16949041 129.82362046 -105.16015625 131.60644531 C-105.15693359 132.68603516 -105.15371094 133.765625 -105.15039062 134.87792969 C-105.14201172 136.01423828 -105.13363281 137.15054688 -105.125 138.32128906 C-105.12048828 139.46146484 -105.11597656 140.60164063 -105.11132812 141.77636719 C-105.09949747 144.60389258 -105.0830141 147.43131546 -105.0625 150.25878906 C-99.1117012 152.92941323 -99.1117012 152.92941323 -93.1015625 155.46191406 C-92.30492187 155.80738281 -91.50828125 156.15285156 -90.6875 156.50878906 C-89.87539062 156.84394531 -89.06328125 157.17910156 -88.2265625 157.52441406 C-84.96298741 160.13998688 -84.28673841 163.3571299 -83.0625 167.25878906 C-82.5925728 168.58277749 -82.11612198 169.90447063 -81.6328125 171.22363281 C-81.27920654 172.19913086 -81.27920654 172.19913086 -80.91845703 173.19433594 C-78.9951587 178.46188648 -77.12845814 183.4546671 -74.1875 188.25878906 C-71.85606616 192.30652273 -70.93603896 195.65466306 -72.0625 200.25878906 C-73.57662277 203.94661138 -75.187258 207.50829647 -76.9453125 211.08691406 C-78.37227512 214.06445042 -78.37227512 214.06445042 -77.3359375 216.24121094 C-75.99968578 218.35830913 -74.58978385 219.95927401 -72.8046875 221.71191406 C-72.17949219 222.33066406 -71.55429688 222.94941406 -70.91015625 223.58691406 C-69.93369141 224.53824219 -69.93369141 224.53824219 -68.9375 225.50878906 C-68.27878906 226.15847656 -67.62007812 226.80816406 -66.94140625 227.47753906 C-65.31953357 229.07590634 -63.6931719 230.66940804 -62.0625 232.25878906 C-60.63578436 231.79682114 -59.21022671 231.33127609 -57.78515625 230.86425781 C-56.99117432 230.60539795 -56.19719238 230.34653809 -55.37915039 230.07983398 C-52.81345479 229.21468091 -52.81345479 229.21468091 -49.5 227.57128906 C-45.01620659 225.85929521 -40.72666376 225.31542312 -36.1574707 226.93334961 C-34.2280628 227.87219394 -32.36574686 228.88672038 -30.5 229.94628906 C-23.87721552 233.50340576 -17.36999234 236.0139657 -10.171875 238.15332031 C-4.00667619 240.34521889 -4.00667619 240.34521889 -2.21240234 243.98168945 C-1.36239302 246.09656339 -0.60541935 248.2247833 0.125 250.38378906 C1.45156654 255.18276677 1.45156654 255.18276677 3.9375 259.25878906 C5.71821246 259.34605129 7.5023314 259.36577947 9.28515625 259.35644531 C10.36474609 259.35322266 11.44433594 259.35 12.55664062 259.34667969 C13.69294922 259.33830078 14.82925781 259.32992187 16 259.32128906 C17.14017578 259.31677734 18.28035156 259.31226563 19.45507812 259.30761719 C22.28260351 259.29578654 25.1100264 259.27930316 27.9375 259.25878906 C28.27305908 258.41509766 28.60861816 257.57140625 28.9543457 256.70214844 C30.22261511 253.5133568 31.49131076 250.37255947 32.9375 247.25878906 C33.24623047 246.57768066 33.55496094 245.89657227 33.87304688 245.19482422 C36.11705385 240.90766274 38.03547785 238.82409119 42.6328125 237.15722656 C44.43503258 236.62281168 46.24557893 236.11586196 48.0625 235.63378906 C54.16723791 233.83575747 59.75783959 232.12897947 65.25 228.82128906 C68.69329725 226.82525269 71.49532867 225.34941521 75.62890625 225.64160156 C80.23004296 226.87168549 84.50437398 229.04819222 88.765625 231.14160156 C91.74316135 232.56856418 91.74316135 232.56856418 93.91992188 231.53222656 C96.03702007 230.19597485 97.63798494 228.78607292 99.390625 227.00097656 C100.009375 226.37578125 100.628125 225.75058594 101.265625 225.10644531 C101.89984375 224.45546875 102.5340625 223.80449219 103.1875 223.13378906 C103.8371875 222.47507812 104.486875 221.81636719 105.15625 221.13769531 C106.75461727 219.51582264 108.34811897 217.88946096 109.9375 216.25878906 C109.47553208 214.83207342 109.00998703 213.40651577 108.54296875 211.98144531 C108.28410889 211.18746338 108.02524902 210.39348145 107.75854492 209.57543945 C106.89339185 207.00974385 106.89339185 207.00974385 105.25 203.69628906 C103.54249051 199.22424039 102.98481505 194.92651381 104.61206055 190.36987305 C105.55260474 188.45688018 106.56670132 186.60916405 107.625 184.75878906 C110.6901297 179.12353203 112.80065572 173.76647926 114.4375 167.57128906 C116.69165198 159.57369433 116.69165198 159.57369433 120.5 157.07128906 C122.53515625 156.14160156 122.53515625 156.14160156 124.9375 155.25878906 C125.98808594 154.80246094 127.03867187 154.34613281 128.12109375 153.87597656 C131.03811282 152.61846304 133.98585875 151.43273729 136.9375 150.25878906 C136.9375 142.33878906 136.9375 134.41878906 136.9375 126.25878906 C135.08125 125.49566406 133.225 124.73253906 131.3125 123.94628906 C129.18668369 123.05239457 127.06161359 122.15672214 124.9375 121.25878906 C123.761875 120.76378906 122.58625 120.26878906 121.375 119.75878906 C116.76869458 116.92413958 115.57160643 112.46839349 114.25 107.44628906 C112.42897459 101.16196608 109.79321554 95.65993808 106.5793457 89.99194336 C103.94878552 85.12829946 103.33825175 81.79911148 103.9375 76.25878906 C105.33958212 72.50406068 107.05413572 69.02581501 108.8203125 65.43066406 C110.24727512 62.45312771 110.24727512 62.45312771 109.2109375 60.27636719 C107.87468578 58.15926899 106.46478385 56.55830412 104.6796875 54.80566406 C104.05449219 54.18691406 103.42929687 53.56816406 102.78515625 52.93066406 C101.80869141 51.97933594 101.80869141 51.97933594 100.8125 51.00878906 C100.15378906 50.35910156 99.49507812 49.70941406 98.81640625 49.04003906 C97.19453357 47.44167179 95.5681719 45.84817009 93.9375 44.25878906 C92.51078436 44.72075698 91.08522671 45.18630204 89.66015625 45.65332031 C88.86617432 45.91218018 88.07219238 46.17104004 87.25415039 46.43774414 C84.68845479 47.30289721 84.68845479 47.30289721 81.375 48.94628906 C76.90295133 50.65379856 72.60522475 51.21147402 68.04858398 49.58422852 C66.13568084 48.64372844 64.28817041 47.62884865 62.4375 46.57128906 C56.1470477 43.17616823 49.97868943 40.75407585 43.078125 38.89477539 C39.50512702 37.90242818 37.32178285 37.10333564 34.9375 34.25878906 C34.06201172 32.46533203 34.06201172 32.46533203 33.3671875 30.50097656 C32.98240234 29.43943359 32.98240234 29.43943359 32.58984375 28.35644531 C32.20505859 27.25623047 32.20505859 27.25623047 31.8125 26.13378906 C30.45006581 21.33673998 30.45006581 21.33673998 27.9375 17.25878906 C26.15678754 17.17152683 24.3726686 17.15179865 22.58984375 17.16113281 C21.51025391 17.16435547 20.43066406 17.16757813 19.31835938 17.17089844 C17.61389648 17.1834668 17.61389648 17.1834668 15.875 17.19628906 C14.16473633 17.20305664 14.16473633 17.20305664 12.41992188 17.20996094 C9.59239649 17.22179159 6.7649736 17.23827497 3.9375 17.25878906 Z " fill="#6699FF" transform="translate(240.0625,117.7412109375)"/>
<path d="M0 0 C15.00955143 11.91597976 25.60354616 27.71943956 28 47 C29.43026049 67.4955355 24.37142252 86.36923487 10.75 102.125 C-1.8433137 115.51589023 -17.91891938 124.10884524 -36.4375 125.203125 C-48.8167488 125.36600985 -60.95834481 124.03391566 -72 118 C-73.19496094 117.36964844 -73.19496094 117.36964844 -74.4140625 116.7265625 C-91.69380812 107.04348523 -102.69868996 91.854842 -108.4765625 73.09375 C-109.39943214 69.40227144 -109.80366572 65.79579602 -110 62 C-110.05285156 61.03320312 -110.10570312 60.06640625 -110.16015625 59.0703125 C-110.68992698 40.22890148 -104.68004492 23.02092323 -92 9 C-91.47019531 8.39027344 -90.94039062 7.78054687 -90.39453125 7.15234375 C-67.31066421 -17.79577858 -26.89967283 -19.24529439 0 0 Z M-80.9296875 21.484375 C-92.0739994 35.0257653 -94.51957664 48.9585214 -93 66 C-90.4667205 79.79732586 -81.5214851 92.08102251 -70.109375 100.0078125 C-56.73885315 108.20154256 -42.83453535 110.26700515 -27.390625 107.30859375 C-24.45125934 106.39860878 -21.77042959 105.33514679 -19 104 C-18.1440625 103.5875 -17.288125 103.175 -16.40625 102.75 C-3.89138457 95.95180149 4.91110394 84.71756001 9.9375 71.5 C13.4114485 58.08187393 11.91513898 43.2954701 5.4921875 31.1484375 C-1.96461454 18.55858102 -13.4666354 8.1779342 -27.9140625 4.4375 C-48.59168048 1.5059896 -66.24526089 6.01046309 -80.9296875 21.484375 Z " fill="#6699FF" transform="translate(297,200)"/>
<path d="M0 0 C2.5 1.5 2.5 1.5 4 4 C4.56127081 8.42000766 4.74560721 10.72625434 2.5 14.5625 C-0.09837778 17.09591834 -2.76849441 19.49103167 -5.52734375 21.84765625 C-8.57769577 24.50285998 -11.5374076 27.2477164 -14.5 30 C-23.05325852 37.92171191 -23.05325852 37.92171191 -26.9765625 41.265625 C-28.55912296 42.6221054 -30.11025242 44.01527508 -31.6484375 45.421875 C-32.58945313 46.25203125 -33.53046875 47.0821875 -34.5 47.9375 C-35.3559375 48.70964844 -36.211875 49.48179687 -37.09375 50.27734375 C-40.05355656 52.03174522 -42.30790662 52.91661959 -45.78759766 52.7277832 C-50.89239003 51.04853071 -54.37284489 46.45666017 -57.9375 42.625 C-58.79923828 41.73554688 -59.66097656 40.84609375 -60.54882812 39.9296875 C-67.90537099 32.27749161 -67.90537099 32.27749161 -68.25 27.625 C-68 24 -68 24 -67 21.625 C-64.55504475 19.63847386 -62.32263216 18.89590541 -59.18359375 18.63671875 C-54.74400376 19.37532675 -52.05894398 22.94105602 -49 26 C-47.02582638 27.70035635 -45.01632519 29.34924085 -43 31 C-41.76636719 29.85724609 -41.76636719 29.85724609 -40.5078125 28.69140625 C-34.51555028 23.14655666 -28.50861857 17.62146376 -22.42578125 12.17578125 C-20.68812839 10.61721017 -18.95710031 9.05124076 -17.23046875 7.48046875 C-15.87888672 6.25263672 -15.87888672 6.25263672 -14.5 5 C-13.6853125 4.2575 -12.870625 3.515 -12.03125 2.75 C-8.32888441 -0.43973035 -4.74665292 -0.64727085 0 0 Z " fill="#6599FF" transform="translate(288,230)"/>
<path d="M0 0 C4.79642058 2.39821029 7.60178971 5.20357942 10 10 C10.8565765 14.37028828 10.36877185 17.26245631 8.375 21.25 C5.3809015 24.7168509 2.69192851 27.47238201 -1.953125 28.3828125 C-7.05027553 28.6746341 -10.0736905 27.39090366 -14 24 C-17.39090366 20.0736905 -18.6746341 17.05027553 -18.3828125 11.953125 C-17.47238201 7.30807149 -14.7168509 4.6190985 -11.25 1.625 C-7.26245631 -0.36877185 -4.37028828 -0.8565765 0 0 Z " fill="#99C7FF" transform="translate(260,23)"/>
<path d="M0 0 C4.79765866 2.39882933 7.565249 5.22414226 10 10 C10.65293024 15.22344192 9.845108 18.58517724 7 23 C3.32297423 26.40124883 0.71377437 27.83832317 -4.3125 28.3125 C-9.97363984 27.83274239 -12.73199141 25.46822047 -16.375 21.25 C-18.36877185 17.26245631 -18.8565765 14.37028828 -18 10 C-14.26064222 2.52128445 -8.36428352 -1.63939957 0 0 Z " fill="#99C7FF" transform="translate(260,461)"/>
<path d="M0 0 C4.01610676 2.04456344 6.61203911 4.20252637 9 8 C9.74252547 12.4769918 9.54587651 16.67840424 7.8125 20.875 C2.87841258 26.65979215 2.87841258 26.65979215 -1.5234375 27.45703125 C-6.66448693 27.75986019 -10.10555615 27.51329151 -14.125 24.125 C-17.50686613 20.77549622 -18.20618832 18.50269805 -18.375 13.75 C-18.34966722 9.88421832 -18.18135665 7.45559078 -15.6875 4.4375 C-10.4724168 -0.29245919 -6.84396 -0.87415065 0 0 Z " fill="#9AC8FF" transform="translate(370,432)"/>
<path d="M0 0 C3.48805691 1.98102187 6.19713391 4.39426782 8 8 C8.60110663 12.58819366 9.04707002 17.09473018 6.765625 21.24609375 C3.746729 24.84037339 1.55688195 26.69194193 -3.26953125 27.2734375 C-10.98236748 27.58147704 -10.98236748 27.58147704 -14.5 24.75 C-18.72228637 20.10548499 -19.50008493 16.66104869 -19.390625 10.4765625 C-18.75000991 6.4150628 -16.98077126 4.77281047 -14 2 C-9.52852634 -0.98098244 -5.23732986 -0.86073109 0 0 Z " fill="#9AC8FF" transform="translate(451,352)"/>
<path d="M0 0 C4.01949494 2.04628833 6.60302176 4.20592587 9 8 C9.89991132 12.9130294 9.50962889 16.96186709 7.3125 21.4375 C3.51727712 25.64301725 0.77284037 27.17741998 -4.875 27.5625 C-9.80027455 27.43734355 -12.2522575 25.88838917 -15.72265625 22.5078125 C-18.71586648 18.97454293 -18.44336891 15.30124724 -18.42578125 10.83984375 C-17.7569677 6.37904146 -15.40998318 3.80926076 -12 1 C-8.29018719 -0.85490641 -4.04876607 -0.4540091 0 0 Z " fill="#9AC8FF" transform="translate(71,352)"/>
<path d="M0 0 C3.49029792 1.97277708 6.19844633 4.39689265 8 8 C8.54644038 12.98066973 8.54204675 16.8958307 6.3125 21.4375 C2.48186572 25.68225691 -0.23625666 27.17519153 -5.9375 27.5 C-9.50353167 27.39370994 -11.69159858 26.98568074 -14.5 24.75 C-18.67525462 20.15721992 -19.55158869 16.67489577 -19.4609375 10.546875 C-18.6951155 6.31538397 -16.21271539 3.72165267 -13 1 C-9.00469193 -0.99765403 -4.33153639 -0.64943255 0 0 Z " fill="#9AC8FF" transform="translate(371,53)"/>
<path d="M0 0 C4.40617281 2.16303029 7.1644597 4.41114924 9 9 C9.71062194 13.73747957 9.47089401 17.05821199 7.3125 21.375 C3.54719793 25.64912668 0.79702011 27.17577136 -4.875 27.5625 C-9.80027455 27.43734355 -12.2522575 25.88838917 -15.72265625 22.5078125 C-18.71586648 18.97454293 -18.44336891 15.30124724 -18.42578125 10.83984375 C-17.7569677 6.37904146 -15.40998318 3.80926076 -12 1 C-8.28763586 -0.85618207 -4.05156912 -0.44809981 0 0 Z " fill="#9AC8FF" transform="translate(71,133)"/>
<path d="M0 0 C3.49029792 1.97277708 6.19844633 4.39689265 8 8 C8.54644038 12.98066973 8.54204675 16.8958307 6.3125 21.4375 C2.66616794 25.47803012 0.0055627 27.15438768 -5.4375 27.4375 C-9.95278304 27.2722151 -12.56215039 26.0285818 -16 23 C-19.33271032 19.2229283 -19.61993863 15.38537908 -19.49609375 10.51171875 C-18.66789838 6.31857211 -16.19763024 3.70887329 -13 1 C-9.00469193 -0.99765403 -4.33153639 -0.64943255 0 0 Z " fill="#9AC8FF" transform="translate(152,53)"/>
<path d="M0 0 C3.98357852 2.06555923 6.62463305 4.21169926 9 8 C9.75387754 12.54543809 9.56914643 16.72619608 7.6875 20.9375 C4.60941565 24.6996031 2.79382832 26.6141391 -2.234375 27.30859375 C-7.1287138 27.55939061 -10.21211413 27.40811261 -14.0625 24.1875 C-17.50744634 20.90466878 -18.18837274 17.86035948 -18.375 13.1875 C-18.34313885 9.55001885 -18.05084179 7.35840774 -15.75 4.5 C-10.79555484 -0.00404106 -6.58163468 -0.93696883 0 0 Z " fill="#9AC8FF" transform="translate(151,432)"/>
<path d="M0 0 C4.1460495 1.71249871 6.76513235 4.10967484 9 8 C9.68945766 12.65000889 9.61478189 16.62405958 7.6875 20.9375 C4.60856879 24.70063815 2.78708822 26.66420624 -2.26953125 27.2734375 C-9.98236748 27.58147704 -9.98236748 27.58147704 -13.5 24.75 C-17.52298435 20.32471721 -18.45584492 17.13597932 -18.3203125 11.25 C-17.70661479 6.93914778 -15.32410139 4.18576244 -12.16796875 1.359375 C-8.36436102 -1.02558985 -4.3384719 -0.51497309 0 0 Z " fill="#9AC8FF" transform="translate(450,133)"/>
</svg>
